<?xml version="1.0" encoding="utf-8"?>
<!-- Generator: Adobe Illustrator 16.0.0, SVG Export Plug-In . SVG Version: 6.00 Build 0)  -->
<!DOCTYPE svg PUBLIC "-//W3C//DTD SVG 1.1//EN" "http://www.w3.org/Graphics/SVG/1.1/DTD/svg11.dtd">
<svg version="1.1" id="Forma_1_1_" xmlns="http://www.w3.org/2000/svg" xmlns:xlink="http://www.w3.org/1999/xlink" x="0px" y="0px"
	 width="402px" height="402px" viewBox="0 0 402 402" enable-background="new 0 0 402 402" xml:space="preserve">
<path d="M85.625,93.031V55.406c0-5.199,4.207-9.406,9.406-9.406s9.406,4.207,9.406,9.406v37.625c0,5.199-4.207,9.406-9.406,9.406
	S85.625,98.23,85.625,93.031z M245.531,102.438c5.199,0,9.406-4.207,9.406-9.406V55.406c0-5.199-4.207-9.406-9.406-9.406
	s-9.406,4.207-9.406,9.406v37.625C236.125,98.23,240.332,102.438,245.531,102.438z M349,271.75c0,41.557-33.693,75.25-75.25,75.25
	s-75.25-33.693-75.25-75.25s33.693-75.25,75.25-75.25S349,230.193,349,271.75z M330.188,271.75
	c0-31.121-25.316-56.438-56.438-56.438s-56.438,25.316-56.438,56.438s25.316,56.438,56.438,56.438S330.188,302.871,330.188,271.75z
	 M123.25,158.875H85.625V196.5h37.625V158.875z M85.625,252.938h37.625v-37.625H85.625V252.938z M142.063,196.5h37.625v-37.625
	h-37.625V196.5z M142.063,252.938h37.625v-37.625h-37.625V252.938z M66.813,269.876V140.063H273.75v37.625h18.813v-73.376
	c0-11.428-9.112-20.687-20.374-20.687h-7.845v9.406c0,10.361-8.433,18.813-18.813,18.813s-18.813-8.451-18.813-18.813v-9.406
	H113.844v9.406c0,10.361-8.433,18.813-18.813,18.813s-18.813-8.451-18.813-18.813v-9.406h-7.835C57.122,83.625,48,92.884,48,104.312
	v165.564c0,11.391,9.122,20.687,20.383,20.687h111.304V271.75H68.383C67.529,271.75,66.813,270.868,66.813,269.876z M236.125,196.5
	v-37.625H198.5V196.5H236.125z M301.969,271.75H273.75v-28.219c0-5.199-4.207-9.406-9.406-9.406s-9.406,4.207-9.406,9.406v37.625
	c0,5.199,4.207,9.406,9.406,9.406h37.625c5.199,0,9.406-4.207,9.406-9.406S307.168,271.75,301.969,271.75z"/>
</svg>
