<?xml version="1.0" encoding="utf-8"?>
<!-- Generator: Adobe Illustrator 16.0.0, SVG Export Plug-In . SVG Version: 6.00 Build 0)  -->
<!DOCTYPE svg PUBLIC "-//W3C//DTD SVG 1.1//EN" "http://www.w3.org/Graphics/SVG/1.1/DTD/svg11.dtd">
<svg version="1.1" id="Layer_1" xmlns="http://www.w3.org/2000/svg" xmlns:xlink="http://www.w3.org/1999/xlink" x="0px" y="0px"
	 width="1718px" height="402px" viewBox="0 0 1718 402" enable-background="new 0 0 1718 402" xml:space="preserve">
<g>
	<path fill="#FFFFFF" d="M148.227,395.921c-18.775,0-34.08-2.509-45.489-7.455c-21.893-9.159-40.506-26.006-55.338-50.08
		c-14.964-24.218-22.552-51.075-22.552-79.828c0-17.351,2.461-33.944,7.313-49.318c3.629-12.543,8.443-24.697,14.318-36.157
		l4.771-9.366c0.207-0.323,0.703-1.185,2.335-4.237c1.311-2.449,2.535-4.7,3.675-6.75l6.88-12.078l-0.845-0.695
		c-14.833-12.219-29.641-26.457-44.01-42.315C12.673,88.565,9.32,80.366,9.32,73.27c0-4.088,1.274-9.534,3.788-16.19
		c4.442-6.276,10.383-9.327,18.154-9.327c9.048,0,16.736,3.562,22.852,10.584L69.857,77.82c7.742,9.553,14.614,17.361,20.429,23.21
		l0.993,0.999l0.916-1.069c30.381-35.456,68.716-57.131,113.94-64.424c4.385-0.896,9.695-1.346,15.839-1.346
		c20.664,0,37.148,6.335,48.996,18.829c12.212,12.196,18.392,27.233,18.392,44.719c0,16.539-5.198,32.256-15.451,46.716
		c-5.68,7.808-15.794,16.956-30.054,27.178c-7.945,5.97-17.741,10.825-29.14,14.45c-11.413,3.63-23.33,5.47-35.42,5.47
		c-23.459,0-47.72-6.675-72.108-19.839l-0.855-0.463l-0.685,0.691c-0.109,0.11-0.26,0.262-1.935,2.646
		c-1.088,1.544-1.939,2.839-2.533,3.848c-0.572,0.976-1.511,2.485-2.789,4.488c-1.33,2.084-2.496,4.069-3.468,5.9
		c-0.967,1.824-2.134,4.018-3.5,6.587c-1.369,2.572-2.65,5.284-3.808,8.06c-1.136,2.727-2.318,5.723-3.517,8.904
		c-1.197,3.182-2.383,6.667-3.523,10.357c-1.142,3.692-2.238,7.536-3.261,11.424c-1.39,5.892-2.09,12.124-2.09,18.555
		c0,16.314,4.277,32.224,12.714,47.286c8.434,15.063,20.448,27.43,35.709,36.755c13.586,8.008,28.512,12.063,44.38,12.063
		c21.988,0,45.644-7.778,70.309-23.121c1.938-1.148,5.225-3.306,10.027-6.579c4.681-3.187,7.547-5.081,8.521-5.629
		c5.682-3.206,10.396-4.832,14.014-4.832c3.4,0,6.464,0.75,9.106,2.228c9.693,4.74,14.374,10.898,14.374,18.86
		c0,5.695-2.369,10.517-7.242,14.74l-0.089,0.085c-14.365,15.044-34.925,27.295-61.107,36.413
		C199.356,391.23,173.209,395.921,148.227,395.921z M209.341,82.322c-2.6,0-6.812,0.569-12.876,1.74
		c-11.227,2.679-21.734,7.817-31.287,15.286c-9.464,7.399-20.667,18.524-33.298,33.067l-1.01,1.162l1.315,0.801
		c18.555,11.296,36.071,17.022,52.063,17.022c10.884,0,20.493-2.37,28.562-7.046c8.08-4.678,13.899-10.101,17.298-16.117
		c4.522-7.465,6.825-14.569,6.825-21.083c0-3.706-0.724-7.286-2.151-10.643C230.698,87.094,222.14,82.322,209.341,82.322z"/>
	<path fill="#FFFFFF" d="M415.458,388.914c-7.804,0-15.943-1.037-24.195-3.081c-13.661-3.926-25.272-12.846-34.466-26.498
		c-9.001-13.348-13.565-30.068-13.565-49.699c0-16.683,3.579-33.438,10.639-49.8c9.987-23.962,23.729-42.53,40.853-55.203
		c17.094-12.985,35.02-19.564,53.292-19.564c18.34,0,34.425,6.828,47.808,20.295c13.174,13.264,20.53,32.414,21.862,56.918
		l-0.002,3.348c0,19.434-4.431,39.149-13.168,58.598c-8.719,18.961-21.131,34.606-36.886,46.492
		C451.922,382.795,434.372,388.914,415.458,388.914z M405.871,279.195c-4.734,8.76-7.134,19.227-7.134,31.113
		c0,13.453,5.03,21.897,14.951,25.099l0.127,0.041l0.132,0.014c6.243,0.681,6.499,0.681,6.651,0.681
		c14.143,0,25.533-7.4,33.855-21.997c8.522-14.347,12.85-29.27,12.85-44.335c0-5.39-0.774-10.287-2.303-14.557l-0.038-0.096
		c-3.643-8.09-9.115-12.191-16.265-12.191c-7.741,0-16.406,4.648-25.755,13.817C413.872,265.339,408.123,272.885,405.871,279.195z"
		/>
	<path fill="#FFFFFF" d="M615.54,393.187c-13.731,0-23.897-4.483-30.217-13.325c-1.888-2.491-2.834-6.666-2.834-12.438
		c0-6.039,1.538-15.004,4.572-26.645c3.019-11.76,4.485-18.647,4.485-21.061c0-2.577-0.896-3.439-1.813-3.647
		c-0.422-0.266-0.937-0.399-1.537-0.399c-1.18,0-3.634,0-24.016,21.525c-5.176,5.771-12.116,11.717-20.651,17.698
		c-8.544,5.989-16.969,10.707-25.041,14.023c-6.162,2.279-11.357,3.443-15.399,3.443c-6,0-10.307-2.45-13.162-7.49
		c-1.063-3.175-1.603-5.832-1.603-7.899c0-8.955,5.427-16.842,16.131-23.441c10.001-5.726,21.5-13.819,34.144-24.035
		c11.973-10.112,21.668-19.068,28.838-26.639c8.084-8.261,17.206-15.644,27.097-21.927c9.84-6.256,19.691-10.338,29.278-12.136
		l0.088-0.016l0.084-0.028c0.894-0.298,2.25-0.449,4.032-0.449c5.303,0,9.866,1.21,13.564,3.598
		c3.716,2.397,6.467,5.313,8.178,8.663c1.776,3.483,3.213,7.046,4.27,10.588c1.081,3.629,1.991,6.711,2.732,9.245
		c0.684,2.342,1.641,4.737,3.556,4.737c0.812,0,1.466-0.244,1.946-0.728c2.107-2.115,5.947-6.877,11.738-14.557l16.43-23.209
		l10.417-14.412c6.738-9.025,11.733-14.963,14.833-17.632l0.074-0.068c3.754-3.772,9.45-7.619,16.93-11.434
		c13.106-7.089,23.938-10.676,32.222-10.676c10.431,0,19.385,5.355,26.612,15.918c4.43,6.454,7.521,14.771,9.19,24.721
		c0.665,6.48,1.008,13.31,1.008,20.215c0,12.826-1.032,28.316-3.068,46.04c-2.742,28.568-2.742,29.127-2.742,29.337
		c0,1.901,0.15,2.771,0.434,3.282c1.205,4.882,4.396,7.46,9.24,7.46c2.271,0,4.271-0.543,5.949-1.615
		c15.092-7.773,24.877-11.715,29.085-11.715c2.754,0,4.652,0.639,5.644,1.897l0.07,0.081c4.418,4.744,6.658,9.794,6.658,15.008
		c0,10.171-7.838,20.03-23.295,29.306c-15.116,9.069-28.072,13.837-38.508,14.17l-0.072,0.003l-0.071,0.01
		c-1.518,0.219-4.905,0.329-10.069,0.329c-16.03,0-28.665-3.619-37.552-10.758c-8.807-7.068-13.272-16.172-13.272-27.057
		c0-4.22-0.024-5.947,0.12-6.653l-0.17-0.129v-0.131c0-0.14,0.256-0.811,0.361-1.992c0.119-1.36,0.365-3.588,0.528-6.444
		c0.172-2.97,0.418-6.171,0.646-9.601c0.683-12,1.053-21.037,1.053-26.872c0-9.484-0.567-11.087-2.313-11.087
		c-0.691,0-1.301,0.253-1.772,0.731l-0.082,0.094l-33.153,40.863c-19.459,23.886-35.925,42.356-48.939,54.899
		C639.084,389.665,628.69,393.187,615.54,393.187z"/>
	<path fill="#FFFFFF" d="M911.536,389.955c-9.571,0-16.738-1.352-21.258-3.005c-3.675-1.469-7.952-6.016-12.678-13.491
		c-4.18-6.817-6.474-15.46-6.807-25.668l-0.083-2.558l-16.029,12.511c-13.449,9.559-25.443,14.422-35.602,14.422
		c-6.46,0-10.546-1.415-12.146-4.204c-1.737-4.687-2.618-8.239-2.618-10.561c0-11.48,9.069-21.725,26.956-30.448
		c10.372-4.724,22.904-16.877,37.216-36.109c14.575-19.586,25.897-38.824,33.65-57.18c9.563-28.22,17.967-56.193,25.012-83.234
		l0.19-0.731l-0.541-0.527c-0.305-0.298-0.76-0.501-1.678-0.751c-0.58-0.158-1.388-0.456-2.397-0.883
		c-1.077-0.451-2.175-0.902-3.3-1.354l-7.638-3.903c-4.386-2.459-7.979-6.251-10.638-11.245c-2.678-5.021-4.035-10.394-4.035-15.967
		c0-2.39,0.446-5.328,1.326-8.732c2.205-7.028,5.712-10.476,10.704-10.476c2.136,0,4.185,0.706,6.262,2.158l0.105,0.066
		c5.301,2.999,12.415,5.742,21.144,8.153l0.729,0.202l0.535-0.536c0.364-0.363,0.74-0.74,4.937-14.204l9.059-29.398l6.998-20.992
		c2.992-8.198,7.965-16.161,14.767-23.633c6.773-7.429,14.73-11.196,23.648-11.196c2.041,0,3.948,0.217,5.667,0.646l0.077,0.019
		l0.079,0.01c13.261,1.631,19.708,9.93,19.708,25.37c0,10.729-3.594,25.639-10.683,44.314l-12.755,32.799l2.178-0.287
		c6.01-0.793,15.236-2.407,27.424-4.799c9.931-2.369,18.569-3.564,25.727-3.564c3.767,0,7.104,0.279,9.918,0.83
		c2.757,0.542,4.46,1.125,5.522,1.733c0.801,0.457,0.906,0.755,0.906,0.856v0.338l0.505,0.351c2.882,3.737,4.461,8.186,4.461,13.22
		c0,11.026-4.829,20.338-14.468,27.677c-8.273,6.287-24.021,9.476-46.864,9.476c-2.637,0-7.12-0.115-13.354-0.341
		c-6.523-0.234-10.033-0.343-11.063-0.343c-0.479,0-1.431-0.029-3,0.09c-1.94,0.15-2.485,0.082-2.632,0.082h-0.972l-0.275,1.017
		c-1.464,4.952-7.435,21.815-17.747,50.038c-11.688,31.998-20.436,57.455-25.999,75.623c-6.729,22.578-10.14,38.985-10.14,48.756
		c0,5.433,1.095,8.762,3.347,10.166c2.225,1.484,4.71,2.25,7.353,2.25c4.942,0,11.915-2.568,21.316-7.855
		c6.224-3.223,11.37-5.401,15.255-6.458c2.488-0.675,4.566-1.017,6.177-1.017c0.783,0,1.457,0.081,2.003,0.241
		c1.66,0.49,3.221,1.662,4.639,3.482c2.785,3.114,4.169,7.308,4.169,12.531c0,11.091-5.66,20.273-16.822,27.275
		c-18.975,12.575-40.525,18.95-64.08,18.95H911.536z"/>
	<path fill="#FFFFFF" d="M1176.923,389.955c-4.97,0-10.739-0.632-17.146-1.525c-5.189-0.969-9.273-2.418-12.084-4.121
		c-2.857-2.244-3.324-2.936-3.39-3.043l-1.971-2.964c-0.12-0.314-0.268-0.771-0.752-1.571c-0.345-0.572-0.485-0.878-0.485-1.023
		v-1.806l-11.006,5.114c-1.277,0.689-4.908,2.272-10.768,4.737c-3.908,1.775-8.194,3.057-12.725,3.822
		c-7.624,1.113-14.186,1.681-19.449,1.681c-4.232,0-8.54-0.338-12.793-1.005c-6.113-0.883-12.651-3.068-19.441-6.501
		c-8.731-4.611-15.752-11.14-20.844-19.395c-4.465-6.877-7.51-14.102-9.063-21.497l-0.542-2.572l-1.716,1.991
		c-4.003,4.645-10.927,10.222-20.58,16.577c-8.994,6.146-18.431,10.895-28.067,14.124l-0.085,0.028l-0.081,0.04
		c-2.537,1.262-5.894,1.901-10.229,1.901c-8.927,0-13.61-5.047-13.61-15.43v-0.302c0-6.38,3.398-12.637,10.354-18.597
		c1.915-1.68,4.865-4.002,8.907-6.912c3.704-2.684,6.9-4.772,9.567-6.213l0.085-0.061c1.018-0.676,2.054-1.351,3.127-2.025
		l2.298-1.335c0.159-0.098,0.284-0.119,0.386-0.119h0.159l0.321-0.318c10.565-6.799,21.03-17.234,31.105-30.91
		c10.018-13.602,17.815-25.75,23.178-36.057c6.071-11.824,13.701-22.557,22.683-31.875c9.085-9.084,18.883-16.668,29.104-22.51
		c8.72-4.918,17.619-8.324,26.443-10.111c2.616-0.434,5.88-0.66,9.654-0.66c5.104,0,9.592,0.502,13.339,1.494
		c6.747,1.576,13.786,4.131,20.958,7.604l0.118,0.057l0.129,0.032c0.09,0.023,0.673,0.209,3.301,1.599
		c2.231,1.182,3.238,1.821,3.791,1.984c0.514,0.313,1.261,0.672,2.422,0.672h2.021c0.811,0,1.621-0.655,2.545-1.571l1.438-1.208
		l0.116-0.221c1.062-1.505,1.619-1.838,1.847-2.014c0.86-0.088,1.697-0.986,2.496-0.986h2.075c2.001,0,5.674,0.977,10.921,2.305
		c3.472,0.883,6.598,1.995,9.291,3.525c5.458,2.823,9.839,5.432,13.064,7.884c2.62,2.187,4.691,4.124,6.122,5.773
		c2.403,3.14,3.633,6.061,4.633,8.681v2.748c0,3.002-0.42,5.535-1.26,7.531c-1.009,2.578-3.508,7.351-7.446,14.218
		c-5.027,9.691-6.263,12.101-6.565,12.89l0.021-0.093c-5.969,12.944-10.538,26.364-13.581,39.889
		c-2.369,10.222-3.571,18.228-3.571,23.789c0,4.832,0.466,8.179,1.425,10.733c1.072,4.17,4.041,6.127,8.591,6.127h1.282l0.085,0.234
		c5.327-0.705,12.567-3.353,22.135-8.346c8.913-5.031,15.253-7.511,18.881-7.511c2.627,0,4.842,0.968,6.772,2.894
		c4.169,4.164,6.283,8.807,6.283,13.771c0,7.307-3.379,14.376-10.041,20.998c-9.93,10.535-28.207,18.532-54.354,23.44
		c-4.522,0.888-10.34,1.52-17.301,1.52H1176.923z M1082.715,316.651c1.192,5.604,2.846,9.587,5.054,12.175
		c2.052,2.426,5.027,4.506,8.841,6.179l0.108,0.042c1.509,0.508,3.488,0.754,6.054,0.754c3.123,0,4.285-0.188,4.891-0.366
		c8.664-1.093,16.887-5.845,24.439-14.125c3.445-3.803,6.07-7.025,7.806-9.583c2.258-3.101,4.618-9.53,7.19-19.621
		c2.52-9.891,3.855-21.25,3.971-33.763c0-2.344-1.006-4.885-2.989-7.563c-1.926-2.594-3.68-4.223-5.355-4.934
		c-1.697-1.243-4.04-1.892-6.969-1.892h-2.304l-0.081,0.028c-2.872,0.362-5.829,1.394-8.788,3.048
		c-2.47,1.074-5.012,2.736-7.556,4.936c-4.293,2.811-8.685,7.047-13.054,12.59c-10.653,12.535-17.589,25.477-20.583,38.427
		c-0.701,2.813-1.059,5.864-1.059,9.044C1082.331,314.998,1082.543,316.1,1082.715,316.651z"/>
	<path fill="#FFFFFF" d="M1382.02,392.161c-12.706,0-24.533-1.311-35.153-3.894c-10.575-2.573-19.208-6.021-25.657-10.249
		c-10.595-7.247-17.423-13.376-20.272-18.202c-4.137-6.816-7.077-13.541-8.747-20.001l-0.525-2.033l-1.586,1.377
		c-8.595,7.463-16.438,13.703-23.31,18.547c-13.5,9.596-25.494,14.46-35.652,14.46c-6.46,0-10.546-1.414-12.146-4.204
		c-1.737-4.687-2.618-8.239-2.618-10.561c0-11.48,9.069-21.725,26.956-30.448c10.347-4.801,21.301-13.753,32.537-26.595
		c11.177-12.314,20.329-25.532,27.187-39.268c15.41-34.43,41.897-58.696,78.751-72.174c12.549-4.48,24.764-6.754,36.297-6.754
		c16.825,0,31.387,4.508,42.837,13.398c10.918,8.163,17.18,18.354,18.18,30.303v3.021c0,16.374-8.518,31.444-24.87,44.794
		c-8.259,6.606-18.448,9.961-30.052,9.961c-3.967,0-5.505-0.171-6.051-0.313l-0.163-0.035l-0.153-0.006
		c-2.279-0.098-4.526-1.807-6.665-5.078c-2.24-3.43-3.38-6.409-3.38-8.856c0.023-0.142,0.345-1.363,4.051-6.895
		c2.955-4.721,4.32-7.867,4.32-9.934c0-1.457-0.822-3.475-2.584-6.349c-1.258-1.825-2.511-3.183-3.763-4.094l-0.139-0.102
		l-0.16-0.114c-3.256-1.25-5.7-1.91-7.473-1.91h-1.978l-0.097,0.068c-3.217,0.486-6.182,1.499-8.811,2.96
		c-2.926,1.786-5.441,3.528-7.524,5.177c-7.144,6.439-11.39,10.604-13.044,12.771c-10.646,12.706-17.578,25.836-20.571,38.971
		l-0.016,0.07l-0.008,0.069c-1.034,8.785-1.034,8.899-1.034,9.032c0,0.412-0.032,1.168,0.089,2.313
		c0.135,1.328,0.074,1.843,0.074,2.04v2.207l0.111,0.117c0.342,1.867,0.672,3.374,0.902,4.522c0.248,1.256,0.943,3.09,2.078,5.604
		c1.13,2.513,2.508,4.676,4.07,6.427c1.537,1.724,3.856,3.695,6.885,5.858c3.052,2.182,6.593,3.946,10.52,5.242
		c3.861,1.275,8.82,2.391,14.736,3.313c5.902,0.921,12.611,1.388,19.938,1.388c11.635,0,25.437-3.429,41.021-10.19
		c19.289-8.386,25.421-10.146,27.169-10.146c3.301,0,5.899,1.641,7.946,5.014c2.255,3.761,3.4,7.79,3.4,11.973
		c0,8.765-4.547,16.757-13.514,23.756c-9.492,7.481-20.069,12.573-31.444,15.137C1420.528,389.3,1400.051,392.161,1382.02,392.161z"
		/>
	<path fill="#FFFFFF" d="M1551.722,389.955c-9.571,0-16.738-1.352-21.258-3.005c-3.675-1.469-7.952-6.016-12.678-13.491
		c-4.18-6.817-6.474-15.46-6.807-25.668l-0.083-2.558l-16.029,12.511c-13.449,9.559-25.443,14.422-35.602,14.422
		c-6.46,0-10.546-1.415-12.146-4.204c-1.737-4.687-2.618-8.239-2.618-10.561c0-11.48,9.069-21.725,26.956-30.448
		c10.372-4.724,22.904-16.877,37.216-36.109c14.575-19.586,25.897-38.824,33.65-57.18c9.563-28.22,17.967-56.193,25.012-83.234
		l0.19-0.731l-0.541-0.527c-0.305-0.298-0.76-0.501-1.678-0.751c-0.58-0.158-1.388-0.456-2.397-0.883
		c-1.077-0.451-2.175-0.902-3.3-1.354l-7.638-3.903c-4.386-2.459-7.979-6.251-10.638-11.245c-2.678-5.021-4.035-10.394-4.035-15.967
		c0-2.39,0.446-5.328,1.326-8.732c2.205-7.028,5.712-10.476,10.704-10.476c2.136,0,4.185,0.706,6.262,2.158l0.105,0.066
		c5.301,2.999,12.415,5.742,21.144,8.153l0.729,0.202l0.535-0.536c0.364-0.363,0.74-0.74,4.937-14.204l9.059-29.398l6.998-20.992
		c2.992-8.198,7.965-16.161,14.767-23.633c6.773-7.429,14.73-11.196,23.648-11.196c2.041,0,3.948,0.217,5.667,0.646l0.077,0.019
		l0.079,0.01c13.261,1.631,19.708,9.93,19.708,25.37c0,10.729-3.594,25.639-10.683,44.314l-12.755,32.799l2.178-0.287
		c6.01-0.793,15.236-2.407,27.424-4.799c9.931-2.369,18.569-3.564,25.727-3.564c3.767,0,7.104,0.279,9.918,0.83
		c2.757,0.542,4.867,1.125,5.93,1.733c0.801,0.457,1.313,0.755,1.313,0.856v0.338l0.098,0.351c2.882,3.737,4.258,8.186,4.258,13.22
		c0,11.026-4.932,20.338-14.57,27.677c-8.273,6.287-24.072,9.476-46.915,9.476c-2.637,0-7.146-0.115-13.38-0.341
		c-6.523-0.234-10.047-0.343-11.074-0.343c-0.48,0-1.438-0.029-3.007,0.09c-1.94,0.15-2.492,0.082-2.639,0.082h-0.972l-0.275,1.017
		c-1.464,4.952-7.435,21.815-17.747,50.038c-11.688,31.998-20.436,57.455-25.999,75.623c-6.729,22.578-10.14,38.985-10.14,48.756
		c0,5.433,1.095,8.762,3.347,10.166c2.225,1.484,4.71,2.25,7.353,2.25c4.942,0,11.915-2.568,21.316-7.855
		c6.224-3.223,11.37-5.401,15.255-6.458c2.488-0.675,4.566-1.017,6.177-1.017c0.783,0,1.457,0.081,2.003,0.241
		c1.66,0.49,3.221,1.662,4.639,3.482c2.785,3.114,4.169,7.308,4.169,12.531c0,11.091-5.66,20.273-16.822,27.275
		c-18.975,12.575-40.525,18.95-64.08,18.95H1551.722z"/>
</g>
</svg>
