<?xml version="1.0" encoding="utf-8"?>
<!-- Generator: Adobe Illustrator 16.0.0, SVG Export Plug-In . SVG Version: 6.00 Build 0)  -->
<!DOCTYPE svg PUBLIC "-//W3C//DTD SVG 1.1//EN" "http://www.w3.org/Graphics/SVG/1.1/DTD/svg11.dtd">
<svg version="1.1" id="Layer_1" xmlns="http://www.w3.org/2000/svg" xmlns:xlink="http://www.w3.org/1999/xlink" x="0px" y="0px"
	 width="2194px" height="420px" viewBox="0 0 2194 420" enable-background="new 0 0 2194 420" xml:space="preserve">
<g>
	<path fill="#FFFFFF" d="M128.114,420c-34.784,0-61.415-4.806-79.152-14.008c-17.481-9.07-26.767-22.916-27.597-41.016
		c0.001-0.338-0.057-1.195-0.175-2.487c-0.11-1.223-0.166-2.006-0.166-2.291c0-16.029,3.376-31.788,10.033-46.821
		c6.671-15.049,15.374-27.973,25.867-38.402c9.588-9.529,27.567-20.194,53.439-31.695c26.199-11.497,50.106-17.671,71.051-18.346
		l-0.012-2.6c-18.912-0.443-33.785-5.868-44.206-16.12c-10.407-10.232-15.685-23.807-15.685-40.345
		c0-5.804,0.694-11.86,2.063-18.003l0.265-1.188l-1.167-0.343c-11.525-3.388-23.492-7.908-35.567-13.436l-3.426-1.542
		c-9.614-5.254-15.254-8.494-16.673-9.586c-6.349-5.162-9.581-9.768-9.581-13.667c0-0.294,0.088-1.485,0.674-6.161
		c0.628-3.227,2.323-6.631,5.025-10.034c2.611-3.292,5.576-4.893,9.065-4.893c3.531,0,7.472,1.102,11.712,3.275
		c3.37,1.685,8.165,4.454,14.263,8.235c3.97,2.465,9.296,5.772,9.708,6.047l0.07,0.046l0.075,0.037
		c6.551,3.219,16.064,6.356,28.278,9.325l0.924,0.225l0.494-0.813c10.182-16.77,23.091-31.666,38.368-44.276
		c19.359-15.791,41.682-23.8,66.341-23.8c20.263,0,36.375,5.907,47.891,17.559c6.924,7.008,10.435,15.268,10.435,24.55
		c0,10.906-5.032,22.294-14.958,33.845c-9.426,10.948-20.839,19.047-33.921,24.072c-18.431,7.201-39.564,10.852-62.822,10.852
		c-6.094,0-12.141-0.229-17.746-0.68l-1.518-0.113v1.409c0,0.503,0.172,1.652,0.287,3.418c0.113,1.78,0.226,2.843,0.226,3.247
		c1.063,13.909,9,23.771,23.54,29.41c8.934,3.101,15.834,5.13,20.525,6.046l23.367,4.613c8.687,1.358,15.555,2.893,20.457,4.569
		c6.111,1.891,9.064,7.634,9.064,17.568c0,6.274-1.233,12.129-3.668,17.399c-2.305,4.987-5.129,7.895-8.396,8.645
		c-43.316,0.02-83.662,8.976-119.916,26.62c-16.46,8.249-29.827,18.421-39.742,30.24C85.53,320.51,80.46,332.061,80.46,342.92
		c0,8.813,3.474,16,10.325,21.36c6.733,5.271,16.61,8.295,29.356,8.99c0.834,0.002,2.498,0.058,5.157,0.172
		c2.593,0.114,4.344,0.172,5.202,0.172c16.987,0,33.341-2.144,48.606-6.37c16.967-4.903,30.052-9.768,38.906-14.46
		c8.782-4.538,20.984-11.099,36.256-19.491c15.604-8.473,27.36-14.376,34.937-17.543c4.857-2.206,9.507-3.317,13.854-3.317
		c5.567,0,9.657,1.664,12.501,5.086c2.862,3.446,4.314,8.024,4.314,13.609c0,6.194-1.646,11.693-4.894,16.346
		c-12.197,15.553-33.396,30.955-62.966,45.724c-15.813,7.89-34.868,14.491-56.635,19.346c-21.788,4.855-44.19,7.457-66.584,7.457
		H128.114z M241.398,86.469c-10.516,0-21.541,3.13-32.771,9.304c-11.214,6.167-20.401,14.44-27.308,24.59l-1.146,1.685l2.011,0.33
		c5.604,0.918,12.388,1.384,20.163,1.384c7.348,0,13.825-0.703,19.252-2.091c9.053-2.558,16.398-6.363,21.864-11.32
		c5.603-5.075,8.443-10.085,8.443-14.891C251.908,91.357,250.084,86.469,241.398,86.469z"/>
	<path fill="#FFFFFF" d="M402.574,400c-13.948-1-18.959-2.635-20.705-3.736c-3.201-1.941-6.538-6.528-9.94-13.849
		c-2.519-6.305-3.81-13.35-3.81-20.977c0-2.671,0.228-6.031,0.676-10.039l0.348-3.096l-24.836,19.747
		c-13.895,9.887-26.003,14.924-35.935,14.924c-5.366,0-9.249-1.559-11.861-4.764c-1.699-4.051-2.562-7.919-2.562-11.502
		c0-5.527,2.916-11.188,8.668-16.829c1.113-1.196,2.881-2.627,5.298-4.297c2.447-1.688,4.462-2.847,5.986-3.596
		c7.823-4.43,10.177-5.987,10.827-5.987h0.105l0.33-0.3c11.869-8.015,20.454-14.868,25.516-20.294
		c4.56-4.574,12.487-15.038,23.532-31.033l0.146-0.219l0.055-0.254c0.475-2.149,1.155-5.391,1.969-9.367
		c0.855-4.172,2.078-10.206,3.676-18.096c1.593-7.888,3.075-15.144,4.442-21.774c8.518-38.596,13.938-62.995,16.104-72.502
		c4.529-22.37,8.312-39.399,11.249-50.646c4.392-15.455,8.74-28.667,12.918-39.242c4.156-10.524,9.294-20.955,15.268-31.005
		c12.983-21.006,30.352-31.667,51.61-31.667c10.096,0.108,18.72,3.076,25.617,8.821c6.943,5.781,12.118,13.709,15.382,23.563
		c3.296,9.96,4.968,21.812,4.968,35.226c0,18.787-2.912,38.419-8.654,58.352c-8.11,25.94-22.876,55.055-43.876,86.506
		c-20.997,31.898-42.558,56.748-64.087,73.866l-0.332,0.264l0.002,0.407c-3.316,11.994-4.883,23.646-4.883,34.633v11.711
		l-0.109,0.055c0.93,11.034,6.451,13.351,10.969,13.351c0.283,0,0.639-0.029,1.146-0.089c0.458-0.054,1.103-0.137,1.962-0.248
		c0.871-0.111,1.647-0.223,2.345-0.337c3.485-0.69,10.784-3.674,22.362-9.13c7.621-3.556,13.8-5.929,18.361-7.051
		c2.532-0.624,4.737-0.939,6.556-0.939c1.318,0,2.448,0.166,3.362,0.492c2.111,0.756,3.732,2.395,4.954,5.009
		c1.523,4.307,2.296,8.005,2.296,10.993c0,10.082-6.235,19.046-18.531,27.046c-19.918,12.006-41.001,17.9-62.625,17.9H402.574z
		 M486.63,67.499c-4.173,0-9.143,4.657-15.163,14.237c-5.432,9.189-9.062,17.602-10.794,25.033l-29.354,121.849l2.269,1.129
		c20.179-24.629,35.466-50.825,45.386-77.86c9.811-26.938,14.811-49.806,14.811-67.969v-1.03
		C493.784,79.046,493.198,67.499,486.63,67.499z"/>
	<path fill="#FFFFFF" d="M563.352,398.7c-43.168,0-67.348-12.482-71.866-37.099l-0.017-0.093l-0.03-0.09
		c-0.064-0.189-0.273-1.122-0.273-5.18c0-6.344,2.047-12.882,6.082-19.434c4.077-6.619,9.445-12.64,15.956-17.54
		C525.501,309.982,536.44,304,545.722,300h0.11l0.005,0.139c0.032-0.012,0.064,0.066,0.097,0.055l-0.095,0.062l0.297-2.48
		l-4.278-1.017c-19.767-3.619-33.021-7.582-39.461-11.803c-13.141-7.735-19.776-18.992-19.776-33.498
		c0-8.974,2.93-16.621,8.708-22.735c5.584-6.037,12.37-11.19,20.18-15.325c7.847-4.153,14.878-6.995,20.898-8.447
		c5.922-1.229,14.966-2.49,26.841-3.738l25.493-3.256c5.2-0.792,14.246-1.595,26.918-2.39c23.61-1.356,49.88-6.603,78.086-15.597
		c-0.026,1.004-0.527,3.808-2.684,11.376c-0.567,1.813-2.987,9.087-6.989,21.003c-3.207,9.638-5.167,15.974-5.99,19.366
		c-1.938,4.783-6.097,8.908-12.36,12.264c-2.552,1.28-6.889,2.274-12.86,2.938l-16.086,2.057c-7.28,0.787-13.098,1.188-17.267,1.188
		c-2.168,0-8.646-0.23-19.256-0.686c-9.433-0.805-14.947-1.197-16.804-1.197c-9.373,0-17.836,1.71-25.153,5.083l-0.102,0.053
		c-2.051,1.174-3.047,2.438-3.047,3.868c0,3.116,4.533,5.359,14.699,7.272c10.583,1.938,23.09,3.728,37.18,5.32
		c12.78,1.362,24.523,3.028,35.162,4.954c7.118,1.239,10.596,3.746,10.596,7.452v7.706c0,5.986-0.393,10.477-1.419,13.347
		c-0.982,2.737-3.47,5.537-7.519,8.32c-9.408,5.27-20.574,9.48-33.25,12.515c-2.701,0.564-6.137,1.305-10.301,2.219
		c-4.227,0.928-7.396,1.599-9.702,2.051c-2.349,0.458-5.122,1.066-8.249,1.808c-3.14,0.743-5.705,1.445-7.629,2.087
		c-1.907,0.637-3.871,1.4-5.839,2.269c-2.018,0.893-3.708,1.832-5.024,2.793c-1.387,1.009-2.481,2.175-3.255,3.465l-0.049,0.088
		c-0.781,1.569-1.161,2.88-1.161,4.006c0,3.553,2.766,6.383,8.22,8.41c5.036,1.871,11.302,2.82,18.624,2.82
		c4.889,0,9.837-0.591,14.706-1.755c20.829-5.628,38.215-11.884,51.709-18.601c13.545-6.739,26.002-15.709,37.026-26.659
		c1.572-1.577,4.55-2.375,8.854-2.375c5.173,0,10.284,1.03,15.191,3.063c4.529,1.88,6.826,4.093,6.826,6.575
		c0,6.691-6.84,17.433-20.33,31.927c-13.497,14.171-25.51,23.973-35.694,29.12C631.35,391.557,598.651,398.7,563.352,398.7z"/>
	<path fill="#FFFFFF" d="M787.742,402.631c-12.706,0-24.533-1.311-35.153-3.894c-10.575-2.573-19.208-6.021-25.657-10.249
		c-10.595-7.247-17.423-13.376-20.272-18.202c-4.137-6.816-7.077-13.541-8.747-20.001l-0.525-2.033l-1.586,1.377
		c-8.595,7.463-16.438,13.703-23.31,18.547c-13.5,9.596-25.494,14.46-35.652,14.46c-6.46,0-10.546-1.414-12.146-4.204
		c-1.737-4.687-2.618-8.239-2.618-10.561c0-11.48,9.069-21.725,26.956-30.448c10.347-4.801,21.301-13.753,32.537-26.595
		c11.177-12.314,20.329-25.532,27.187-39.268c15.41-34.43,41.897-58.696,78.751-72.174c12.549-4.48,24.764-6.754,36.297-6.754
		c16.825,0,31.369,4.508,42.82,13.398c10.918,8.163,17.162,18.354,18.162,30.303v3.021c0,16.374-8.5,31.444-24.854,44.794
		c-8.258,6.606-18.438,9.961-30.043,9.961c-3.966,0-5.5-0.171-6.047-0.313l-0.16-0.035l-0.152-0.006
		c-2.279-0.098-4.525-1.807-6.664-5.078c-2.24-3.43-3.381-6.409-3.381-8.856c0.025-0.142,0.346-1.363,4.052-6.895
		c2.955-4.721,4.32-7.867,4.32-9.934c0-1.457-0.821-3.475-2.585-6.349c-1.256-1.825-2.51-3.183-3.762-4.094l-0.139-0.102
		l-0.16,0.173c-3.256-1.249-5.7-1.622-7.473-1.622h-1.978l-0.097-0.22c-3.217,0.486-6.182,1.355-8.811,2.816
		c-2.926,1.786-5.441,3.456-7.524,5.105c-7.144,6.439-11.39,10.568-13.044,12.735c-10.646,12.706-17.578,25.817-20.571,38.953
		l-0.016,0.061l-0.008,0.065c-1.034,8.785-1.034,8.897-1.034,9.029c0,0.412-0.049,1.167,0.071,2.312
		c0.136,1.328,0.058,1.842,0.058,2.039v2.207l0.128,0.117c0.343,1.867,0.681,3.374,0.911,4.522c0.248,1.256,0.948,3.09,2.083,5.604
		c1.13,2.513,2.509,4.676,4.073,6.427c1.535,1.724,3.856,3.695,6.885,5.858c3.052,2.182,6.594,3.946,10.52,5.242
		c3.861,1.275,8.82,2.391,14.736,3.313c5.902,0.921,12.612,1.388,19.939,1.388c11.635,0,25.438-3.429,41.021-10.19
		c19.287-8.386,25.42-10.146,27.168-10.146c3.301,0,5.899,1.641,7.946,5.014c2.255,3.761,3.4,7.79,3.4,11.973
		c0,8.765-4.547,16.757-13.514,23.756c-9.492,7.481-20.069,12.573-31.444,15.137C826.25,399.77,805.773,402.631,787.742,402.631z"/>
	<path fill="#FFFFFF" d="M957.444,400c-9.571,0-16.738-1.139-21.258-2.793c-3.675-1.469-7.952-5.909-12.678-13.385
		c-4.18-6.817-6.474-15.406-6.807-25.614l-0.083-2.53l-16.029,12.523c-13.449,9.558-25.443,14.428-35.602,14.428
		c-6.46,0-10.546-1.411-12.146-4.2c-1.737-4.687-2.618-8.238-2.618-10.56c0-11.48,9.069-21.724,26.956-30.447
		c10.373-4.724,22.904-16.876,37.216-36.108c14.575-19.586,25.896-38.824,33.65-57.18c9.563-28.22,17.967-56.193,25.012-83.234
		l0.19-0.731l-0.541-0.527c-0.305-0.298-0.76-0.501-1.678-0.751c-0.58-0.159-1.388-0.456-2.397-0.883
		c-1.077-0.451-2.175-0.902-3.3-1.354l-7.638-3.903c-4.386-2.459-7.979-6.251-10.638-11.245c-2.678-5.021-4.035-10.394-4.035-15.967
		c0-2.39,0.446-5.328,1.326-8.732c2.205-7.028,5.712-10.476,10.704-10.476c2.136,0,4.185,0.706,6.262,2.158l0.105,0.066
		c5.301,2.999,12.415,5.742,21.144,8.153l0.729,0.202l0.535-0.536c0.364-0.363,0.74-0.74,4.937-14.204l9.059-29.398l6.998-20.992
		c2.992-8.198,7.965-16.161,14.767-23.633c6.773-7.429,14.73-11.196,23.648-11.196c2.041,0,3.948,0.217,5.667,0.646l0.077,0.019
		l0.079,0.01c13.261,1.631,19.708,9.93,19.708,25.37c0,10.729-3.594,25.64-10.683,44.314l-12.755,32.799l2.178-0.287
		c6.009-0.792,15.236-2.407,27.424-4.799c9.931-2.369,18.569-3.564,25.727-3.564c3.766,0,7.103,0.279,9.918,0.83
		c2.758,0.542,4.85,1.125,5.912,1.733c0.801,0.457,1.297,0.755,1.297,0.856v0.338l0.115,0.351c2.881,3.737,4.266,8.186,4.266,13.22
		c0,11.026-4.927,20.338-14.565,27.677c-8.273,6.287-24.07,9.476-46.913,9.476c-2.637,0-7.145-0.115-13.379-0.341
		c-6.523-0.234-10.046-0.343-11.074-0.343c-0.479,0-1.438,0.259-3.006,0.378c-1.941,0.15-2.492,0.369-2.639,0.369h-0.972
		l-0.275,0.729c-1.464,4.953-7.435,21.672-17.747,49.895c-11.688,31.998-20.436,57.384-25.999,75.552
		c-6.729,22.578-10.14,38.949-10.14,48.72c0,5.433,1.095,8.743,3.347,10.148c2.225,1.483,4.71,2.24,7.353,2.24
		c4.942,0,11.915-2.573,21.316-7.86c6.224-3.222,11.37-5.402,15.255-6.459c2.488-0.675,4.566-1.019,6.177-1.019
		c0.783,0,1.457,0.08,2.003,0.24c1.66,0.49,3.221,1.662,4.639,3.482c2.785,3.114,4.169,7.308,4.169,12.531
		c0,11.091-5.66,20.061-16.822,27.063C1003.917,393.838,982.366,400,958.811,400H957.444z"/>
	<path fill="#FFFFFF" d="M1178.586,400c-9.567,0-16.734-1.152-21.255-2.816c-3.555-1.475-7.779-5.953-12.507-13.491
		c-4.29-6.874-6.467-15.631-6.467-26.126c0-11.853,2.649-25.057,7.876-39.295c2.629-5.962,5.943-11.758,9.821-17.175
		c3.907-5.463,7.105-9.712,9.508-12.642c3.486-4.256,3.934-5.957,3.934-6.966c0-2.696-2.921-7.09-25.702-17.224l-1.048-0.465
		l-0.593,0.981c-0.369,0.611-2.759,4.803-6.729,11.802c-4.076,7.184-7.326,12.292-9.659,15.185
		c-22.13,28.358-48.854,53.952-79.439,76.089c-13.472,9.577-25.447,14.437-35.587,14.437c-6.45,0-10.529-1.414-12.127-4.203
		c-1.734-4.684-2.613-8.236-2.613-10.562c0-11.48,9.039-21.725,26.866-30.448c12.362-5.614,27.31-19.343,44.396-40.789
		c16.692-21.153,27.879-41.532,33.253-60.574c0.396-0.861,0.588-2.018,0.588-3.529c0-3.26-1.762-9.331-5.388-18.559
		c-3.458-10.021-5.333-17.191-5.552-21.259l0.002-4.197c0-11.215,2.542-21.566,7.554-30.767
		c5.067-9.651,11.475-14.335,19.596-14.335c0.179,0.005,1.089,0.098,5.071,0.659c5.541,1.525,10.54,4.772,14.86,9.651
		c4.405,4.975,7.826,10.692,10.167,16.993c2.37,6.38,4.145,12.623,5.273,18.554c1.128,5.921,1.7,11.407,1.7,16.305
		c0,4.074-0.211,5.024-0.275,5.219l-0.259,0.777l0.59,0.569c9.527,9.18,23.307,17.139,40.955,23.656
		c18.646,6.295,31.446,12.573,38.078,18.675c2.453,2.071,3.626,4.368,3.626,7.06c0,4.156-1.911,9.199-5.681,14.987
		c-3.876,5.951-10.974,15.092-21.095,27.169c-10.469,12.349-15.778,23.537-15.778,33.25c0,2.972,0.611,6.438,1.818,10.3
		c0.735,2.876,2.938,6.381,9.153,6.381c4.08,0,11.057-2.563,21.331-7.834c9.757-5.008,17.12-7.547,21.885-7.547
		c2.924,0,5.533,1.164,7.977,3.56c2.848,3.106,4.315,7.296,4.315,12.401c0,11.063-5.72,20.102-17,27.27
		c-18.971,12.664-40.52,18.873-64.073,18.873H1178.586z"/>
	<path fill="#FFFFFF" d="M1323.036,399.384c-7.804,0-15.943-1.037-24.195-3.081c-13.661-3.926-25.272-12.846-34.466-26.498
		c-9.001-13.348-13.565-30.068-13.565-49.699c0-16.683,3.579-33.438,10.639-49.8c9.987-23.962,23.729-42.53,40.853-55.203
		c17.094-12.985,35.02-19.564,53.292-19.564c18.34,0,34.425,6.828,47.808,20.295c13.174,13.264,20.53,32.414,21.862,56.918
		l-0.002,3.348c0,19.434-4.431,39.149-13.168,58.598c-8.719,18.961-21.131,34.606-36.886,46.492
		C1359.5,393.265,1341.95,399.384,1323.036,399.384z M1313.449,289.665c-4.734,8.76-7.134,19.227-7.134,31.113
		c0,13.453,5.03,21.897,14.951,25.099l0.127,0.041l0.132,0.014c6.243,0.681,6.499,0.681,6.651,0.681
		c14.143,0,25.533-7.4,33.855-21.997c8.522-14.347,12.85-29.27,12.85-44.335c0-5.39-0.774-10.287-2.303-14.557l-0.038-0.096
		c-3.643-8.09-9.115-12.191-16.265-12.191c-7.741,0-16.406,4.648-25.755,13.817C1321.45,275.809,1315.701,283.354,1313.449,289.665z
		"/>
	<path fill="#FFFFFF" d="M1523.118,403.656c-13.731,0-23.897-4.483-30.217-13.325c-1.888-2.491-2.834-6.666-2.834-12.438
		c0-6.04,1.538-15.004,4.572-26.645c3.019-11.76,4.485-18.647,4.485-21.061c0-2.577-0.896-3.439-1.813-3.647
		c-0.422-0.266-0.937-0.399-1.537-0.399c-1.18,0-3.634,0-24.016,21.525c-5.176,5.771-12.116,11.717-20.651,17.698
		c-8.544,5.989-16.969,10.707-25.041,14.023c-6.162,2.279-11.357,3.443-15.399,3.443c-6,0-10.307-2.45-13.162-7.49
		c-1.063-3.175-1.603-5.832-1.603-7.899c0-8.955,5.428-16.842,16.131-23.441c10.001-5.726,21.5-13.819,34.144-24.035
		c11.973-10.112,21.668-19.068,28.837-26.639c8.086-8.261,17.207-15.644,27.098-21.927c9.84-6.256,19.691-10.338,29.278-12.136
		l0.088-0.016l0.084-0.028c0.894-0.298,2.25-0.449,4.032-0.449c5.303,0,9.866,1.21,13.564,3.598
		c3.716,2.397,6.467,5.313,8.178,8.663c1.776,3.483,3.213,7.046,4.27,10.588c1.081,3.629,1.991,6.711,2.732,9.245
		c0.684,2.342,1.641,4.737,3.556,4.737c0.811,0,1.466-0.244,1.946-0.728c2.107-2.115,5.947-6.877,11.738-14.557l16.43-23.209
		l10.417-14.412c6.738-9.025,11.733-14.963,14.833-17.632l0.074-0.068c3.754-3.772,9.45-7.619,16.93-11.434
		c13.106-7.089,23.938-10.676,32.222-10.676c10.431,0,19.385,5.355,26.612,15.918c4.43,6.454,7.521,14.771,9.19,24.721
		c0.665,6.48,1.008,13.31,1.008,20.215c0,12.826-1.032,28.316-3.067,46.04c-2.743,28.568-2.743,29.127-2.743,29.337
		c0,1.901,0.15,2.771,0.434,3.282c1.205,4.882,4.396,7.46,9.24,7.46c2.271,0,4.271-0.543,5.949-1.615
		c15.092-7.773,24.877-11.715,29.085-11.715c2.754,0,4.652,0.639,5.644,1.897l0.07,0.081c4.418,4.744,6.658,9.794,6.658,15.008
		c0,10.17-7.838,20.03-23.295,29.306c-15.116,9.069-28.072,13.837-38.508,14.17l-0.072,0.003l-0.071,0.01
		c-1.518,0.219-4.905,0.329-10.069,0.329c-16.03,0-28.665-3.619-37.552-10.758c-8.807-7.068-13.272-16.172-13.272-27.057
		c0-4.22,0.031-5.947,0.175-6.653l-0.114-0.129v-0.131c0-0.14,0.201-0.811,0.307-1.992c0.118-1.358,0.337-3.586,0.5-6.444
		c0.172-2.97,0.404-6.171,0.633-9.601c0.683-12,1.046-21.037,1.046-26.872c0-9.484-0.571-11.087-2.316-11.087
		c-0.691,0-1.302,0.253-1.774,0.731l-0.083,0.094l-33.153,40.863c-19.459,23.886-35.926,42.356-48.939,54.899
		C1546.663,400.135,1536.268,403.656,1523.118,403.656z"/>
	<path fill="#FFFFFF" d="M1868.052,398.017c-11.792,0-23.255-3.218-34.071-9.563c-11.095-6.092-16.473-16.173-16.473-30.837
		c0-0.371,0.029-1.127,0.166-2.615l0.17-1.699c1.648-16.8,5.301-29.597,10.857-38.037l-2.079-1.554
		c-14.674,17.384-35.238,35.711-61.122,54.474c-13.485,9.586-25.479,14.45-35.639,14.45c-6.46,0-10.546-1.414-12.146-4.204
		c-1.737-4.687-2.618-8.239-2.618-10.561c0-11.48,9.069-21.725,26.956-30.448c13.164-6.065,32.618-22.606,57.795-49.15
		c25.528-27.013,41.155-48.62,46.449-64.222c1.382-4.227,3.943-8.128,7.617-11.608c3.71-3.511,7.337-5.949,10.778-7.246l4.722-2.035
		c14.038-3.697,23.266-5.572,27.429-5.572c4.562,0,8.732,0.557,12.396,1.654l0.097,0.025c4.07,0.885,6.05,4.383,6.05,10.692
		c0,0.504-0.117,1.919-0.676,5.796c-2.493,11.427-8.688,30.572-18.398,56.814c-8.85,23.559-14.807,45.68-17.327,65.743l-0.201,0.081
		v0.081c0,11.95,5.58,14.459,10.101,14.459c3.825,0,10.053-2.344,18.841-7.167c9.679-5.684,17.691-8.556,23.755-8.556
		c7.167,0,11.647,4.473,13.646,13.674l0.048,0.167l0.085,0.151c0.018,0.042,0.214,0.539,0.214,2.652
		c0,6.536-3.929,13.398-11.683,20.397c-8.002,6.903-16.3,11.882-24.642,14.775C1891.616,394.992,1877.787,398.017,1868.052,398.017z
		 M1915.998,171c-8.623,0-16.163-4.253-22.546-12.536c-6.461-8.383-9.668-17.829-9.668-27.971v-3.418
		c0-5.695,2.945-10.157,7.828-13.544c4.932-3.418,11.207-5.151,18.724-5.151c4.225,0,8.612,0.672,13.073,1.997l0.09,0.029
		l0.098,0.014c3.025,0.4,5.437,2.463,7.377,6.304c2.026,4.016,3.053,9.162,3.053,15.19c0,14.892-5.551,28.086-16.497,39.086
		H1915.998z"/>
	<path fill="#FFFFFF" d="M2066.404,402.631c-12.706,0-24.533-1.311-35.153-3.894c-10.575-2.573-19.208-6.021-25.657-10.249
		c-10.595-7.247-17.423-13.376-20.272-18.202c-4.137-6.816-7.077-13.541-8.747-20.001l-0.525-2.033l-1.586,1.377
		c-8.595,7.463-16.438,13.703-23.31,18.547c-13.5,9.596-25.494,14.46-35.652,14.46c-6.46,0-10.546-1.414-12.146-4.204
		c-1.737-4.687-2.618-8.239-2.618-10.561c0-11.48,9.069-21.725,26.956-30.448c10.347-4.801,21.301-13.753,32.537-26.595
		c11.177-12.314,20.329-25.532,27.187-39.268c15.41-34.43,41.897-58.696,78.751-72.174c12.549-4.48,24.764-6.754,36.297-6.754
		c16.825,0,31.039,4.508,42.488,13.398c10.918,8.163,16.832,18.354,17.832,30.303v3.021c0,16.374-8.17,31.444-24.521,44.794
		c-8.26,6.606-18.274,9.961-29.879,9.961c-3.966,0-5.418-0.171-5.963-0.313l-0.12-0.035l-0.131-0.006
		c-2.279-0.098-4.516-1.807-6.654-5.078c-2.24-3.43-3.375-6.409-3.375-8.856c0.024-0.142,0.348-1.363,4.054-6.895
		c2.955-4.721,4.322-7.867,4.322-9.934c0-1.457-0.821-3.475-2.584-6.349c-1.257-1.825-2.51-3.183-3.762-4.094l-0.139-0.102
		l-0.16,0.173c-3.256-1.249-5.7-1.622-7.473-1.622h-1.978l-0.097-0.22c-3.217,0.486-6.182,1.355-8.811,2.816
		c-2.926,1.786-5.441,3.456-7.524,5.105c-7.144,6.439-11.39,10.568-13.044,12.735c-10.646,12.706-17.578,25.817-20.571,38.953
		l-0.016,0.061l-0.008,0.065c-1.034,8.785-1.034,8.897-1.034,9.029c0,0.412,0.12,1.167,0.24,2.312
		c0.136,1.328,0.227,1.842,0.227,2.039v2.207l-0.041,0.117c0.343,1.867,0.597,3.374,0.827,4.522c0.248,1.256,0.905,3.09,2.04,5.604
		c1.13,2.513,2.488,4.676,4.052,6.427c1.536,1.724,3.847,3.695,6.875,5.858c3.052,2.182,6.588,3.946,10.515,5.242
		c3.861,1.275,8.817,2.391,14.733,3.313c5.902,0.921,12.61,1.388,19.938,1.388c11.635,0,25.436-3.429,41.02-10.19
		c19.288-8.386,25.42-10.146,27.168-10.146c3.301,0,5.899,1.641,7.946,5.014c2.255,3.761,3.4,7.79,3.4,11.973
		c0,8.765-4.547,16.757-13.514,23.756c-9.492,7.481-20.069,12.573-31.444,15.137C2104.913,399.77,2084.435,402.631,2066.404,402.631
		z"/>
</g>
</svg>
