<?xml version="1.0" encoding="iso-8859-1"?>
<!-- Generator: Adobe Illustrator 16.0.0, SVG Export Plug-In . SVG Version: 6.00 Build 0)  -->
<!DOCTYPE svg PUBLIC "-//W3C//DTD SVG 1.1//EN" "http://www.w3.org/Graphics/SVG/1.1/DTD/svg11.dtd">
<svg version="1.1" id="Layer_1" xmlns="http://www.w3.org/2000/svg" xmlns:xlink="http://www.w3.org/1999/xlink" x="0px" y="0px"
	 width="550px" height="306.895px" viewBox="0 0 550 306.895" style="enable-background:new 0 0 550 306.895;" xml:space="preserve"
	>
<g>
	<path style="fill:#FFFFFF;" d="M35.42,77.112c-12.524,0-27.708-8.813-31.245-18.136c-0.254-0.878-0.405-1.768-0.405-2.479
		c0-1.599,0.861-3.152,2.56-4.616l0.064-0.057l0.059-0.064c0.279-0.314,0.871-0.474,1.758-0.474c1.478,0,2.903,0.669,3.178,1.492
		c3.998,9.896,11.794,15.356,24.564,17.256l0.095,0.014h0.097c2.314,0,4.683-0.373,7.038-1.109
		c4.792-1.474,9.813-5.322,10.22-10.592l0.003-0.449c-0.077-6.316-6.53-8.191-14.002-10.362l-1.632-0.477l-7.737-2.51
		c-5.171-1.748-9.288-5.171-11.013-9.161c-0.644-2.007-0.97-3.809-0.97-5.354c0-4.582,2.798-9.744,8.552-15.781
		c5.289-4.414,10.902-6.651,16.682-6.651c2.466,0,4.959,0.36,7.409,1.069c2.91,0.841,5.278,2.299,7.24,4.457
		c1.944,2.07,2.882,4.389,2.882,7.106c0,2.645-0.994,5.301-2.957,7.896l-1.164,1.437c-0.311,0.348-1.805,1.269-3.119,1.269
		c-0.23,0-0.743-0.055-1.879-0.317c-0.635-0.151-1.232-0.486-1.232-1.884c0-1.125,0.41-2.286,1.252-3.549
		c0.824-1.067,1.269-2.323,1.269-3.662c0-1.943-1.104-3.638-3.11-4.772c-1.747-1.064-3.82-1.638-5.96-1.638
		c-0.919,0-1.56,0.09-1.937,0.166c-4.533,0.982-8.068,2.913-10.526,5.742c-2.487,2.865-3.749,6.001-3.749,9.323
		c0,1.377,0.25,2.73,0.723,3.913c0.606,1.646,2.515,3.128,5.82,4.499c2.942,1.192,6.598,2.441,11.184,3.824
		c4.452,1.322,7.562,2.29,9.319,3.033c5.044,2.106,7.818,6.206,7.818,11.544c0,1.418-0.192,2.845-0.589,4.362
		c-0.714,2.663-2.422,5.231-5.073,7.625c-2.737,2.47-5.991,4.435-9.674,5.841c-3.692,1.41-7.36,2.158-10.901,2.225L35.42,77.112z"/>
	<path style="fill:#FFFFFF;" d="M75.062,76.619c-1.779-0.062-3.098-0.245-3.873-0.544c-0.227-0.095-0.946-0.533-2.021-2.271
		c-0.736-1.228-1.146-2.784-1.207-4.609l-0.084-2.543l-4.812,3.729c-2.454,1.761-4.648,2.668-6.484,2.668
		c-0.985,0-1.392-0.185-1.499-0.281c-0.365-0.979-0.422-1.445-0.422-1.639c0-1.843,1.616-3.57,4.804-5.134
		c2.216-0.992,4.787-3.462,7.82-7.531c2.983-4.002,5.231-7.822,6.874-11.679c1.896-5.546,3.531-11.003,5.033-16.773l0.265-1.018
		l-0.94-0.472c-0.074-0.037-0.209-0.092-0.406-0.163c-0.223-0.081-0.575-0.208-1.038-0.419l-1.497-0.749
		c-1.37-0.762-2.361-2.627-2.361-4.508c0-0.423,0.074-0.893,0.234-1.479c0.432-1.352,0.918-1.352,1.125-1.352
		c0.163,0,0.324,0.019,0.645,0.248l0.101,0.065c0.994,0.58,2.55,1.181,4.499,1.737l0.735,0.21l0.541-0.541
		c0.281-0.281,0.294-0.321,0.965-2.426l0.265-0.827l1.823-5.892l1.392-4.174c0.577-1.537,1.479-2.98,2.738-4.367
		C89.445,2.599,90.697,2,92.214,2c0.407,0,0.724,0.064,0.875,0.102l0.076,0.019l0.078,0.01c1.425,0.178,3.061,0.797,3.061,4.031
		c0,1.386-0.361,3.985-2.084,8.497l-3.162,8.183l2.156-0.269c0.658-0.082,2.568-0.384,5.561-0.997
		c1.844-0.444,3.529-0.673,4.92-0.673c1.438,0,2.266,0.229,2.578,0.365l0.057,0.068c0.408,0.5,0.616,1.165,0.616,1.977
		c0,1.918-0.794,3.414-2.496,4.705c-1.019,0.774-3.36,1.696-8.735,1.696c-0.791,0-2.014-0.046-3.057-0.085
		c-0.805-0.03-1.507-0.055-1.844-0.055c-0.175,0-0.467,0.021-0.737,0.042c-0.156,0.013-0.303,0.026-0.386,0.027l-0.941,0.013
		l-0.297,0.899c-0.375,1.201-1.669,4.828-3.549,9.951c-2.203,6-3.904,10.967-5.203,15.187c-1.426,4.802-2.088,7.989-2.088,10.043
		c0,0.549,0,2.22,1.191,2.935c0.592,0.397,1.264,0.605,1.998,0.605c1.125,0,2.727-0.573,4.762-1.704
		c1.752-0.906,3.01-1.375,3.705-1.375c0.26,0,0.367,0.042,0.574,0.318l0.074,0.09c0.389,0.43,0.576,1.016,0.576,1.79
		c0,1.836-0.947,3.333-2.898,4.574c-3.669,2.424-7.785,3.647-12.253,3.647H75.062z"/>
	<path style="fill:#FFFFFF;" d="M128.264,76.549c-0.659,0-1.771-0.046-3.317-0.268c-1.063-0.201-1.652-0.443-1.959-0.622
		l-0.053-0.042c-0.146-0.117-0.348-0.277-0.4-0.338l-0.32-0.482c-0.042-0.092-0.091-0.181-0.142-0.27v-1.722l-3.665,1.692
		c-0.717,0.383-1.287,0.616-1.746,0.804l-0.391,0.162c-0.657,0.292-1.432,0.521-2.318,0.687c-1.459,0.218-2.679,0.328-3.681,0.328
		c-0.823,0-1.601-0.063-2.376-0.192c-1.225-0.175-2.424-0.576-3.596-1.197c-1.602-0.833-2.865-2.013-3.765-3.51
		c-0.806-1.277-1.36-2.621-1.665-4.018l-0.561-2.576l-1.702,2.012c-0.686,0.811-2.005,1.858-3.92,3.113
		c-1.759,1.193-3.515,2.082-5.384,2.729l-0.08,0.028l-0.076,0.038c-0.381,0.19-0.9,0.283-1.588,0.283
		c-0.867,0-1.65-0.161-1.711-2.101c0-1.008,0.576-1.994,1.712-2.959c0.567-0.51,1.063-0.86,1.502-1.168l0.231-0.164
		c0.57-0.408,1.179-0.799,1.86-1.196c0,0,0.812-0.519,0.931-0.593h0.051l0.318-0.202c2.213-1.4,4.342-3.499,6.509-6.413
		c2.063-2.774,3.655-5.236,4.732-7.319c1.197-2.327,2.654-4.391,4.333-6.137c1.766-1.765,3.65-3.224,5.584-4.32
		c1.609-0.894,3.3-1.531,5.016-1.889c0.437-0.071,1.024-0.113,1.694-0.113c1.043,0,1.802,0.075,2.389,0.235
		c0.925,0.218,2.333,0.637,4.052,1.458l0.118,0.057l0.128,0.032c0.018,0.016,0.162,0.1,0.317,0.185
		c0.376,0.206,0.669,0.361,0.945,0.456c0.349,0.168,0.696,0.168,0.872,0.168h0.42c0.532,0,0.982-0.334,1.18-0.507l0.379-0.285
		c0,0,0.24-0.323,0.258-0.346c0.041-0.016,0.082-0.034,0.123-0.052h0.135c0.514,0.079,1.186,0.229,2.001,0.446
		c0.636,0.159,1.169,0.368,1.65,0.643c1.477,0.783,2.214,1.288,2.525,1.521c0.336,0.282,0.703,0.588,1.053,0.996
		c0.326,0.421,0.56,0.838,0.667,1.207v0.398c0,0.458-0.059,0.827-0.174,1.098c-0.289,0.719-0.78,1.676-1.396,2.724
		c-0.252,0.474-0.459,0.852-0.641,1.185c-0.352,0.646-0.605,1.112-0.764,1.482c-1.193,2.526-2.143,5.276-2.803,8.131
		c-0.472,1.957-0.732,3.73-0.732,4.983c0,1.068,0.105,1.843,0.342,2.501c0.373,1.284,1.357,2.019,2.708,2.019h0.296l0.086-0.011
		c1.18-0.158,2.65-0.717,4.767-1.814c2.269-1.26,3.078-1.395,3.322-1.395c0.274,0,0.437,0.065,0.62,0.25
		c0.648,0.647,0.95,1.29,0.95,2.021c0,1.192-0.563,2.334-1.72,3.491c-1.848,1.975-5.402,3.486-10.311,4.402
		c-0.887,0.177-1.939,0.258-3.332,0.258H128.264z M108.313,63.195c0.192,0.879,0.511,1.982,1.261,2.839
		c0.479,0.574,1.219,1.107,2.121,1.517l0.063,0.028l0.064,0.021c0.389,0.129,0.961,0.207,1.531,0.207c0.449,0,0.814,0,1.177-0.094
		c1.974-0.275,3.808-1.327,5.453-3.129c0.716-0.781,1.291-1.489,1.662-2.046c0.897-1.192,2.319-5.639,2.388-11.206
		c0-1.4-1.252-2.882-2.171-3.375c-0.518-0.348-1.181-0.53-1.929-0.53h-0.492l-0.07,0.008c-0.732,0.081-1.445,0.312-2.119,0.688
		c-0.533,0.238-1.07,0.594-1.684,1.114c-1.046,0.732-1.94,1.581-2.811,2.669c-2.164,2.523-3.623,5.249-4.309,8.065
		c-0.166,0.661-0.246,1.337-0.246,2.058C108.203,62.43,108.203,62.813,108.313,63.195z"/>
	<path style="fill:#FFFFFF;" d="M161.651,77.249c-2.413,0-4.103-0.736-5.167-2.249c-0.11-0.147-0.394-0.625-0.394-1.912
		c0-0.845,0.15-2.42,0.867-5.128c0.356-1.346,0.953-3.715,0.953-4.463c0-0.991-0.467-1.473-0.938-1.672
		c-0.23-0.125-0.491-0.188-0.781-0.188c-1.066,0-2.027,0.942-4.902,3.92l-0.652,0.675c-1.889,2.083-5.498,4.865-8.799,6.212
		c-1.008,0.392-1.936,0.604-2.658,0.604c-0.768,0-1.289-0.284-1.679-0.917c-0.114-0.354-0.242-0.81-0.242-1.143
		c0-1.426,0.925-2.728,2.749-3.868c2.109-1.185,4.391-2.783,6.926-4.856c2.711-2.301,4.512-3.949,5.857-5.36
		c3.352-3.429,7.359-5.855,10.709-6.48l0.089-0.017l0.085-0.028c0.043-0.003,0.316-0.003,0.498-0.003
		c2.985,0,3.838,2.292,4.513,4.844c0.316,1.198,0.644,2.437,1.928,2.437c0.452,0,0.833-0.152,1.132-0.454
		c0.493-0.493,1.197-1.364,2.429-3.006l3.31-4.646l2.09-2.857c1.281-1.708,2.186-2.784,2.836-3.376
		c0.735-0.733,1.775-1.428,3.137-2.109c2.519-1.355,4.525-2.033,6-2.033c1.733,0,3.232,0.915,4.453,2.72
		c0.804,1.173,1.369,2.696,1.687,4.533c0.125,1.215,0.191,2.499,0.191,3.839c0,2.481-0.209,5.516-0.621,9.019l-0.315,3.151
		c-0.193,1.913-0.254,2.531-0.254,2.811c0,0.358,0,0.725,0.16,1.068c0.39,1.333,1.43,2.122,2.82,2.122
		c0.604,0,1.164-0.146,1.664-0.433c3.535-1.724,4.854-2.087,5.336-2.087c0.273,0,0.359,0.038,0.362,0.039
		c0.724,0.798,1.068,1.54,1.068,2.301c0,1.658-1.39,3.332-4.13,4.976c-2.863,1.718-5.289,2.622-7.214,2.686l-0.071,0.002
		l-0.068,0.01c-0.4,0.057-1.007,0.057-1.848,0.057c-5.547,0-9.132-2.595-9.132-6.611c0-0.453,0-0.921,0.045-1.144l0.025-0.127
		v-0.129c0.005-0.125,0.073-1.362,0.208-3.562c0.143-2.437,0.212-4.202,0.212-5.399c0-1.603,0-3.26-1.51-3.26
		c-0.537,0-0.847,0.239-1.057,0.447l-0.048,0.047l-6.692,8.173c-3.862,4.812-7.124,8.517-9.701,11.023
		C165.848,76.656,164.058,77.249,161.651,77.249z"/>
	<path style="fill:#FFFFFF;" d="M245.513,76.549c-0.659,0-1.771-0.046-3.316-0.268c-1.063-0.2-1.652-0.443-1.959-0.622l-0.057-0.045
		c-0.145-0.116-0.344-0.274-0.396-0.335l-0.32-0.482c-0.042-0.092-0.091-0.181-0.142-0.27v-1.722l-3.665,1.692
		c-0.715,0.382-1.285,0.615-1.743,0.802l-0.395,0.164c-0.657,0.292-1.433,0.521-2.317,0.687c-1.461,0.218-2.68,0.328-3.681,0.328
		c-0.824,0-1.602-0.063-2.377-0.192c-1.224-0.175-2.423-0.576-3.597-1.197c-1.602-0.833-2.865-2.013-3.764-3.51
		c-0.904-1.394-1.501-2.863-1.797-4.407l-0.42-2.18l-1.695,1.431c-2.196,1.853-3.857,3.169-4.939,3.913
		c-2.514,1.805-4.707,2.712-6.544,2.712c-0.986,0-1.392-0.185-1.497-0.281c-0.367-0.979-0.424-1.445-0.424-1.64
		c0-1.843,1.616-3.57,4.805-5.134c2.002-0.89,4.383-2.806,7.032-5.676c2.535-2.741,4.702-5.754,6.622-9.211
		c1.214-2.36,2.672-4.424,4.352-6.171c1.766-1.765,3.65-3.225,5.584-4.32c1.608-0.894,3.299-1.531,5.014-1.889
		c0.438-0.071,1.027-0.113,1.696-0.113c1.042,0,1.802,0.075,2.389,0.235c0.575,0.129,1.675,0.514,3.21,1.249l0.334,0.146
		c0.455,0.2,0.757,0.332,1.138,0.332c0.778,0,1.438-0.488,1.767-1.306c0.29-0.675,0.509-2.06,0.56-2.398l2.434-9.525l2.1-8.117
		l1.531-5.359c1.147-4.116,1.887-5.963,2.931-8.122c0.979-1.957,2.413-2.836,4.641-2.836c0.388,0,0.863,0.059,1.496,0.185
		c1.337,0.349,3.435,1.621,3.435,3.625c0-0.001-0.001-0.002-0.001-0.002c-0.005,0-0.017,0.063-0.03,0.141
		c-0.027,0.154-0.062,0.348-0.096,0.589c-0.326,1.616-2.811,10.279-7.173,25.446c-4.756,16.531-6.863,24.385-7.237,26.977
		c-0.487,1.765-0.725,3.387-0.725,4.956c0,1.001,0.111,1.747,0.363,2.417c0.331,0.778,0.784,1.331,1.406,1.746l0.065,0.043
		l0.07,0.036c0.373,0.188,0.794,0.279,1.285,0.279c0.435,0,0.852,0,1.221-0.17c1.137-0.36,1.888-0.659,2.231-0.889
		c0.193-0.119,1.07-0.527,1.595-0.771c0.544-0.253,0.841-0.393,1.024-0.486c0.159-0.049,0.338-0.122,0.575-0.219
		c0.435-0.177,1.339-0.545,1.754-0.545h0.173c0.477,0.087,0.608,0.222,0.61,0.224c0.464,0.881,0.695,1.527,0.716,1.982
		c-0.01,0.044-0.139,0.534-0.139,0.534v0.161c0,0.075-0.022,0.254-0.175,0.608l-0.053,0.124l-0.026,0.132
		c-0.003,0.011-0.073,0.304-0.629,1.184c-0.416,0.521-1.094,1.127-2.016,1.804c-1.513,1.03-3.528,1.913-5.955,2.598
		c-0.898,0.298-2.022,0.504-3.012,0.669c-0.911,0.182-1.965,0.263-3.356,0.263H245.513z M224.302,62.914
		c0.191,0.878,0.51,1.981,1.262,2.839c0.477,0.574,1.217,1.107,2.119,1.517l0.063,0.028l0.064,0.021
		c0.389,0.129,0.961,0.207,1.532,0.207c0.455,0,0.825,0,1.191-0.098c2.149-0.34,4.077-1.396,5.583-3.06
		c0.632-0.723,1.592-2.448,2.871-5.146l0.033-0.071l0.025-0.075c0.535-1.605,0.831-3.209,0.905-4.905
		c0.001-0.176,0.019-0.385,0.033-0.593c0.021-0.281,0.038-0.563,0.038-0.723c0-0.962-0.139-1.923-0.393-2.716
		c-0.117-0.532-0.336-1.023-0.638-1.424c-0.438-0.547-0.805-0.878-1.175-1.061c-0.512-0.334-1.163-0.509-1.896-0.509h-0.491
		l-0.072,0.008c-0.73,0.081-1.443,0.312-2.117,0.688c-0.533,0.238-1.072,0.595-1.685,1.114c-1.046,0.732-1.94,1.582-2.81,2.669
		c-2.165,2.523-3.624,5.249-4.309,8.066c-0.166,0.658-0.247,1.334-0.247,2.057C224.192,62.15,224.192,62.532,224.302,62.914z"/>
	<path style="fill:#FFFFFF;" d="M299.132,76.549c-0.659,0-1.771-0.046-3.317-0.268c-1.064-0.201-1.652-0.444-1.959-0.622
		l-0.053-0.042c-0.146-0.116-0.348-0.276-0.4-0.337l-0.319-0.482c-0.043-0.092-0.092-0.181-0.143-0.27v-1.722l-3.665,1.692
		c-0.717,0.383-1.289,0.616-1.748,0.804l-0.389,0.162c-0.657,0.292-1.432,0.521-2.317,0.687c-1.46,0.218-2.68,0.328-3.682,0.328
		c-0.823,0-1.601-0.063-2.376-0.192c-1.224-0.175-2.424-0.576-3.597-1.197c-1.602-0.833-2.864-2.012-3.763-3.51
		c-0.807-1.276-1.361-2.62-1.665-4.018l-0.56-2.576l-1.703,2.012c-0.686,0.81-2.005,1.857-3.921,3.113
		c-1.76,1.193-3.515,2.083-5.383,2.729l-0.081,0.028l-0.075,0.038c-0.382,0.19-0.901,0.283-1.59,0.283
		c-0.866,0-1.649-0.161-1.71-2.102c0-1.008,0.576-1.994,1.712-2.959c0.567-0.51,1.063-0.86,1.502-1.168l0.231-0.164
		c0.57-0.408,1.179-0.798,1.86-1.196c0,0,0.812-0.519,0.93-0.593h0.053l0.318-0.202c2.213-1.401,4.341-3.499,6.508-6.413
		c2.063-2.773,3.654-5.236,4.732-7.319c1.197-2.328,2.654-4.392,4.333-6.138c1.766-1.765,3.65-3.225,5.584-4.32
		c1.61-0.895,3.301-1.532,5.015-1.889c0.438-0.071,1.025-0.113,1.695-0.113c1.042,0,1.802,0.075,2.389,0.235
		c0.924,0.218,2.333,0.637,4.052,1.458l0.118,0.057l0.128,0.032c0.019,0.017,0.164,0.101,0.318,0.185
		c0.376,0.206,0.669,0.361,0.944,0.456c0.349,0.168,0.696,0.168,0.872,0.168h0.42c0.524,0,0.975-0.331,1.173-0.502l0.386-0.289
		c0,0,0.24-0.323,0.258-0.347c0.041-0.016,0.082-0.034,0.123-0.052h0.135c0.513,0.079,1.186,0.229,2.001,0.446
		c0.637,0.16,1.171,0.368,1.65,0.643c1.477,0.783,2.215,1.288,2.526,1.522c0.336,0.282,0.703,0.588,1.052,0.996
		c0.326,0.421,0.56,0.838,0.668,1.207v0.397c0,0.458-0.06,0.827-0.176,1.098c-0.287,0.718-0.778,1.674-1.396,2.724
		c-0.255,0.478-0.462,0.859-0.646,1.194c-0.349,0.641-0.602,1.104-0.76,1.473c-1.194,2.529-2.143,5.279-2.801,8.131
		c-0.472,1.954-0.733,3.728-0.733,4.982c0,1.07,0.105,1.845,0.342,2.501c0.373,1.284,1.357,2.019,2.708,2.019h0.296l0.086-0.011
		c1.18-0.157,2.649-0.717,4.768-1.814c2.268-1.26,3.077-1.395,3.321-1.395c0.274,0,0.437,0.065,0.621,0.25
		c0.647,0.647,0.949,1.29,0.949,2.021c0,1.192-0.563,2.334-1.719,3.491c-1.849,1.974-5.403,3.486-10.311,4.402
		c-0.888,0.177-1.94,0.258-3.332,0.258H299.132z M279.18,63.194c0.191,0.879,0.511,1.981,1.262,2.84
		c0.478,0.573,1.218,1.106,2.12,1.517l0.063,0.029l0.065,0.021c0.389,0.129,0.961,0.207,1.53,0.207c0.449,0,0.815,0,1.178-0.094
		c1.974-0.275,3.809-1.328,5.453-3.129c0.712-0.776,1.287-1.484,1.661-2.045c0.898-1.194,2.32-5.641,2.39-11.207
		c0-1.4-1.252-2.881-2.172-3.375c-0.517-0.348-1.18-0.53-1.929-0.53h-0.492l-0.071,0.008c-0.731,0.081-1.443,0.312-2.119,0.688
		c-0.532,0.239-1.07,0.595-1.683,1.114c-1.046,0.732-1.94,1.582-2.811,2.669c-2.164,2.523-3.623,5.249-4.308,8.065
		c-0.166,0.658-0.247,1.334-0.247,2.058C279.071,62.43,279.071,62.812,279.18,63.194z"/>
	<path style="fill:#FFFFFF;" d="M343.511,76.619c-1.779-0.062-3.098-0.245-3.874-0.544c-0.227-0.095-0.945-0.533-2.021-2.271
		c-0.764-1.234-1.136-2.75-1.136-4.636c0-2.208,0.51-4.726,1.514-7.485c1.097-2.374,2.424-4.03,3.395-5.241
		c0.868-1.084,1.393-1.739,1.393-2.535c0-1.395-1.469-2.507-5.819-4.411l-1.042-0.456l-0.59,0.971
		c-0.334,0.548-0.684,1.183-1.046,1.842c-0.698,1.27-1.421,2.583-2.145,3.477c-4.445,5.676-9.581,10.586-15.714,15.027
		c-2.487,1.786-4.682,2.693-6.518,2.693c-0.986,0-1.392-0.185-1.498-0.281c-0.366-0.979-0.423-1.445-0.423-1.64
		c0-1.843,1.616-3.57,4.803-5.134c2.599-1.187,5.64-3.964,9.263-8.474c3.489-4.415,5.733-8.476,6.864-12.419
		c0.143-0.364,0.143-0.72,0.143-1.066c0-0.84-0.385-2.228-1.143-4.123c-0.396-1.149-0.96-2.877-1.03-3.943l0.003-0.755
		c0-2.085,0.453-3.945,1.387-5.687c1.201-2.324,2.543-2.324,2.984-2.324c0.097,0.004,0.239,0.031,0.423,0.06l0.347,0.053
		c4.158,1.248,5.561,8.288,5.561,11.329c0,0.311,0,0.662-0.019,0.766l-0.261,0.791l0.624,0.515c2.142,1.994,5.038,3.618,8.854,4.965
		c3.491,1.208,5.854,2.384,7.029,3.498c0.261,0.225,0.364,0.429,0.364,0.667c0,1.444-1.53,3.571-4.959,7.791
		c-2.188,2.641-3.302,5.11-3.302,7.33c0,0.865,0.205,1.666,0.405,2.334c0.346,1.27,1.391,2.046,2.785,2.046
		c0.651,0,1.769-0.191,4.657-1.685c2.435-1.259,3.478-1.396,3.813-1.396c0.229,0,0.488,0.047,0.831,0.39
		c0.341,0.381,0.529,0.967,0.529,1.741c0,1.836-0.948,3.333-2.898,4.574c-3.67,2.424-7.786,3.647-12.253,3.647H343.511z"/>
	<path style="fill:#FFFFFF;" d="M397.481,76.549c-0.659,0-1.771-0.046-3.316-0.268c-1.063-0.2-1.652-0.443-1.96-0.622l-0.056-0.045
		c-0.145-0.116-0.344-0.274-0.396-0.335l-0.321-0.483c-0.042-0.091-0.09-0.18-0.141-0.268v-1.723l-3.665,1.692
		c-0.715,0.382-1.285,0.615-1.743,0.802l-0.395,0.164c-0.657,0.292-1.433,0.521-2.317,0.687c-1.46,0.218-2.68,0.328-3.681,0.328
		c-0.824,0-1.602-0.063-2.377-0.192c-1.224-0.175-2.423-0.576-3.596-1.197c-1.603-0.833-2.866-2.013-3.764-3.51
		c-0.905-1.394-1.502-2.863-1.799-4.407l-0.418-2.18l-1.696,1.431c-2.196,1.853-3.858,3.169-4.939,3.913
		c-2.514,1.805-4.708,2.712-6.544,2.712c-0.986,0-1.392-0.185-1.498-0.281c-0.366-0.979-0.423-1.445-0.423-1.64
		c0-1.843,1.616-3.57,4.803-5.134c2.004-0.889,4.385-2.806,7.034-5.676c2.535-2.741,4.701-5.754,6.622-9.211
		c1.214-2.36,2.671-4.424,4.352-6.171c1.766-1.765,3.65-3.225,5.584-4.32c1.608-0.894,3.299-1.531,5.015-1.889
		c0.438-0.071,1.025-0.113,1.695-0.113c1.043,0,1.801,0.075,2.388,0.235c0.576,0.129,1.675,0.514,3.212,1.249l0.333,0.146
		c0.455,0.2,0.757,0.332,1.138,0.332c0.778,0,1.438-0.488,1.767-1.306c0.29-0.675,0.509-2.06,0.56-2.398l2.435-9.525l2.099-8.117
		l1.531-5.359c1.149-4.122,1.889-5.968,2.931-8.122c0.979-1.958,2.412-2.837,4.641-2.837c0.388,0,0.863,0.059,1.496,0.185
		c1.337,0.349,3.435,1.621,3.435,3.625c0-0.001-0.001-0.002-0.001-0.002c-0.005,0-0.017,0.063-0.03,0.141
		c-0.027,0.154-0.062,0.348-0.096,0.589c-0.326,1.616-2.811,10.279-7.173,25.446c-4.754,16.526-6.861,24.379-7.237,26.977
		c-0.487,1.765-0.725,3.387-0.725,4.956c0,1.001,0.111,1.747,0.363,2.417c0.331,0.778,0.784,1.331,1.406,1.746l0.065,0.043
		l0.07,0.036c0.373,0.188,0.794,0.279,1.285,0.279c0.435,0,0.852,0,1.221-0.17c1.134-0.359,1.884-0.657,2.229-0.887
		c0.195-0.121,1.072-0.529,1.597-0.773c0.544-0.253,0.841-0.393,1.024-0.486c0.159-0.049,0.338-0.122,0.575-0.219
		c0.435-0.177,1.339-0.545,1.754-0.545h0.173c0.479,0.087,0.61,0.223,0.611,0.224c0.463,0.88,0.694,1.527,0.715,1.982
		c-0.01,0.044-0.139,0.534-0.139,0.534v0.161c0,0.075-0.022,0.254-0.175,0.608l-0.053,0.124l-0.026,0.132
		c-0.003,0.011-0.073,0.304-0.629,1.184c-0.416,0.521-1.094,1.127-2.016,1.804c-1.513,1.03-3.528,1.913-5.955,2.598
		c-0.898,0.298-2.022,0.504-3.012,0.669c-0.911,0.182-1.965,0.263-3.356,0.263H397.481z M376.269,62.914
		c0.191,0.878,0.511,1.981,1.262,2.839c0.479,0.574,1.219,1.107,2.122,1.517l0.061,0.028l0.063,0.021
		c0.388,0.13,0.961,0.207,1.532,0.207c0.456,0,0.825,0,1.192-0.098c2.147-0.34,4.076-1.396,5.583-3.06
		c0.632-0.723,1.593-2.449,2.871-5.146l0.034-0.071l0.024-0.075c0.535-1.608,0.831-3.212,0.905-4.905
		c0.001-0.176,0.018-0.385,0.033-0.593c0.02-0.281,0.038-0.563,0.038-0.723c0-0.963-0.14-1.924-0.393-2.718
		c-0.119-0.533-0.338-1.023-0.638-1.423c-0.438-0.547-0.805-0.878-1.174-1.061c-0.513-0.334-1.164-0.509-1.896-0.509h-0.492
		l-0.071,0.008c-0.73,0.081-1.443,0.312-2.118,0.688c-0.533,0.238-1.071,0.595-1.684,1.114c-1.046,0.732-1.94,1.582-2.81,2.669
		c-2.165,2.523-3.624,5.249-4.31,8.066c-0.165,0.658-0.246,1.334-0.246,2.057C376.16,62.15,376.16,62.532,376.269,62.914z"/>
</g>
<g>
	<path style="fill:#FFFFFF;" d="M153.48,185.615c-0.932,0-1.968-0.192-2.998-0.556c-1.373-0.409-1.373-7.136-1.373-9.346
		c0-0.37,0.017-1.053,0.033-1.75c0.019-0.754,0.037-1.524,0.037-1.961c0-4.765,0.701-11.741,2.085-20.734
		c1.358-8.825,3.628-16.568,6.746-23.014l0.664-1.373l-1.461-0.438c-5.483-1.645-10.482-3.727-14.858-6.188
		c-4.253-2.459-7.256-4.817-8.911-7.003c-1.657-2.231-2.467-4.153-2.467-5.866c0-1.19,0.339-2.675,2.981-3.604
		c0.646-0.235,1.143-0.347,1.529-0.347c0.626,0,1.178,0.187,1.639,0.556c0.533,0.477,1.251,1.357,1.971,2.436
		c0.771,1.158,1.529,2.176,2.133,2.866c2.018,2.242,4.705,4.338,8.227,6.423c3.458,2.046,7.324,3.714,11.492,4.958l0.953,0.285
		l0.523-0.847c6.387-10.326,14.613-15.346,25.148-15.346h0.279c3.137,0.065,5.898,1.256,8.182,3.54
		c2.382,2.382,3.54,4.943,3.54,7.832c0,2.651-1.053,4.902-3.218,6.881c-4.79,4.325-11.563,6.521-20.125,6.521
		c-2.109,0-4.621-0.185-7.465-0.55l-0.916-0.117l-0.412,0.826c-2.639,5.277-4.828,12.624-6.695,22.461
		c-1.826,9.553-2.753,19.08-2.753,28.314v0.49C157.991,183.92,156.346,185.615,153.48,185.615z M184.353,112.387
		c-1.157,0-2.221,0.198-3.16,0.59c-3.633,1.371-5.814,3.807-8.555,7.817l-1.389,2.033h3.373c5.445,0,10.248-1.113,14.273-3.309
		c0.519-0.326,1.867-1.184,1.867-2.751C190.763,114.434,187.768,112.387,184.353,112.387z"/>
	<path style="fill:#FFFFFF;" d="M209.759,182.185c-8.189,0-12.557-2.169-13.352-6.629l-0.016-0.095l-0.031-0.091
		c-0.003-0.053-0.003-0.431-0.003-0.707c0-2.108,1.584-4.669,4.035-6.523c2.196-1.662,4.369-2.937,6.144-3.604l1.084-0.179
		l0.028-1.102c0.009-1.119-0.937-1.292-1.938-1.475c-1.565-0.285-5.723-1.043-7.488-2.204c-2.355-1.392-3.475-3.292-3.475-5.845
		c0-1.512,0.479-2.754,1.465-3.798c2.412-2.612,6.092-4.06,7.701-4.462c0.468-0.1,1.999-0.391,5.216-0.739l5.13-0.633
		c1.352-0.224,3.348-0.363,5.311-0.482c4.162-0.245,8.077-0.791,14.144-2.629c-0.052,0.179-0.1,0.343-0.138,0.474
		c-0.328,1.115-0.787,2.433-1.318,3.959l-0.063,0.18c-0.593,1.704-0.986,2.971-1.201,3.866c-0.385,0.852-0.957,1.288-1.99,1.869
		c-0.268,0.132-1.51,0.398-2.165,0.471l-3.245,0.423c-1.186,0.131-2.314,0.199-3.332,0.199c-0.746,0-1.658-0.042-2.768-0.093
		l-1.027-0.046c-1.604-0.141-2.74-0.211-3.416-0.211c-2.043,0-3.931,0.382-5.457,1.105l-0.112,0.06
		c-0.307,0.184-1.121,0.672-1.121,1.675c0,1.528,1.819,2.089,3.784,2.466c1.869,0.36,4.4,0.719,7.523,1.066
		c2.762,0.307,5.24,0.649,6.98,0.967c1.104,0.191,1.318,0.46,1.32,0.463l-0.006,1.548c0,2.039-0.051,2.57-1.339,3.44
		c-1.772,0.978-3.909,1.774-6.351,2.367c-0.826,0.182-1.643,0.352-2.414,0.512c-4.257,0.886-7.069,1.471-8.238,3.261l-0.041,0.063
		l-0.033,0.067c-0.172,0.344-0.347,0.765-0.347,1.28c0,1.98,2.517,3.261,6.41,3.261c1.08,0,2.151-0.131,3.186-0.39
		c8.837-2.381,13.755-4.88,18.169-9.225c0.06-0.046,0.391-0.188,1.048-0.188c1.57,0,3.034,0.595,3.317,0.949
		c-0.041,0.655-0.621,2.216-3.779,5.617c-2.663,2.799-4.904,4.635-6.84,5.603C223.03,180.791,216.648,182.185,209.759,182.185z"/>
	<path style="fill:#FFFFFF;" d="M243.279,182.534c-2.978-0.274-3.581-0.604-3.641-0.642c-0.229-0.138-0.799-0.612-1.615-2.328
		c-0.412-1.003-0.645-2.309-0.645-3.711c0-0.648,0.068-1.313,0.133-1.886l0.342-3.071l-6.915,5.403
		c-2.552,1.802-4.772,2.734-6.551,2.734c-0.863,0-1.261-0.235-1.479-0.454c-0.24-0.577-0.371-1.167-0.371-1.677
		c0-0.874,0.457-1.738,1.439-2.72c0.395-0.446,1.497-1.2,1.973-1.438l0.529-0.304c0.422-0.245,1.412-0.821,1.618-0.915l0.172-0.057
		l0.068-0.07c2.484-1.682,4.206-3.049,5.262-4.181c1.114-1.113,2.731-3.329,4.807-6.304l0.138-0.196l0.058-0.232
		c0.238-0.954,0.587-2.679,1.114-5.288c0.264-1.311,0.572-2.834,0.928-4.566l0.854-4.179c0.735-3.605,1.444-7.079,2.153-10.37
		c1.125-5.224,1.941-8.317,2.428-9.992c1.558-5.515,2.961-9.542,5.537-13.835c2.375-3.851,5.559-5.81,9.457-5.81
		c7.09,0.078,8.15,7.948,8.15,12.632c0,3.656-0.557,7.363-1.699,11.332c-1.584,5.026-4.498,10.732-8.651,16.928
		c-4.161,6.312-8.284,11.044-12.61,14.477l-0.329,0.262l-0.114,0.404c-0.682,2.427-1.028,4.877-1.028,7.283v2.438l0.005,0.056
		c0.285,3.283,2.371,3.638,3.256,3.638c0.111,0,0.317-0.021,0.614-0.066c0.159-0.023,0.358-0.054,0.598-0.084l0.119-0.021
		c0.47-0.104,1.468-0.424,4.696-1.989c2.17-1.037,3.641-1.543,4.487-1.543c0.399,0,0.548,0.072,0.757,0.546
		c0.24,0.684,0.379,1.337,0.379,1.857c0,1.59-1.096,3.107-3.258,4.51c-3.877,2.3-7.805,3.431-11.963,3.431H243.279z
		 M260.021,116.098c-1.268,0-2.434,0.975-3.895,3.259c-1.135,1.888-1.891,3.637-2.271,5.23l-5.88,24.359l2.271,1.127
		c4.1-5.018,7.209-10.324,9.242-15.77c2.007-5.446,3.022-10.12,3.022-13.896v-0.21C262.473,119.147,262.36,116.098,260.021,116.098z
		"/>
	<path style="fill:#FFFFFF;" d="M275.419,182.185c-8.191,0-12.559-2.169-13.352-6.629l-0.018-0.095l-0.029-0.091
		c-0.004-0.053-0.004-0.431-0.004-0.707c0-2.108,1.584-4.669,4.035-6.523c2.195-1.662,4.369-2.937,6.145-3.604l1.083-0.179
		l0.028-1.102c0.01-1.119-0.938-1.292-1.939-1.475c-1.564-0.285-5.723-1.043-7.486-2.204c-2.356-1.392-3.476-3.292-3.476-5.845
		c0-1.512,0.479-2.754,1.466-3.798c2.41-2.612,6.09-4.06,7.701-4.462c0.467-0.1,1.998-0.391,5.215-0.739l5.13-0.633
		c1.352-0.224,3.347-0.363,5.31-0.482c4.163-0.245,8.077-0.79,14.145-2.629c-0.051,0.179-0.1,0.343-0.138,0.475
		c-0.333,1.129-0.8,2.468-1.34,4.02l-0.041,0.12c-0.592,1.7-0.985,2.967-1.201,3.866c-0.385,0.852-0.957,1.289-1.989,1.869
		c-0.27,0.133-1.511,0.398-2.166,0.471l-3.245,0.423c-1.186,0.131-2.315,0.199-3.333,0.199c-0.746,0-1.658-0.042-2.769-0.093
		l-1.024-0.046c-1.605-0.141-2.741-0.211-3.417-0.211c-2.044,0-3.931,0.382-5.458,1.105l-0.111,0.06
		c-0.307,0.184-1.121,0.672-1.121,1.675c0,1.528,1.818,2.089,3.784,2.466c1.868,0.36,4.399,0.719,7.523,1.066
		c2.761,0.307,5.24,0.649,6.981,0.967c1.104,0.191,1.318,0.461,1.32,0.463l-0.007,1.548c0,2.039-0.05,2.57-1.339,3.44
		c-1.773,0.978-3.909,1.774-6.351,2.368c-0.826,0.181-1.643,0.351-2.414,0.511c-4.257,0.886-7.069,1.471-8.238,3.261l-0.041,0.063
		l-0.034,0.067c-0.171,0.344-0.346,0.765-0.346,1.28c0,1.98,2.516,3.261,6.41,3.261c1.08,0,2.151-0.131,3.187-0.389
		c8.835-2.382,13.753-4.881,18.168-9.226c0.06-0.046,0.391-0.188,1.048-0.188c1.57,0,3.034,0.595,3.318,0.949
		c-0.041,0.655-0.622,2.215-3.78,5.617c-2.663,2.799-4.903,4.635-6.84,5.603C288.689,180.791,282.307,182.185,275.419,182.185z"/>
	<path style="fill:#FFFFFF;" d="M320.29,182.955c-4.701,0-9.146-1.017-11.6-2.653c-2.484-1.703-3.274-2.525-3.738-3.298
		c-0.751-1.253-1.277-2.471-1.607-3.722l-0.528-2.006l-1.574,1.35c-1.194,1.023-2.796,2.362-4.596,3.638
		c-2.498,1.793-4.692,2.7-6.529,2.7c-0.986,0-1.392-0.184-1.498-0.28c-0.366-0.979-0.423-1.445-0.423-1.64
		c0-1.843,1.616-3.57,4.804-5.134c2.154-0.965,4.469-2.816,6.84-5.484c2.317-2.529,4.146-5.118,5.574-7.9
		c3.059-6.859,8.018-11.466,15.191-14.147c2.418-0.873,4.742-1.318,6.896-1.318c3.207,0,5.783,0.802,7.876,2.452
		c1.973,1.495,3.019,3.214,3.216,5.269v0.571c0,3-1.492,5.668-4.561,8.162c-1.474,1.167-3.225,1.739-5.341,1.739
		c-0.363,0-0.816,0-0.949-0.031l-0.109-0.026l-0.125-0.01c-0.316-0.088-0.877-0.993-0.995-1.494
		c0.075-0.136,0.237-0.397,0.569-0.855c0.792-1.185,1.089-1.877,1.089-2.514c0-0.495-0.205-1.036-0.687-1.808l-0.064-0.094
		c-0.286-0.38-0.582-0.676-0.96-0.959l-0.148-0.111l-0.174-0.065c-0.798-0.299-1.37-0.432-1.857-0.432h-0.442l-0.092,0.013
		c-0.779,0.111-1.455,0.337-2.126,0.709l-0.158,0.094c-0.361,0.216-0.856,0.513-1.48,0.997l-0.498,0.436
		c-1.055,0.926-1.816,1.596-2.32,2.242c-2.152,2.51-3.611,5.235-4.297,8.052l-0.018,0.072l-0.01,0.074
		c-0.211,1.691-0.219,1.774-0.219,1.912c0,0.141,0.02,0.352,0.042,0.563c0.012,0.104,0.025,0.207,0.027,0.282v0.522l0.018,0.106
		c0.305,1.83,1.22,7.316,12.834,7.316c2.446,0,5.353-0.719,8.636-2.137c3.583-1.547,4.716-1.9,5.034-1.924
		c0.175,0,0.375,0,0.705,0.519c0.333,0.525,0.496,1.121,0.496,1.822c0,1.451-0.752,2.742-2.298,3.944
		c-1.813,1.409-3.733,2.339-5.871,2.841C327.806,182.418,323.902,182.955,320.29,182.955z"/>
	<path style="fill:#FFFFFF;" d="M378.321,182.465c-0.659,0-1.771-0.047-3.317-0.268c-1.064-0.2-1.652-0.443-1.959-0.622
		l-0.048-0.038c-0.148-0.118-0.353-0.28-0.406-0.343l-0.318-0.48c-0.043-0.092-0.092-0.181-0.143-0.271v-1.721l-3.665,1.69
		c-0.718,0.385-1.289,0.618-1.749,0.806l-0.388,0.16c-0.659,0.293-1.433,0.522-2.317,0.688c-1.458,0.218-2.678,0.327-3.682,0.327
		c-0.82,0-1.599-0.063-2.377-0.192c-1.224-0.175-2.423-0.576-3.595-1.196c-1.603-0.833-2.865-2.013-3.764-3.511
		c-0.807-1.276-1.361-2.619-1.665-4.018l-0.56-2.576l-1.703,2.012c-0.686,0.811-2.005,1.857-3.921,3.112
		c-1.759,1.193-3.514,2.083-5.384,2.73l-0.079,0.027l-0.075,0.038c-0.383,0.19-0.903,0.283-1.591,0.283
		c-0.866,0-1.649-0.161-1.71-2.102c0-1.008,0.576-1.994,1.712-2.958c0.567-0.511,1.063-0.86,1.5-1.168l0.233-0.165
		c0.565-0.405,1.174-0.796,1.86-1.196c0,0,0.816-0.521,0.931-0.593h0.052l0.318-0.201c2.213-1.401,4.341-3.5,6.508-6.414
		c2.063-2.772,3.654-5.235,4.732-7.318c1.197-2.327,2.654-4.392,4.333-6.138c1.766-1.765,3.65-3.225,5.584-4.32
		c1.61-0.895,3.301-1.532,5.015-1.889c0.438-0.071,1.025-0.113,1.695-0.113c1.042,0,1.802,0.075,2.389,0.235
		c0.924,0.218,2.333,0.637,4.052,1.458l0.118,0.057l0.128,0.032c0.019,0.017,0.164,0.101,0.318,0.185
		c0.376,0.206,0.669,0.361,0.944,0.456c0.349,0.168,0.696,0.168,0.872,0.168h0.42c0.524,0,0.976-0.331,1.173-0.502l0.386-0.289
		c0,0,0.24-0.323,0.258-0.347c0.041-0.016,0.082-0.034,0.123-0.052h0.135c0.513,0.079,1.186,0.229,2.001,0.446
		c0.637,0.159,1.17,0.368,1.648,0.642c1.478,0.783,2.216,1.289,2.528,1.522c0.336,0.282,0.703,0.588,1.052,0.996
		c0.326,0.421,0.56,0.838,0.668,1.207v0.397c0,0.458-0.06,0.827-0.176,1.098c-0.288,0.719-0.779,1.676-1.396,2.723
		c-0.256,0.479-0.464,0.861-0.646,1.197c-0.349,0.64-0.601,1.103-0.759,1.471c-1.194,2.529-2.143,5.279-2.801,8.131
		c-0.472,1.954-0.733,3.728-0.733,4.982c0,1.07,0.105,1.846,0.342,2.502c0.375,1.283,1.358,2.018,2.708,2.018h0.296l0.086-0.011
		c1.181-0.157,2.65-0.717,4.768-1.814c2.269-1.26,3.077-1.395,3.321-1.395c0.274,0,0.437,0.065,0.621,0.249
		c0.647,0.648,0.949,1.29,0.949,2.021c0,1.192-0.563,2.334-1.719,3.491c-1.848,1.974-5.402,3.485-10.311,4.401
		c-0.888,0.178-1.94,0.259-3.332,0.259H378.321z M358.369,169.11c0.192,0.879,0.511,1.981,1.263,2.839
		c0.478,0.574,1.218,1.107,2.119,1.518l0.125,0.049c0.387,0.13,0.96,0.207,1.533,0.207c0.449,0,0.814,0,1.176-0.093
		c1.975-0.274,3.81-1.327,5.455-3.131c0.897-0.978,1.399-1.652,1.661-2.045c0.898-1.194,2.32-5.64,2.389-11.207
		c0-1.399-1.251-2.881-2.171-3.375c-0.517-0.348-1.18-0.53-1.929-0.53h-0.491l-0.071,0.008c-0.729,0.08-1.442,0.311-2.119,0.687
		c-0.532,0.238-1.07,0.594-1.684,1.114c-1.045,0.731-1.939,1.581-2.811,2.669c-2.164,2.524-3.623,5.249-4.308,8.065
		c-0.166,0.659-0.247,1.335-0.247,2.058C358.259,168.346,358.259,168.729,358.369,169.11z"/>
	<path style="fill:#FFFFFF;" d="M418.5,181.624c-1.241,0-2.55-0.063-3.995-0.19c-2.118-0.743-3.943-1.716-5.573-2.97
		c-1.422-1.139-2.153-2.328-2.153-3.521c0-0.509,0.131-0.977,0.437-1.553c0.64-0.889,1.148-1.208,1.414-1.208
		c0.094,0.021,0.693,0.22,2.688,1.815c2.006,1.605,3.807,2.386,5.503,2.386h0.42c2.968,0,5.612-2.35,6.901-6.132
		c0.29-1.054,0.419-1.807,0.419-2.379c0-1.719-0.603-3.278-1.791-4.637c-1.065-1.216-2.538-2.468-4.378-3.72
		c-1.76-1.267-2.89-2.291-3.522-2.924l-1.503-1.504l-0.653,2.023c-0.676,2.094-1.683,4.151-2.994,6.118
		c-0.155,0.221-1.019,1.31-4.926,5.031c-2.671,2.541-5.17,4.783-7.427,6.663c-1.047,0.979-2.4,1.898-4.194,2.864
		c-1.642,0.82-3.071,1.245-4.215,1.245c-1.04,0-1.36-0.38-1.551-0.789c-0.207-0.414-0.3-0.773-0.3-1.132
		c0-1.887,2.122-3.928,6.136-5.904c2.46-1.229,5.156-3.902,8.249-8.174c3.063-4.203,5.172-8.271,6.266-12.088
		c0.143-0.364,0.143-0.72,0.143-1.066c0-0.839-0.385-2.226-1.144-4.124c-0.396-1.147-0.958-2.873-1.03-3.944l0.003-0.683
		c0-2.055,0.451-4.032,1.342-5.875c1.086-2.1,2.09-2.346,2.749-2.346c0.329,0,0.546,0.042,0.748,0.143
		c1.958,0.858,3.319,2.48,4.109,4.85c0.935,2.604,1.404,5.212,1.404,7.78c0,0.571-0.067,1.155-0.131,1.658l-0.087,0.694l0.531,0.456
		c1.015,0.87,2.745,2.117,5.271,3.921l0.923,0.658c2.037,1.452,3.797,2.707,5.166,3.836c1.603,1.205,3.056,2.794,4.366,4.76
		c1.271,1.843,1.883,3.662,1.883,5.579v0.91c0,1.958,0,3.372-1.224,6.205c-0.556,1.356-1.355,2.557-2.387,3.588
		C428.613,179.724,424.554,181.624,418.5,181.624z"/>
	<path style="fill:#FFFFFF;" d="M452.096,182.534c-1.779-0.062-3.098-0.245-3.872-0.543c-0.228-0.095-0.946-0.533-2.022-2.271
		c-0.736-1.227-1.146-2.782-1.207-4.61l-0.085-2.542l-4.812,3.729c-2.453,1.76-4.647,2.667-6.483,2.667
		c-0.986,0-1.392-0.184-1.498-0.28c-0.366-0.979-0.423-1.445-0.423-1.64c0-1.843,1.616-3.57,4.803-5.134
		c2.216-0.992,4.788-3.462,7.821-7.53c2.983-4.003,5.232-7.823,6.875-11.68c1.892-5.533,3.526-10.99,5.032-16.773l0.266-1.02
		l-0.942-0.471c-0.073-0.037-0.208-0.092-0.403-0.162c-0.224-0.081-0.576-0.208-1.04-0.419l-1.497-0.75
		c-1.37-0.763-2.362-2.627-2.362-4.508c0-0.422,0.075-0.892,0.234-1.479c0.432-1.352,0.918-1.352,1.126-1.352
		c0.163,0,0.324,0.019,0.646,0.249l0.1,0.064c0.993,0.58,2.549,1.181,4.499,1.738l0.739,0.211l0.541-0.545
		c0.278-0.281,0.291-0.321,0.963-2.432l0.262-0.819l1.824-5.892l1.392-4.174c0.577-1.537,1.479-2.98,2.739-4.367
		c1.168-1.286,2.42-1.885,3.938-1.885c0.423,0,0.752,0.071,0.874,0.102l0.076,0.019l0.078,0.01c1.426,0.178,3.063,0.797,3.063,4.031
		c0,1.386-0.362,3.984-2.086,8.497l-3.161,8.183l2.157-0.269c0.655-0.082,2.564-0.383,5.561-0.997
		c1.844-0.444,3.529-0.673,4.919-0.673c1.438,0,2.266,0.229,2.578,0.365l0.057,0.068c0.408,0.5,0.616,1.165,0.616,1.977
		c0,1.918-0.793,3.414-2.496,4.705c-1.019,0.774-3.36,1.696-8.735,1.696c-0.791,0-2.015-0.046-3.056-0.085
		c-0.806-0.03-1.508-0.055-1.845-0.055c-0.175,0-0.467,0.021-0.737,0.042c-0.156,0.013-0.303,0.026-0.386,0.027l-0.941,0.013
		l-0.297,0.899c-0.371,1.191-1.665,4.818-3.55,9.951c-2.202,6-3.904,10.968-5.202,15.187c-1.426,4.803-2.088,7.99-2.088,10.044
		c0,0.55,0,2.222,1.192,2.936c0.593,0.396,1.264,0.604,1.998,0.604c1.124,0,2.727-0.573,4.761-1.703
		c1.752-0.906,3.01-1.375,3.704-1.375c0.262,0,0.368,0.041,0.576,0.318l0.073,0.089c0.389,0.432,0.577,1.018,0.577,1.791
		c0,1.836-0.948,3.333-2.899,4.574c-3.668,2.424-7.785,3.646-12.253,3.646H452.096z"/>
	<path style="fill:#FFFFFF;" d="M483.316,182.185c-8.19,0-12.558-2.169-13.352-6.629l-0.017-0.092l-0.029-0.088
		c-0.004-0.056-0.004-0.436-0.004-0.713c0-2.108,1.584-4.669,4.034-6.524c2.197-1.662,4.371-2.937,6.146-3.604l1.082-0.179
		l0.028-1.102c0.009-1.119-0.937-1.292-1.938-1.475c-1.565-0.285-5.722-1.043-7.486-2.204c-2.356-1.392-3.476-3.292-3.476-5.845
		c0-1.512,0.479-2.754,1.466-3.797c2.409-2.612,6.09-4.06,7.7-4.462c0.467-0.1,1.999-0.391,5.215-0.739l5.131-0.633
		c1.352-0.224,3.347-0.363,5.31-0.482c4.163-0.245,8.078-0.791,14.145-2.629c-0.052,0.178-0.1,0.343-0.139,0.474
		c-0.327,1.115-0.786,2.433-1.318,3.959l-0.063,0.181c-0.592,1.703-0.985,2.97-1.2,3.866c-0.385,0.852-0.958,1.288-1.99,1.869
		c-0.268,0.132-1.51,0.398-2.166,0.471l-3.245,0.423c-1.185,0.131-2.314,0.199-3.332,0.199c-0.746,0-1.657-0.042-2.767-0.093
		l-1.027-0.046c-1.605-0.141-2.741-0.211-3.417-0.211c-2.043,0-3.931,0.382-5.457,1.105l-0.058,0.027l-0.055,0.033
		c-0.307,0.184-1.121,0.673-1.121,1.675c0,1.528,1.819,2.089,3.785,2.466c1.869,0.36,4.399,0.719,7.522,1.066
		c2.761,0.307,5.24,0.649,6.981,0.967c1.104,0.191,1.318,0.461,1.32,0.463l-0.007,1.548c0,2.039-0.05,2.57-1.338,3.44
		c-1.773,0.978-3.909,1.774-6.351,2.368c-0.826,0.181-1.642,0.35-2.412,0.511c-4.259,0.885-7.072,1.471-8.24,3.262l-0.04,0.062
		l-0.033,0.065c-0.162,0.323-0.348,0.761-0.348,1.283c0,1.98,2.516,3.261,6.41,3.261c1.08,0,2.152-0.131,3.186-0.39
		c8.835-2.381,13.753-4.88,18.168-9.225c0.06-0.046,0.391-0.188,1.049-0.188c1.57,0,3.033,0.595,3.317,0.949
		c-0.041,0.655-0.621,2.215-3.78,5.617c-2.661,2.798-4.902,4.634-6.839,5.603C496.585,180.791,490.204,182.185,483.316,182.185z"/>
	<path style="fill:#FFFFFF;" d="M530.917,182.534c-1.78-0.062-3.099-0.245-3.873-0.543c-0.228-0.095-0.946-0.534-2.022-2.271
		c-0.764-1.234-1.136-2.751-1.136-4.636c0-2.209,0.51-4.728,1.514-7.486c1.097-2.373,2.424-4.029,3.395-5.241
		c0.868-1.084,1.393-1.738,1.393-2.534c0-1.396-1.469-2.509-5.82-4.412l-1.041-0.455l-0.59,0.971
		c-0.334,0.549-0.684,1.184-1.046,1.843c-0.699,1.27-1.421,2.583-2.145,3.476c-4.444,5.675-9.58,10.585-15.714,15.027
		c-2.487,1.785-4.682,2.692-6.518,2.692c-0.986,0-1.392-0.184-1.498-0.28c-0.366-0.979-0.423-1.445-0.423-1.64
		c0-1.843,1.616-3.57,4.803-5.134c2.599-1.187,5.64-3.964,9.263-8.474c3.489-4.416,5.733-8.477,6.864-12.419
		c0.143-0.364,0.143-0.721,0.143-1.066c0-0.84-0.385-2.228-1.143-4.123c-0.396-1.149-0.96-2.877-1.03-3.943l0.003-0.755
		c0-2.085,0.453-3.945,1.387-5.687c1.201-2.324,2.543-2.324,2.984-2.324c0.097,0.004,0.239,0.031,0.423,0.06l0.347,0.053
		c4.158,1.248,5.561,8.288,5.561,11.329c0,0.311,0,0.662-0.019,0.766l-0.261,0.791l0.624,0.515c2.142,1.994,5.038,3.618,8.854,4.965
		c3.491,1.208,5.854,2.384,7.029,3.498c0.261,0.226,0.364,0.43,0.364,0.667c0,1.444-1.53,3.57-4.959,7.791
		c-2.188,2.641-3.302,5.11-3.302,7.33c0,0.866,0.205,1.666,0.405,2.334c0.346,1.27,1.391,2.046,2.785,2.046
		c0.652,0,1.771-0.191,4.658-1.686c2.435-1.259,3.478-1.395,3.813-1.395c0.229,0,0.488,0.048,0.831,0.39
		c0.341,0.382,0.529,0.968,0.529,1.741c0,1.836-0.948,3.332-2.898,4.574c-3.669,2.424-7.785,3.646-12.253,3.646H530.917z"/>
</g>
<g>
	<path style="fill:#FFFFFF;" d="M32.406,283.035c-2.379,0-5.634-0.782-6.471-7.53v-0.411c0-3.051,1.676-10.012,4.982-20.688
		c3.658-11.571,7.063-21.534,10.406-30.451c4.591-12.242,5.752-14.404,6.037-14.767c0.353-0.272,2.744-1.052,4.997-1.052
		c0.651,0,1.19,0.056,1.749,0.18c1.649,0.398,1.992,1.152,1.992,2.161c0,0.516-0.166,1.608-0.946,3.891
		c-1.541,2.923-4.784,11.756-9.907,26.988c-5.181,15.327-7.699,24.898-7.699,29.257c0,0.168,0.031,0.479,0.057,0.706l0.016,0.142
		v0.108l0.016,0.028c0.248,1.491,1.261,2.347,2.775,2.347c1.165,0,2.757-0.472,5.322-1.576c2.239-1.019,4.999-2.104,8.46-3.329
		c3.411-1.254,6.526-2.056,9.539-2.457c1.643-0.273,2.843-0.409,3.608-0.409c0.73,0,1.035,0.041,1.16,0.081l0.103,0.145l0.157,0.098
		c0.131,0.196,0.297,0.787,0.397,1.146c0.034,0.121,0.068,0.242,0.104,0.361v0.159c0,1.09-0.364,2.468-1.08,4.098
		c-0.722,1.573-1.636,1.92-2.286,2.026c-3.008,0.088-7.552,0.996-13.888,2.775c-6.285,1.786-10.671,3.249-13.411,4.476
		C36.158,282.525,34.061,283.035,32.406,283.035z"/>
	<path style="fill:#FFFFFF;" d="M88.897,277.435c-8.19,0-12.558-2.169-13.353-6.629l-0.016-0.093l-0.03-0.09
		c-0.003-0.054-0.003-0.434-0.003-0.71c0-2.108,1.584-4.669,4.035-6.524c2.197-1.663,4.371-2.938,6.144-3.604l1.083-0.179
		l0.028-1.102c0.009-1.119-0.937-1.292-1.938-1.475c-1.565-0.285-5.723-1.043-7.487-2.204c-2.355-1.392-3.475-3.292-3.475-5.845
		c0-1.512,0.479-2.754,1.465-3.798c2.411-2.611,6.091-4.06,7.702-4.463c0.469-0.1,2.006-0.392,5.214-0.737l5.13-0.633
		c1.357-0.225,3.35-0.364,5.311-0.482c4.162-0.245,8.078-0.79,14.145-2.629c-0.052,0.179-0.1,0.343-0.139,0.474
		c-0.326,1.108-0.781,2.415-1.307,3.929l-0.074,0.212c-0.592,1.703-0.986,2.971-1.201,3.866c-0.385,0.852-0.957,1.288-1.988,1.868
		c-0.268,0.132-1.511,0.398-2.168,0.472l-3.244,0.423c-1.185,0.131-2.314,0.199-3.332,0.199c-0.75,0-1.668-0.043-2.785-0.094
		l-1.009-0.046c-1.61-0.141-2.747-0.211-3.417-0.211c-2.043,0-3.93,0.382-5.457,1.105l-0.111,0.06
		c-0.307,0.185-1.121,0.673-1.121,1.675c0,1.529,1.818,2.09,3.784,2.467c1.872,0.361,4.403,0.72,7.522,1.065
		c2.765,0.308,5.244,0.651,6.981,0.968c1.104,0.191,1.318,0.461,1.32,0.463l-0.007,1.548c0,2.039-0.05,2.57-1.338,3.44
		c-1.773,0.978-3.909,1.774-6.351,2.367c-0.827,0.182-1.643,0.351-2.413,0.512c-4.258,0.886-7.071,1.471-8.24,3.263l-0.039,0.062
		l-0.033,0.065c-0.162,0.323-0.348,0.761-0.348,1.282c0,1.98,2.516,3.261,6.41,3.261c1.08,0,2.151-0.131,3.186-0.39
		c8.836-2.381,13.754-4.88,18.168-9.225c0.061-0.046,0.392-0.188,1.049-0.188c1.57,0,3.033,0.595,3.317,0.949
		c-0.042,0.655-0.621,2.216-3.78,5.617c-2.66,2.798-4.9,4.634-6.839,5.603C102.167,276.041,95.785,277.435,88.897,277.435z"/>
	<path style="fill:#FFFFFF;" d="M130.547,303.688c-2.286,0-4.548-0.811-6.721-2.408c-2.116-1.556-3.692-3.519-4.687-5.835
		c-1.599-3.934-2.414-8.668-2.414-14.05c0-4.524,0.579-9.545,1.721-14.921l-2.283-1.086c-2.186,2.715-4.225,4.78-6.062,6.141
		c-2.476,1.778-4.671,2.686-6.507,2.686c-0.986,0-1.392-0.184-1.498-0.281c-0.367-0.979-0.424-1.445-0.424-1.639
		c0-1.843,1.617-3.57,4.805-5.134c2.26-1.055,4.828-3.245,7.827-6.684c2.837-3.251,5.14-6.745,6.848-10.383l0.457-0.974l-0.87-0.632
		c-2.471-1.79-3.83-4.132-4.156-7.156c-0.008-0.176-0.033-0.427-0.055-0.618l-0.016-0.142c0.002-2.362,1.184-4.059,3.715-5.252
		c0.613,0.316,2.012,2.129,3.025,3.936l0.371,0.664h0.762c1.096,0,1.313-0.976,1.486-1.76l0.131-0.578
		c0.398-1.418,2.241-7.183,5.18-14.063c3.691-8.55,7.588-13.072,11.266-13.072c0.711,0.02,2.69,0.07,2.69,5.49
		c0,3.474-0.759,7.752-2.255,12.717c-0.84,2.798-2.252,6.292-4.199,10.388c-2.516,5.479-3.82,7.034-4.264,7.449l-0.912,0.851
		l0.813,0.946c0.877,1.022,2.447,1.153,3.717,1.153c0.279,0,0.846-0.017,1.43-0.034c0.588-0.018,1.193-0.036,1.51-0.036
		c3.366,0,4.205,1.343,4.537,2.539l0.055,0.358c0.028,0.184,0.055,0.326,0.06,0.431c0,1.725-3.353,1.983-5.351,1.983
		c-0.816,0-1.588,0-1.986-0.058l-2.52-0.361l1.184,2.253c4.222,8.033,6.362,16.074,6.362,23.898c0,5.793-1.298,11.396-3.859,16.652
		C137.296,301.522,134.38,303.688,130.547,303.688z M128.414,261.81c-0.105,1.1-0.292,2.577-0.529,4.449l-0.237,1.884
		c-0.813,5.835-1.13,9.89-1.13,14.442v2.1c0.102,5.588,1.558,8.651,4.1,8.651l0.147-0.002c1.814-0.107,3.287-1.819,4.377-5.088
		c0.974-2.92,1.467-5.884,1.467-8.812v-0.7c-0.075-2.213-0.591-4.782-1.534-7.682c-0.947-2.918-1.895-5.293-2.813-7.06l-3.434-6.524
		L128.414,261.81z"/>
	<path style="fill:#FFFFFF;" d="M160.296,277.784c-1.781-0.062-3.1-0.245-3.874-0.543c-0.228-0.095-0.946-0.534-2.022-2.271
		c-0.736-1.228-1.145-2.784-1.205-4.609l-0.085-2.543l-4.812,3.729c-2.453,1.761-4.647,2.668-6.484,2.668
		c-0.986,0-1.391-0.185-1.498-0.281c-0.366-0.979-0.423-1.444-0.423-1.639c0-1.843,1.616-3.57,4.804-5.134
		c2.217-0.992,4.787-3.462,7.82-7.53c2.983-4.002,5.232-7.822,6.875-11.679c1.896-5.548,3.53-11.005,5.032-16.774l0.265-1.018
		l-0.939-0.472c-0.074-0.037-0.209-0.092-0.406-0.163c-0.223-0.081-0.576-0.208-1.039-0.419l-1.498-0.749
		c-1.369-0.763-2.361-2.627-2.361-4.508c0-0.423,0.075-0.893,0.234-1.479c0.432-1.353,0.918-1.353,1.127-1.353
		c0.162,0,0.322,0.019,0.645,0.248l0.1,0.065c0.996,0.581,2.551,1.182,4.499,1.737l0.738,0.211l0.541-0.545
		c0.278-0.28,0.304-0.361,0.96-2.418l0.266-0.832l1.824-5.892l1.392-4.175c0.577-1.537,1.479-2.98,2.739-4.367
		c1.169-1.285,2.42-1.885,3.938-1.885c0.423,0,0.752,0.071,0.874,0.102l0.076,0.02l0.078,0.01c1.426,0.178,3.063,0.797,3.063,4.03
		c0,1.386-0.362,3.985-2.085,8.497l-3.161,8.181l2.154-0.267c0.65-0.08,2.554-0.381,5.562-0.996
		c1.844-0.444,3.529-0.674,4.921-0.674c1.436,0,2.264,0.229,2.576,0.364l0.058,0.07c0.409,0.498,0.616,1.163,0.616,1.976
		c0,1.918-0.793,3.413-2.496,4.706c-1.019,0.773-3.359,1.695-8.735,1.695c-0.791,0-2.015-0.046-3.056-0.085
		c-0.807-0.03-1.508-0.056-1.845-0.056c-0.175,0-0.468,0.021-0.737,0.043c-0.156,0.013-0.303,0.026-0.386,0.027l-0.94,0.014
		l-0.297,0.898c-0.376,1.201-1.67,4.828-3.551,9.95c-2.203,6.002-3.904,10.97-5.203,15.188c-1.425,4.803-2.087,7.99-2.087,10.044
		c0,0.549,0,2.221,1.191,2.936c0.595,0.396,1.265,0.604,1.999,0.604c1.124,0,2.727-0.573,4.762-1.703
		c1.751-0.906,3.009-1.375,3.703-1.375c0.262,0,0.368,0.041,0.576,0.318l0.073,0.09c0.388,0.431,0.577,1.016,0.577,1.79
		c0,1.837-0.949,3.333-2.899,4.574c-3.669,2.424-7.784,3.646-12.253,3.646H160.296z"/>
	<path style="fill:#FFFFFF;" d="M217.367,259.3c-0.159-0.306-0.391-0.829-0.681-1.698c-0.544-1.633-0.844-3.152-0.844-4.28
		l0.001-0.042l0.069-0.139v-0.309c0-0.199,0.333-0.504,0.581-0.587l0.335-0.112c2.907-0.532,6.636-0.802,11.085-0.802h2.381
		c4.318,0,7.108-0.086,9.027-0.28h1.193c1.664,0,1.676,0.286,1.712,1.136l-0.001,0.155c0,1.347-0.351,2.698-1.042,4.017
		c-0.733,1.4-1.501,1.683-2.015,1.773c-0.674,0.123-1.437,0.19-2.154,0.19c-0.342,0-1.301,0-2.739-0.068l-0.399-0.019
		c-1.31-0.063-2.547-0.123-3.723-0.123C224.16,258.176,219.869,258.575,217.367,259.3z"/>
	<path style="fill:#FFFFFF;" d="M327.106,279.885c-0.928,0-1.776-0.451-2.596-1.38c-0.796-0.902-1.193-1.766-1.214-2.641
		c0,0,0.041-0.268,0.05-0.34c0.31-1.601,1.575-6.062,3.392-11.949c2.216-7.257,3.897-13.777,5.143-19.937l0.314-1.558h-2.639
		c-7.385,0-13.678,0.121-18.198,0.352l-0.934,0.047l-0.252,0.9c-2.751,9.834-6.486,20.036-11.418,31.188
		c-1.447,2.954-2.244,3.457-4.631,3.865l-0.097,0.017l-0.092,0.03c-0.049,0.004-0.378,0.004-0.643,0.004
		c-1.235,0-2.429-0.287-3.452-0.828l-0.285-0.151h-0.252l-0.021-0.007c-5.141-1.669-9.686-4.35-13.509-7.969
		c-3.684-3.486-5.475-7.231-5.475-11.447c0-2.794,0.849-5.473,2.595-8.188c4.017-6.255,13.857-10.463,29.25-12.506l0.893-0.119
		l0.203-0.877c1.451-6.262,2.443-11.827,3.036-17.017l0.008-0.106c0.305-9.714,1.797-11.534,4.82-11.767l0.67,0.004
		c1.84,0,3.951,0.656,3.951,5.771c0,0.519-0.041,1.234-0.09,2.119l-0.049,0.893c-0.049,0.926-0.098,1.576-0.122,1.902
		c-0.005,0.072-0.009,0.133-0.013,0.183l-0.688,3.994l-0.702,4.354l-2.02,9.67l1.711-0.115c5.127-0.346,11.367-0.557,18.547-0.627
		l1.105-0.011l0.167-1.093c1.075-7.054,1.993-14.264,2.808-22.043c0.296-2.896,2.343-4.996,4.868-4.996h0.491
		c2.022,0.235,3.6,2.418,3.6,5.001c0,0.221,0,0.522-0.018,0.618l-0.039,0.118l-0.002,0.07c-1.046,7.802-2.088,14.296-3.278,20.438
		l-0.322,1.661l1.688-0.117c2.172-0.15,3.747-0.372,4.816-0.677c0.399-0.114,0.701-0.161,1.044-0.161
		c1.912,0,2.061,2.596,2.061,3.392c0,1.545-1.944,2.885-3.872,3.526c-0.935,0.287-3.976,0.501-6.179,0.636l-0.973,0.06l-0.216,0.949
		c-1.594,7-4.404,17.441-8.592,31.921C330.133,279.885,327.855,279.885,327.106,279.885z M299.536,243.636
		c-9.838,1.508-16.648,4.361-20.244,8.481c-1.821,2.138-2.701,4.177-2.701,6.245c0,2.638,1.246,4.979,3.704,6.962
		c2.315,1.853,4.465,2.902,6.577,3.215c0.476,0.04,0.811,0.069,1.083,0.094c0.423,0.038,0.72,0.061,0.857,0.061
		c1.69,0,2.641-0.634,3.335-1.097l0.139-0.099c0.411-0.33,0.806-0.932,1.392-1.928l0.069-0.117c0.273-0.384,0.67-1.156,1.315-2.471
		l0.068-0.139l0.057-0.056l0.171-0.351c2.527-7.124,4.315-12.576,5.625-17.159l0.557-1.949L299.536,243.636z"/>
	<path style="fill:#FFFFFF;" d="M389.965,277.715c-0.659,0-1.771-0.047-3.317-0.268c-1.064-0.2-1.652-0.443-1.959-0.622
		l-0.053-0.042c-0.146-0.116-0.348-0.275-0.4-0.338l-0.319-0.481c-0.043-0.092-0.092-0.181-0.143-0.271v-1.721l-3.665,1.69
		c-0.718,0.385-1.289,0.618-1.749,0.806l-0.388,0.16c-0.659,0.293-1.433,0.522-2.317,0.688c-1.458,0.218-2.678,0.327-3.682,0.327
		c-0.82,0-1.599-0.063-2.377-0.192c-1.223-0.175-2.423-0.576-3.596-1.197c-1.602-0.832-2.864-2.012-3.763-3.51
		c-0.807-1.276-1.361-2.619-1.665-4.018l-0.56-2.576l-1.703,2.012c-0.686,0.811-2.005,1.857-3.921,3.112
		c-1.756,1.192-3.511,2.082-5.384,2.73l-0.079,0.027l-0.075,0.038c-0.383,0.19-0.903,0.283-1.591,0.283
		c-0.866,0-1.649-0.161-1.71-2.102c0-1.008,0.576-1.994,1.712-2.958c0.567-0.511,1.063-0.86,1.5-1.168l0.233-0.165
		c0.565-0.405,1.174-0.796,1.86-1.196c0,0,0.816-0.521,0.931-0.593h0.052l0.318-0.201c2.213-1.401,4.341-3.5,6.508-6.414
		c2.063-2.772,3.654-5.235,4.732-7.318c1.196-2.327,2.653-4.391,4.333-6.137c1.765-1.765,3.649-3.225,5.584-4.321
		c1.612-0.896,3.303-1.532,5.015-1.889c0.433-0.071,1.02-0.112,1.695-0.112c1.045,0,1.804,0.074,2.389,0.233
		c0.925,0.219,2.334,0.639,4.051,1.46l0.12,0.058l0.129,0.031c0.018,0.017,0.163,0.1,0.317,0.185
		c0.374,0.205,0.667,0.359,0.942,0.454c0.349,0.169,0.696,0.169,0.873,0.169h0.42c0.524,0,0.976-0.331,1.173-0.503l0.386-0.288
		c0,0,0.24-0.322,0.257-0.347c0.042-0.017,0.084-0.034,0.125-0.053h0.133c0.513,0.079,1.186,0.229,2.003,0.446
		c0.635,0.159,1.168,0.368,1.649,0.644c1.475,0.781,2.214,1.288,2.526,1.521c0.353,0.297,0.703,0.588,1.052,0.995
		c0.326,0.422,0.56,0.839,0.668,1.207v0.397c0,0.457-0.06,0.827-0.176,1.099c-0.288,0.719-0.779,1.676-1.396,2.723
		c-0.256,0.479-0.464,0.861-0.646,1.197c-0.349,0.64-0.601,1.103-0.759,1.471c-1.194,2.529-2.143,5.279-2.801,8.131
		c-0.472,1.954-0.733,3.728-0.733,4.982c0,1.07,0.105,1.845,0.342,2.501c0.373,1.284,1.357,2.02,2.708,2.02h0.297l0.086-0.012
		c1.181-0.158,2.651-0.718,4.767-1.814c2.269-1.26,3.077-1.395,3.321-1.395c0.274,0,0.437,0.065,0.621,0.249
		c0.647,0.648,0.949,1.29,0.949,2.021c0,1.191-0.563,2.334-1.72,3.491c-1.847,1.974-5.401,3.485-10.31,4.401
		c-0.888,0.178-1.94,0.259-3.332,0.259H389.965z M370.013,264.36c0.192,0.879,0.511,1.981,1.263,2.839
		c0.478,0.574,1.218,1.107,2.119,1.518l0.125,0.049c0.387,0.13,0.96,0.207,1.533,0.207c0.449,0,0.814,0,1.176-0.093
		c1.975-0.274,3.81-1.327,5.455-3.131c0.897-0.978,1.399-1.652,1.661-2.045c0.897-1.193,2.32-5.64,2.39-11.206
		c0-1.4-1.252-2.882-2.172-3.376c-0.517-0.348-1.18-0.53-1.929-0.53h-0.491l-0.071,0.008c-0.731,0.08-1.444,0.312-2.12,0.688
		c-0.531,0.238-1.069,0.594-1.683,1.113c-1.045,0.731-1.939,1.581-2.81,2.669c-2.165,2.523-3.624,5.249-4.309,8.065
		c-0.166,0.659-0.247,1.335-0.247,2.058C369.904,263.596,369.904,263.979,370.013,264.36z"/>
	<path style="fill:#FFFFFF;" d="M423.352,278.415c-2.412,0-4.103-0.735-5.167-2.249c-0.11-0.147-0.394-0.625-0.394-1.912
		c0-0.847,0.15-2.423,0.866-5.129c0.355-1.343,0.953-3.709,0.953-4.462c0-0.987-0.463-1.469-0.934-1.67
		c-0.23-0.127-0.493-0.19-0.786-0.19c-1.066,0-2.026,0.942-4.9,3.92l-0.653,0.677c-1.889,2.083-5.498,4.864-8.799,6.21
		c-1.009,0.393-1.935,0.604-2.659,0.604c-0.767,0-1.289-0.284-1.679-0.917c-0.113-0.353-0.241-0.808-0.241-1.144
		c0-1.427,0.925-2.728,2.749-3.867c2.109-1.186,4.391-2.784,6.925-4.857c2.7-2.29,4.501-3.938,5.858-5.359
		c3.352-3.429,7.358-5.855,10.709-6.479l0.089-0.017l0.086-0.029c0.041-0.003,0.315-0.003,0.497-0.003
		c2.984,0,3.837,2.291,4.512,4.844c0.317,1.198,0.645,2.438,1.929,2.438c0.45,0,0.83-0.151,1.129-0.451
		c0.493-0.492,1.197-1.364,2.432-3.009l3.309-4.647l2.091-2.856c1.281-1.707,2.185-2.784,2.836-3.376
		c0.736-0.733,1.776-1.429,3.138-2.109c2.518-1.355,4.524-2.033,5.998-2.033c1.733,0,3.232,0.915,4.455,2.721
		c0.803,1.173,1.369,2.696,1.685,4.531c0.125,1.206,0.191,2.49,0.191,3.84c0,2.481-0.209,5.516-0.621,9.02l-0.317,3.182
		c-0.19,1.891-0.251,2.502-0.251,2.78c0,0.356,0,0.721,0.157,1.063c0.39,1.337,1.431,2.127,2.822,2.127
		c0.613,0,1.158-0.142,1.665-0.434c3.533-1.724,4.853-2.087,5.336-2.087c0.271,0,0.357,0.037,0.36,0.039
		c0.726,0.799,1.07,1.54,1.07,2.302c0,1.657-1.39,3.331-4.13,4.975c-2.863,1.719-5.291,2.623-7.216,2.688l-0.069,0.002l-0.068,0.01
		c-0.4,0.057-1.008,0.057-1.849,0.057c-5.547,0-9.131-2.595-9.131-6.61c0-0.454,0-0.923,0.045-1.147l0.024-0.125v-0.128
		c0.005-0.125,0.075-1.362,0.208-3.563c0.143-2.418,0.212-4.184,0.212-5.398c0-1.603,0-3.26-1.51-3.26
		c-0.534,0-0.843,0.237-1.053,0.443l-0.049,0.049l-6.694,8.175c-3.865,4.813-7.127,8.519-9.702,11.021
		C427.548,277.822,425.758,278.415,423.352,278.415z"/>
	<path style="fill:#FFFFFF;" d="M507.214,277.715c-0.659,0-1.771-0.047-3.316-0.268c-1.063-0.2-1.652-0.443-1.96-0.622l-0.056-0.044
		c-0.145-0.116-0.344-0.274-0.396-0.335l-0.32-0.482c-0.043-0.092-0.091-0.18-0.142-0.269v-1.723l-3.665,1.69
		c-0.716,0.383-1.286,0.616-1.744,0.803l-0.394,0.164c-0.659,0.292-1.434,0.521-2.317,0.688c-1.458,0.218-2.678,0.327-3.681,0.327
		c-0.821,0-1.6-0.063-2.378-0.192c-1.223-0.175-2.422-0.576-3.595-1.197c-1.603-0.833-2.866-2.013-3.764-3.51
		c-0.905-1.394-1.502-2.863-1.799-4.407l-0.418-2.18l-1.697,1.432c-2.195,1.853-3.856,3.169-4.938,3.912
		c-2.514,1.805-4.708,2.712-6.544,2.712c-0.986,0-1.392-0.184-1.498-0.28c-0.366-0.979-0.423-1.445-0.423-1.64
		c0-1.843,1.616-3.57,4.803-5.134c2.003-0.889,4.384-2.805,7.034-5.676c2.536-2.742,4.702-5.756,6.622-9.212
		c1.214-2.358,2.671-4.423,4.352-6.17c1.765-1.765,3.649-3.225,5.584-4.321c1.611-0.895,3.301-1.532,5.014-1.889
		c0.434-0.071,1.021-0.112,1.696-0.112c1.045,0,1.804,0.074,2.388,0.233c0.576,0.13,1.676,0.516,3.211,1.25l0.33,0.144
		c0.458,0.201,0.76,0.333,1.142,0.333c0.778,0,1.439-0.488,1.768-1.306c0.289-0.677,0.508-2.06,0.559-2.398l2.435-9.524l2.099-8.118
		l1.531-5.358c1.149-4.124,1.889-5.97,2.931-8.122c0.979-1.957,2.412-2.837,4.641-2.837c0.388,0,0.863,0.059,1.496,0.185
		c1.337,0.35,3.435,1.621,3.435,3.626c0-0.001-0.001-0.002-0.001-0.002c-0.005,0-0.017,0.063-0.03,0.14
		c-0.027,0.154-0.062,0.349-0.096,0.591c-0.326,1.616-2.811,10.279-7.173,25.445c-4.754,16.525-6.861,24.379-7.237,26.977
		c-0.487,1.765-0.725,3.387-0.725,4.956c0,1.002,0.111,1.747,0.363,2.417c0.331,0.776,0.783,1.329,1.405,1.744l0.066,0.044
		l0.07,0.036c0.374,0.188,0.794,0.279,1.285,0.279c0.436,0,0.854,0,1.223-0.172c1.137-0.36,1.886-0.658,2.229-0.887
		c0.195-0.121,1.075-0.53,1.601-0.774c0.541-0.252,0.836-0.391,1.019-0.483c0.159-0.049,0.339-0.122,0.576-0.219
		c0.435-0.178,1.339-0.546,1.754-0.546h0.173c0.479,0.087,0.61,0.223,0.611,0.225c0.463,0.881,0.694,1.526,0.715,1.981
		c-0.01,0.044-0.139,0.533-0.139,0.533v0.161c0,0.075-0.022,0.255-0.175,0.609l-0.053,0.124l-0.026,0.132
		c-0.003,0.01-0.073,0.303-0.629,1.184c-0.416,0.521-1.094,1.128-2.017,1.805c-1.513,1.03-3.528,1.913-5.954,2.597
		c-0.898,0.298-2.022,0.504-3.012,0.669c-0.911,0.182-1.965,0.263-3.356,0.263H507.214z M486.002,264.08
		c0.191,0.878,0.511,1.98,1.262,2.839c0.478,0.575,1.219,1.108,2.122,1.518l0.061,0.028l0.063,0.021
		c0.389,0.131,0.962,0.208,1.532,0.208c0.456,0,0.826,0,1.193-0.099c2.147-0.34,4.076-1.396,5.582-3.059
		c0.633-0.726,1.594-2.451,2.871-5.147l0.034-0.071l0.024-0.075c0.535-1.607,0.831-3.211,0.905-4.903
		c0.001-0.176,0.018-0.385,0.033-0.594c0.02-0.281,0.038-0.563,0.038-0.724c0-0.963-0.14-1.924-0.394-2.718
		c-0.118-0.532-0.337-1.022-0.637-1.422c-0.438-0.548-0.805-0.879-1.173-1.062c-0.513-0.333-1.165-0.509-1.897-0.509h-0.492
		l-0.072,0.008c-0.73,0.082-1.443,0.313-2.118,0.688c-0.533,0.239-1.071,0.596-1.683,1.114c-1.045,0.73-1.939,1.58-2.81,2.668
		c-2.165,2.523-3.624,5.249-4.309,8.065c-0.168,0.669-0.247,1.325-0.247,2.059C485.893,263.316,485.893,263.698,486.002,264.08z"/>
</g>
</svg>
