<?xml version="1.0" encoding="utf-8"?>
<!-- Generator: Adobe Illustrator 16.0.0, SVG Export Plug-In . SVG Version: 6.00 Build 0)  -->
<!DOCTYPE svg PUBLIC "-//W3C//DTD SVG 1.1//EN" "http://www.w3.org/Graphics/SVG/1.1/DTD/svg11.dtd">
<svg version="1.1" id="Layer_1" xmlns="http://www.w3.org/2000/svg" xmlns:xlink="http://www.w3.org/1999/xlink" x="0px" y="0px"
	 width="1034px" height="400px" viewBox="0 0 1034 400" enable-background="new 0 0 1034 400" xml:space="preserve">
<g>
	<path fill="#FFFFFF" d="M99.025,385.067c-4.587,0-10.515-0.457-17.618-1.357c-6.759-1.071-11.997-4.007-15.529-8.719
		c-3.569-4.758-5.38-10.476-5.38-16.993c0-3.281,0.328-6.094,0.976-8.358c5.577-22.755,13.565-52.524,23.756-88.529
		c9.177-32.78,15.901-58.33,19.989-75.943c4.541-18.18,8.179-38.073,10.563-59.105l1.841-16.139v-2.804
		c0-6.038-3.935-6.939-6.206-6.939c-9.609,0-32.739,14.401-70.583,44.026c-3.625,2.88-7.983,4.338-12.9,4.338
		c-8.055,0-14.206-3.173-18.774-9.699c-3.366-4.563-5.071-9.248-5.071-13.952c0-7.602,2.896-13.407,8.86-17.748
		C37.416,88.23,59.261,73.55,77.911,63.488c20.499-11.039,42.591-18.293,65.665-21.562c4.146-0.673,8.096-1.013,11.766-1.013
		c13.762,0,22.993,6.206,27.729,18.974c1.537,3.85,2.553,9.149,2.553,15.781v2.684c-3,27.575-10.602,66.104-24.629,114.517
		c-13.145,46.226-22.234,80.145-26.781,100.82l2.454,0.654c0.017-0.054,0.104-0.405,0.834-2.061
		c0.627-1.425,1.563-3.672,2.815-6.679c1.262-3.031,2.686-6.261,4.245-9.601c5.209-11.547,11.236-24.122,17.93-37.392
		c5.203-10.179,13.994-26.321,26.129-47.972c10.751-18.781,24.186-39.502,39.928-61.575c15.735-22.071,32.679-43.658,50.358-64.164
		c9.916-10.573,21.733-15.955,35.086-15.955c10.814,0,20.55,3.39,28.937,10.075c8.184,6.504,12.333,14.103,12.333,22.586
		c0,12.478-4.618,32.851-13.728,60.554c-7.706,28.292-15.452,59.017-23.04,91.385c-5.999,33.042-9.246,60.713-9.246,82.31
		c0,11.997,1.375,22.903,3.375,32.418v1.554c0,10.519-3.334,18.571-10.328,24.233c-7.092,5.742-16.37,9.34-27.998,9.34h-1.305
		c-18.675,0-27.753-10.773-27.753-33.242c0-18.889,1.318-37.814,3.918-56.399c2.6-18.598,5.865-34.858,9.705-48.407
		c2.232-7.799,6.533-23.726,12.78-47.372c5.512-18.108,10.055-34.959,13.49-50.053l1.041-4.568l-3.247,3.389
		c-15.718,16.388-30.729,35.771-44.615,57.612c-12.97,20.689-24.268,40.732-33.583,59.58c-8.86,18.729-19.142,38.248-30.568,58.032
		c-12.641,21.769-24.423,39.156-35.021,51.682C130.19,381.228,116.695,385.067,99.025,385.067z"/>
	<path fill="#FFFFFF" d="M439.789,383.7c-43.168,0-67.348-12.482-71.866-37.099l-0.017-0.093l-0.03-0.09
		c-0.064-0.189-0.273-1.122-0.273-5.18c0-6.344,2.047-12.882,6.082-19.434c4.077-6.619,9.445-12.44,15.956-17.341
		c12.298-9.283,23.236-16.064,32.519-19.064h0.11l0.005-0.063c0.032-0.012,0.064-0.033,0.097-0.045l-0.095,0.012l0.297-2.505
		l-4.278-1.03c-19.767-3.619-33.021-7.587-39.461-11.808c-13.141-7.735-19.776-18.996-19.776-33.502
		c0-8.974,2.93-16.623,8.708-22.737c5.584-6.037,12.37-11.19,20.18-15.325c7.847-4.153,14.878-6.996,20.898-8.448
		c5.922-1.229,14.966-2.49,26.841-3.738l25.493-3.256c5.2-0.792,14.246-1.595,26.918-2.39c23.61-1.356,49.88-6.603,78.086-15.597
		c-0.026,1.004-0.527,3.808-2.684,11.376c-0.567,1.813-2.987,9.087-6.989,21.003c-3.207,9.638-5.167,15.974-5.99,19.366
		c-1.938,4.783-6.097,8.908-12.36,12.264c-2.552,1.28-6.889,2.274-12.86,2.938l-16.086,2.057c-7.28,0.787-13.098,1.188-17.267,1.188
		c-2.168,0-8.646-0.23-19.256-0.686c-9.433-0.805-14.947-1.197-16.804-1.197c-9.373,0-17.836,1.71-25.153,5.083l-0.102,0.053
		c-2.051,1.174-3.047,2.438-3.047,3.868c0,3.116,4.533,5.359,14.699,7.272c10.583,1.938,23.09,3.728,37.18,5.32
		c12.78,1.362,24.725,3.028,35.363,4.954c7.118,1.239,10.797,3.746,10.797,7.452v7.706c0,5.986-0.594,10.477-1.62,13.347
		c-0.982,2.737-3.569,5.537-7.618,8.32c-9.41,5.27-20.625,9.48-33.301,12.515c-2.701,0.564-6.162,1.305-10.326,2.219
		c-4.227,0.928-7.408,1.599-9.715,2.051c-2.349,0.458-5.129,1.066-8.256,1.808c-3.139,0.743-5.708,1.445-7.632,2.087
		c-1.907,0.637-3.872,1.4-5.841,2.269c-2.018,0.893-3.708,1.832-5.025,2.793c-1.387,1.009-2.481,2.175-3.255,3.465l-0.049,0.088
		c-0.781,1.569-1.161,2.88-1.161,4.006c0,3.553,2.766,6.383,8.22,8.41c5.036,1.871,11.302,2.82,18.624,2.82
		c4.889,0,9.837-0.591,14.706-1.755c20.829-5.628,38.215-11.884,51.709-18.601c13.545-6.739,26.002-15.709,37.026-26.659
		c1.572-1.577,4.55-2.375,8.854-2.375c5.173,0,10.284,1.03,15.191,3.063c4.529,1.88,6.826,4.093,6.826,6.575
		c0,6.691-6.84,17.433-20.33,31.927c-13.497,14.171-25.51,23.973-35.694,29.12C507.787,376.557,475.088,383.7,439.789,383.7z"/>
	<path fill="#FFFFFF" d="M664.179,387.631c-12.706,0-24.533-1.311-35.153-3.894c-10.575-2.573-19.208-6.021-25.657-10.249
		c-10.595-7.247-17.423-13.376-20.272-18.202c-4.137-6.816-7.077-13.541-8.747-20.001l-0.525-2.033l-1.586,1.377
		c-8.595,7.463-16.438,13.703-23.31,18.547c-13.5,9.596-25.494,14.46-35.652,14.46c-6.46,0-10.546-1.414-12.146-4.204
		c-1.737-4.687-2.618-8.239-2.618-10.561c0-11.48,9.069-21.725,26.956-30.448c10.347-4.801,21.301-13.753,32.537-26.595
		c11.177-12.314,20.329-25.532,27.187-39.268c15.41-34.43,41.897-58.696,78.751-72.174c12.549-4.48,24.764-6.754,36.297-6.754
		c16.825,0,31.07,4.508,42.521,13.398c10.918,8.163,16.863,18.354,17.863,30.303v3.021c0,16.374-8.201,31.444-24.555,44.794
		c-8.258,6.606-18.289,9.961-29.894,9.961c-3.966,0-5.426-0.171-5.972-0.313l-0.123-0.035l-0.134-0.006
		c-2.279-0.098-4.517-1.807-6.655-5.078c-2.24-3.43-3.375-6.409-3.375-8.856c0.023-0.142,0.347-1.363,4.053-6.895
		c2.955-4.721,4.322-7.867,4.322-9.934c0-1.457-0.821-3.475-2.584-6.349c-1.257-1.825-2.51-3.183-3.762-4.094l-0.139-0.102
		l-0.16-0.127c-3.256-1.249-5.7-1.922-7.473-1.922h-1.978l-0.097,0.08c-3.217,0.486-6.182,1.506-8.811,2.967
		c-2.926,1.785-5.441,3.53-7.524,5.18c-7.144,6.439-11.39,10.606-13.044,12.773c-10.646,12.706-17.578,25.836-20.571,38.972
		l-0.016,0.07l-0.008,0.069c-1.034,8.785-1.034,8.9-1.034,9.031c0,0.412,0.152,1.169,0.272,2.313
		c0.136,1.328,0.259,1.843,0.259,2.04v2.207l-0.073,0.117c0.343,1.867,0.581,3.374,0.812,4.522c0.248,1.256,0.896,3.09,2.031,5.604
		c1.13,2.513,2.484,4.676,4.048,6.427c1.536,1.724,3.845,3.695,6.873,5.858c3.052,2.182,6.587,3.946,10.514,5.242
		c3.861,1.275,8.817,2.391,14.733,3.313c5.902,0.921,12.61,1.388,19.938,1.388c11.635,0,25.436-3.429,41.02-10.19
		c19.289-8.386,25.42-10.146,27.168-10.146c3.301,0,5.899,1.641,7.946,5.014c2.255,3.761,3.4,7.79,3.4,11.973
		c0,8.765-4.547,16.757-13.514,23.756c-9.492,7.481-20.069,12.573-31.444,15.137C702.688,384.77,682.21,387.631,664.179,387.631z"/>
	<path fill="#FFFFFF" d="M932.112,385.067c-12.792,0-23.941-2.979-33.138-8.854c-15.235-9.783-27.177-33.545-35.491-70.624
		l-0.791-3.528l-1.637,3.225c-7.749,15.269-14.62,35.979-20.424,61.556c-1.939,4.87-6.457,8.93-13.43,12.387
		c-7.131,3.539-14.325,5.172-21.384,5.172h-0.684c-0.503,0-1.849,0.221-4,0.336c-2.192,0.113-3.512,0.25-4.032,0.25
		c-7.508,0-11.005-3.887-11.005-12.316c0-2.895,0.192-3.758,0.274-4.003l0.045-0.124l0.016-0.136
		c0.333-3.104,2.218-11.076,5.603-23.696l0.987-3.68l-16.02,12.212c-13.461,9.555-25.455,14.414-35.613,14.414
		c-6.459,0-10.545-1.413-12.147-4.2c-1.736-4.683-2.617-8.23-2.617-10.546c0-11.464,9.069-21.694,26.955-30.407
		c13.092-6.118,28.429-20.17,45.566-41.758c17.473-22.146,28.653-43.767,33.233-64.263c1.924-8.963,7.207-29.137,15.707-59.971
		c6.012-21.663,12.226-45.943,18.469-72.164c2.029-9.58,5.335-19.496,9.833-29.504c4.614-10.69,10.538-20.604,17.614-29.702
		c7.222-9.19,14.295-13.742,21.02-13.742h0.684c5.334,0,6.398,0.1,6.598,0.165l0.196,0.008l0.213-0.026
		c3.367,0,4.798,0.709,5.404,1.315l0.108,0.101l0.129,0.077c4.013,2.469,6.047,8.189,6.047,17.006c0,5.142-0.57,11.456-1.694,18.771
		c-2.934,16.465-11.426,44.742-25.234,84.018c-13.28,37.904-21.856,63.792-25.49,76.945l-1.334,4.826l3.514-3.568
		c5.938-6.033,13.453-11.989,22.335-17.702c11.375-7.362,21.567-11.323,30.297-11.774c4.871-0.313,10.494-0.672,10.885-0.682
		c16.568,0,28.863,4.147,36.528,12.326c7.685,8.203,11.582,19.714,11.582,34.212c0,9.639-1.459,18.966-4.336,27.724
		c-2.967,9.023-6.277,15.408-9.84,18.975c-18.763,20.45-37.486,30.8-55.688,30.8c-0.82,0-1.864-0.028-3.104-0.084
		c-1.309-0.057-2.48-0.173-3.489-0.174l-1.538-0.258h-3.14l4.795,10.354l6.391,11.855l0.038,0.078
		c2.378,3.468,5.912,6.587,10.503,9.249c4.622,2.68,9.671,4.044,15.008,4.044c6.241,0,12.959-1.482,19.966-4.413l12.938-6.423
		c8.31-3.916,14.332-5.907,17.879-5.907c2.397,0,4.277,0.715,5.746,2.184c4.396,4.398,6.626,9.265,6.626,14.462
		c0,6.246-2.763,12.479-8.211,18.526c-5.533,6.141-12.265,10.769-20.01,13.757C966.544,380.733,948.32,385.067,932.112,385.067z
		 M937.104,222.714c-6.161,0-13.712,3.042-22.44,9.043c-8.633,5.936-16.161,13.473-22.377,22.401l-4.063,6.426l1.73,0.443
		c5.315,1.363,11.404,2.055,18.097,2.055c11.015,0,20.04-2.097,26.824-6.232c6.99-4.261,10.535-11.129,10.535-20.414
		c0-2.983-0.354-6.232-1.052-9.659l-0.016-0.08l-0.027-0.078C943.436,224.027,941.01,222.714,937.104,222.714z"/>
</g>
</svg>
