<?xml version="1.0" encoding="utf-8"?>
<!-- Generator: Adobe Illustrator 16.0.0, SVG Export Plug-In . SVG Version: 6.00 Build 0)  -->
<!DOCTYPE svg PUBLIC "-//W3C//DTD SVG 1.1//EN" "http://www.w3.org/Graphics/SVG/1.1/DTD/svg11.dtd">
<svg version="1.1" id="Layer_1" xmlns="http://www.w3.org/2000/svg" xmlns:xlink="http://www.w3.org/1999/xlink" x="0px" y="0px"
	 width="1674px" height="400px" viewBox="0 0 1674 400" enable-background="new 0 0 1674 400" xml:space="preserve">
<g>
	<path fill="#FFFFFF" d="M56.872,393.434c-5.05,0-10.99-1.624-17.656-4.828c-4.975-2.574-7.515-10.294-7.515-22.925
		c0-14.51,2.625-30.327,7.803-47.012c3.283-11.226,8.33-25.465,15.007-42.341c8.165-20.665,14.941-36.996,20.143-48.541
		l25.979-58.182l22.73-51.163c7.734-18.035,19.263-27.673,34.272-28.662l1.624,0.003c6.61,0,12.688,2.209,18.065,6.564
		c5.368,4.352,7.979,9.102,7.979,14.523c0,1.979-0.187,2.452-0.207,2.5l-0.055,0.122l-0.051,0.178
		c-2.813,12.937-14.217,39.044-33.895,77.267L150.12,193h5.721c11.72,0,24.575-2.666,38.21-7.594
		c14.187-5.535,26.265-14.256,35.93-25.764c12.45-14.87,18.762-29.913,18.762-44.628c0-14.234-7.188-25.335-21.363-32.954
		c-15.154-8.266-38.076-12.469-68.12-12.469c-35.503,0-63.151,7.504-82.176,22.314c-12.279,9.699-18.245,18.305-18.245,26.316
		c0,8.259,7.746,15.965,23.681,23.561c4.415,2.168,6.568,5.084,6.568,8.908c0,3.806-1.29,7.1-3.942,10.07l-0.062,0.068l-0.051,0.076
		c-3.651,5.476-8.999,8.138-16.35,8.138c-3.055,0-8.079-0.896-14.937-2.662c-9.948-4.704-18.904-10.32-26.618-16.693
		c-5.083-4.312-9.265-9.475-12.414-15.336c-3.13-5.817-4.717-11.992-4.717-18.354c0-12.034,5.7-24.685,16.941-37.599
		c12.224-14.69,31.925-26.804,58.575-36.026c27.203-9.706,55.058-14.626,82.803-14.626c16.726,0,32.146,1.995,45.834,5.931
		c7.44,2.035,14.76,4.52,21.771,7.389c6.993,2.859,14.528,6.766,22.396,11.61c7.835,4.826,14.753,10.197,20.563,15.965
		c5.771,5.735,10.614,12.769,14.395,20.902c3.767,8.111,5.734,16.902,5.847,26.128c0,0.263-0.043,0.935-0.247,2.557
		c-0.213,1.714-0.256,2.342-0.262,2.64c-2.457,20.354-9.753,37.896-21.686,52.142c-11.998,14.324-29.14,27.446-50.947,39.004
		c-27.881,14.92-57.515,22.484-88.083,22.484c-0.392,0-1.41-0.107-4.032-0.247c-2.305-0.12-3.538-0.251-4-0.251h-0.822l-0.353,0.821
		c-23.746,50.097-39.42,94.032-46.585,130.508C78.246,384.211,69.992,393.434,56.872,393.434z"/>
	<path fill="#FFFFFF" d="M409.967,390c-9.567,0-16.734-1.264-21.255-2.928c-3.555-1.475-7.779-6.009-12.507-13.547
		c-4.29-6.874-6.467-15.659-6.467-26.154c0-11.853,2.649-25.07,7.876-39.309c2.629-5.962,5.943-11.765,9.821-17.182
		c3.907-5.463,7.105-9.715,9.508-12.646c3.486-4.256,3.934-5.958,3.934-6.968c0-2.695-2.921-7.09-25.702-17.224l-1.048-0.466
		l-0.593,0.981c-0.369,0.611-2.759,4.803-6.729,11.802c-4.076,7.184-7.326,12.292-9.659,15.185
		c-22.13,28.358-48.854,53.952-79.439,76.089c-13.472,9.577-25.447,14.437-35.587,14.437c-6.45,0-10.529-1.414-12.127-4.203
		c-1.734-4.684-2.613-8.236-2.613-10.562c0-11.48,9.039-21.725,26.866-30.448c12.362-5.614,27.31-19.343,44.396-40.789
		c16.692-21.153,27.879-41.532,33.253-60.574c0.396-0.861,0.588-2.018,0.588-3.529c0-3.26-1.762-9.331-5.388-18.559
		c-3.458-10.021-5.333-17.191-5.552-21.259l0.002-4.197c0-11.215,2.542-21.566,7.554-30.767
		c5.067-9.651,11.475-14.335,19.596-14.335c0.179,0.005,1.089,0.098,5.071,0.659c5.541,1.525,10.54,4.772,14.86,9.651
		c4.405,4.975,7.826,10.692,10.167,16.993c2.37,6.38,4.145,12.623,5.273,18.554c1.128,5.921,1.7,11.407,1.7,16.305
		c0,4.074-0.211,5.024-0.275,5.219l-0.259,0.777l0.59,0.569c9.527,9.18,23.307,17.139,40.955,23.656
		c18.646,6.295,31.446,12.573,38.078,18.675c2.453,2.071,3.626,4.368,3.626,7.06c0,4.156-1.911,9.199-5.681,14.987
		c-3.876,5.951-10.974,15.092-21.095,27.169c-10.469,12.349-15.778,23.537-15.778,33.25c0,2.972,0.611,6.438,1.818,10.3
		c0.735,2.876,2.938,6.381,9.153,6.381c4.08,0,11.057-2.563,21.331-7.834c9.757-5.008,17.12-7.547,21.885-7.547
		c2.924,0,5.533,1.164,7.977,3.56c2.848,3.106,4.315,7.296,4.315,12.401c0,11.063-5.72,20.213-17,27.381
		C456.437,383.68,434.888,390,411.334,390H409.967z"/>
	<path fill="#FFFFFF" d="M554.416,389.161c-7.804,0-15.943-1.037-24.195-3.081c-13.661-3.926-25.272-12.846-34.466-26.498
		c-9.001-13.348-13.565-30.068-13.565-49.699c0-16.683,3.579-33.438,10.639-49.8c9.987-23.962,23.729-42.53,40.853-55.203
		c17.094-12.985,35.02-19.564,53.292-19.564c18.34,0,34.425,6.828,47.808,20.295c13.174,13.264,20.53,32.414,21.862,56.918
		l-0.002,3.348c0,19.434-4.431,39.149-13.168,58.598c-8.719,18.961-21.131,34.606-36.886,46.492
		C590.88,383.042,573.33,389.161,554.416,389.161z M544.829,279.442c-4.734,8.76-7.134,19.227-7.134,31.113
		c0,13.453,5.03,21.897,14.951,25.099l0.127,0.041l0.132,0.014c6.243,0.681,6.499,0.681,6.651,0.681
		c14.143,0,25.533-7.4,33.855-21.997c8.522-14.347,12.85-29.27,12.85-44.335c0-5.39-0.774-10.287-2.303-14.557l-0.038-0.096
		c-3.643-8.09-9.115-12.191-16.265-12.191c-7.741,0-16.406,4.648-25.755,13.817C552.83,265.586,547.081,273.132,544.829,279.442z"/>
	<path fill="#FFFFFF" d="M856.703,390c-5.106,0-10.94-0.535-17.338-1.436c-5.088-0.867-9.1-2.27-11.89-4.086
		c-3.01-2.443-3.546-3.029-3.639-3.145l-1.913-2.89c-0.107-0.303-0.4-0.745-0.813-1.522c-0.324-0.607-0.611-0.916-0.611-1.056
		v-1.832l-10.996,5.141c-1.295,0.705-4.84,2.3-10.687,4.777c-3.903,1.787-8.146,3.079-12.681,3.855
		c-7.621,1.123-14.159,1.695-19.424,1.695c-4.229,0-8.467-0.341-12.604-1.012c-6.235-0.893-12.823-3.097-19.61-6.556
		c-8.732-4.653-15.752-11.238-20.842-19.562c-4.806-7.279-8.018-15.243-9.572-23.708l-0.406-2.217l-1.715,1.462
		c-11.539,9.839-20.019,16.698-25.203,20.387c-13.505,9.822-25.495,14.799-35.647,14.799c-6.46,0-10.546-1.415-12.146-4.204
		c-1.737-4.687-2.618-8.239-2.618-10.561c0-11.48,9.069-21.725,26.956-30.448c9.654-4.428,20.949-13.684,33.545-27.497
		c12.315-13.411,23.244-28.831,32.481-45.828c6.188-12.024,13.761-22.692,22.521-31.734c9.089-9.029,18.887-16.56,29.104-22.364
		c8.604-4.889,17.558-8.269,26.61-10.047c2.614-0.432,5.82-0.654,9.49-0.654c5.102,0,9.59,0.5,13.342,1.485
		c4.151,0.896,9.802,3.09,16.849,6.535c3.91,1.691,4.703,1.83,5.186,1.83c1.182,0,2.824-0.584,3.941-3.368
		c1.063-2.465,1.928-6.054,2.633-10.94l30.534-115.484c4.773-17.02,9.843-30.965,15.063-41.43
		c5.608-11.473,14.515-17.046,27.23-17.046c2.228,0,5.006,0.337,8.257,1.002c5.138,1.401,10.01,4.21,14.399,8.329
		c4.333,4.063,6.439,8.938,6.439,14.899c0,0.217-0.008,0.514-0.023,0.892l-0.066,1.714c-0.029,0.737-0.059,1.389-0.087,1.956
		c-0.292,5.466-11.582,48.469-33.556,127.813c-23.137,78.261-35.672,123.522-37.254,134.514c-2.284,8.312-3.442,16.234-3.442,23.548
		c0,4.397,0.476,7.774,1.453,10.322c1.145,2.657,2.776,4.679,4.87,6.057l0.059,0.038l0.063,0.032
		c1.064,0.547,2.436,0.824,4.076,0.824c2.404,0,3.35-0.136,3.884-0.435c7.27-2.183,9.228-3.127,10.067-3.648
		c0.271-0.186,1.342-0.775,7.026-3.319c4.996-2.237,6.419-2.948,6.922-3.264l5.34-1.733c3.438-1.354,6.031-1.882,7.752-1.882h1.235
		c3.799,0,6.186,1.787,7.095,3.847c2.712,5.139,4.066,9.066,4.066,11.902c0,0-0.002,0.04-0.071,0.206
		c-0.134,0.328-0.258,0.704-0.392,1.226c-0.102,0.401-0.237,0.743-0.339,1.042l-0.105,0.196v0.216c0,1.421-0.387,3.154-1.219,5.153
		l-0.028,0.111l-0.017,0.117c-0.213,0.997-1.053,3.182-3.865,7.934c-2.293,2.961-6.064,6.431-11.22,10.314
		c-7.82,5.46-18.288,10.124-31.077,13.836c-3.563,1.125-8.746,2.341-15.434,3.47c-4.564,0.898-10.462,1.43-17.566,1.43H856.703z
		 M755.973,315.728c1.067,5.237,2.827,9.309,5.23,12.101c2.158,2.549,5.128,4.7,8.819,6.386l0.061,0.027l0.063,0.021
		c1.514,0.512,3.494,0.76,6.056,0.76c3.021,0,4.166-0.204,4.736-0.376c9.793-1.448,18.3-6.151,25.286-13.979
		c2.859-3.394,7.279-11.512,13.537-24.845l0.035-0.076l0.025-0.079c2.417-7.53,3.817-15.344,4.163-23.223
		c0.001-0.308,0.023-1.043,0.169-3.149c0.12-1.78,0.174-2.79,0.174-3.273c0-4.663-0.588-8.823-1.747-12.368
		c-0.383-1.987-1.146-3.759-2.27-5.268c-1.835-2.216-3.205-3.238-4.321-3.738c-1.699-1.25-4.045-1.648-6.976-1.648h-2.127
		l-0.075-0.227c-3.104,0.363-6.07,1.221-8.814,2.781c-2.134,0.972-4.672,2.64-7.544,5.075c-4.515,3.055-8.961,7.289-13.219,12.646
		c-10.659,12.637-17.593,25.661-20.587,38.71c-0.7,2.834-1.058,5.897-1.058,9.099C755.591,314.07,755.801,315.172,755.973,315.728z"
		/>
	<path fill="#FFFFFF" d="M1118.849,391.212c-7.321,0-13.436-0.76-18.174-2.257c-1.377-0.596-2.548-1.452-3.482-2.546
		c-1.204-1.406-1.645-2.281-1.802-2.768c-0.267-0.815-0.511-1.838-0.727-3.042c-0.52-2.231-0.972-3.057-1.804-3.338l-0.202-0.068
		l-0.274-0.01c-0.689,0-1.419,0.373-3.497,2.407c-8.533,7.236-22.164,10.938-40.446,10.938c-16.18,0-30.883-4.406-43.701-13.096
		c-12.339-8.908-19.46-22.634-21.134-40.777c-0.005-0.443,0.056-1.131-0.061-2.153c-0.142-1.21-0.045-1.725-0.045-1.925v-3.06
		l-2.32,2.124c-8.93,8.608-20.166,18.18-33.283,28.446c-13.467,9.985-25.482,15.06-35.63,15.06c-6.46,0-10.561-1.415-12.162-4.205
		c-1.736-4.686-2.624-8.238-2.624-10.56c0-11.48,9.065-21.725,26.952-30.448c12.41-5.738,27.403-19.759,44.543-41.66
		c16.643-21.469,27.618-42.155,33.046-61.499l0.479-0.466v-1.286l2.227-12.861c4.559-13.636,12.772-21.413,24.891-23.772
		c2.692-0.685,5.453-1.023,8.178-1.023c11.086,0,17.973,4.145,20.998,12.669c1.098,4.269,1.668,7.483,1.668,9.554
		c0,3.002-0.727,7.225-2.171,12.553c-0.682,2.895-2.657,10.324-5.892,22.124c-3.244,11.834-5.688,20.987-7.268,27.205
		c-4.449,17.445-6.704,31.681-6.704,42.311c0,13.642,5.267,20.558,15.655,20.558c8.555,0,15.154-0.885,19.615-2.631l0.111-0.05
		c0.916-0.462,2.408-1.25,4.473-2.357c2.164-1.161,3.829-2.354,4.947-3.546c1.126-1.196,2.151-2.794,3.135-4.884
		c0.521-0.997,1.31-2.344,2.317-3.955c1.062-1.693,1.757-2.898,2.126-3.682c0.352-0.749,0.814-1.915,1.412-3.565
		c0.582-1.612,1.225-3.663,1.909-6.097l3.063-9.597l5.686-22.736c1.177-2.931,3.236-11.164,6.291-25.158
		c10.47-41.859,16.646-53.861,20.012-56.459c3.788-1.27,7.954-1.914,12.385-1.914c7.8,0,14.693,1.913,20.49,5.687
		c5.751,3.741,8.916,8.717,9.675,15.21l0.016,0.133l0.041,0.126c0.104,0.311,0.276,1.182,0.276,3.521
		c0,5.655-4.12,21.854-12.247,48.148c-7.731,25.522-13.19,48.603-16.374,68.606l0.059,0.102v4.169c0,8.819,4.443,10.67,8.232,10.67
		c4.135,0,11.38-3.084,22.225-9.429c10.125-3.723,17.796-5.61,22.837-5.61c3.244,0,5.747,1.23,7.673,3.76
		c3.094,4.705,4.686,9.18,4.686,13.227c0,9.152-7.67,18.444-22.789,27.618c-9.297,5.5-20.25,9.851-32.542,12.925
		C1141.498,389.65,1129.73,391.212,1118.849,391.212z"/>
	<path fill="#FFFFFF" d="M1330.084,392.408c-12.706,0-24.533-1.311-35.153-3.894c-10.575-2.573-19.208-6.021-25.657-10.249
		c-10.595-7.247-17.423-13.376-20.272-18.202c-4.137-6.816-7.077-13.541-8.747-20.001l-0.525-2.033l-1.586,1.377
		c-8.595,7.463-16.438,13.703-23.31,18.547c-13.5,9.596-25.494,14.46-35.652,14.46c-6.46,0-10.546-1.414-12.146-4.204
		c-1.737-4.687-2.618-8.239-2.618-10.561c0-11.48,9.069-21.725,26.956-30.448c10.347-4.801,21.301-13.753,32.537-26.595
		c11.177-12.314,20.329-25.532,27.187-39.268c15.41-34.43,41.897-58.696,78.751-72.174c12.549-4.48,24.764-6.754,36.297-6.754
		c16.825,0,31.057,4.508,42.507,13.398c10.918,8.163,16.85,18.354,17.85,30.303v3.021c0,16.374-8.188,31.444-24.54,44.794
		c-8.259,6.606-18.282,9.961-29.888,9.961c-3.965,0-5.422-0.171-5.968-0.313l-0.122-0.035l-0.132-0.006
		c-2.279-0.098-4.517-1.807-6.655-5.078c-2.24-3.43-3.375-6.409-3.375-8.856c0.024-0.142,0.348-1.363,4.054-6.895
		c2.955-4.721,4.321-7.867,4.321-9.934c0-1.457-0.82-3.475-2.583-6.349c-1.257-1.825-2.51-3.183-3.762-4.094l-0.139-0.102
		l-0.16-0.216c-3.256-1.249-5.7-2.011-7.473-2.011h-1.978l-0.097,0.169c-3.217,0.486-6.182,1.55-8.811,3.011
		c-2.926,1.786-5.441,3.553-7.524,5.203c-7.144,6.439-11.39,10.616-13.044,12.783c-10.646,12.706-17.578,25.842-20.571,38.978
		l-0.016,0.073l-0.008,0.07c-1.034,8.785-1.034,8.901-1.034,9.033c0,0.412,0.138,1.168,0.259,2.313
		c0.135,1.328,0.244,1.844,0.244,2.041v2.207l-0.059,0.117c0.342,1.867,0.587,3.374,0.817,4.522c0.248,1.256,0.901,3.09,2.036,5.604
		c1.129,2.513,2.485,4.676,4.049,6.427c1.536,1.724,3.846,3.695,6.874,5.858c3.052,2.182,6.587,3.946,10.515,5.242
		c3.861,1.275,8.816,2.391,14.732,3.313c5.902,0.921,12.611,1.388,19.938,1.388c11.635,0,25.437-3.429,41.021-10.19
		c19.288-8.386,25.42-10.146,27.168-10.146c3.301,0,5.899,1.641,7.946,5.014c2.255,3.761,3.4,7.79,3.4,11.973
		c0,8.765-4.547,16.757-13.514,23.756c-9.492,7.481-20.069,12.573-31.444,15.137
		C1368.593,389.547,1348.115,392.408,1330.084,392.408z"/>
	<path fill="#FFFFFF" d="M1499.786,390c-9.571,0-16.738-1.25-21.258-2.904c-3.675-1.469-7.952-5.965-12.678-13.44
		c-4.18-6.817-6.474-15.435-6.807-25.643l-0.083-2.544l-16.029,12.517c-13.449,9.558-25.443,14.425-35.602,14.425
		c-6.46,0-10.546-1.414-12.146-4.203c-1.737-4.686-2.618-8.238-2.618-10.56c0-11.48,9.069-21.724,26.956-30.448
		c10.373-4.723,22.904-16.876,37.216-36.108c14.575-19.586,25.896-38.824,33.65-57.18c9.563-28.22,17.967-56.193,25.012-83.234
		l0.19-0.731l-0.541-0.527c-0.305-0.298-0.76-0.501-1.678-0.751c-0.58-0.159-1.388-0.456-2.397-0.883
		c-1.077-0.451-2.175-0.902-3.3-1.354l-7.638-3.903c-4.386-2.459-7.979-6.251-10.638-11.245c-2.678-5.021-4.035-10.394-4.035-15.967
		c0-2.39,0.446-5.328,1.326-8.732c2.205-7.028,5.712-10.476,10.704-10.476c2.136,0,4.185,0.706,6.262,2.158l0.105,0.066
		c5.301,2.999,12.415,5.742,21.144,8.153l0.729,0.202l0.535-0.536c0.364-0.363,0.74-0.74,4.937-14.204l9.059-29.398l6.998-20.992
		c2.992-8.198,7.965-16.161,14.767-23.633c6.773-7.429,14.73-11.196,23.648-11.196c2.041,0,3.948,0.217,5.667,0.646l0.077,0.019
		l0.079,0.01c13.261,1.631,19.708,9.93,19.708,25.37c0,10.729-3.594,25.64-10.683,44.314l-12.755,32.799l2.178-0.287
		c6.009-0.792,15.236-2.407,27.424-4.799c9.931-2.369,18.569-3.564,25.727-3.564c3.766,0,7.103,0.279,9.918,0.83
		c2.758,0.542,4.537,1.125,5.6,1.733c0.801,0.457,0.983,0.755,0.983,0.856v0.338l0.428,0.351c2.882,3.737,4.422,8.186,4.422,13.22
		c0,11.026-4.848,20.338-14.486,27.677c-8.273,6.287-24.031,9.476-46.874,9.476c-2.637,0-7.125-0.115-13.359-0.341
		c-6.523-0.234-10.036-0.343-11.064-0.343c-0.479,0-1.433-0.13-3.001-0.011c-1.941,0.15-2.487-0.02-2.634-0.02h-0.972l-0.275,1.117
		c-1.464,4.953-7.435,21.866-17.747,50.089c-11.688,31.998-20.436,57.481-25.999,75.649c-6.729,22.578-10.14,38.997-10.14,48.768
		c0,5.433,1.095,8.768,3.347,10.173c2.225,1.483,4.71,2.253,7.353,2.253c4.942,0,11.915-2.567,21.316-7.854
		c6.224-3.222,11.37-5.399,15.255-6.456c2.488-0.676,4.566-1.018,6.177-1.018c0.783,0,1.457,0.082,2.003,0.242
		c1.66,0.49,3.221,1.662,4.639,3.482c2.785,3.114,4.169,7.308,4.169,12.531c0,11.091-5.66,20.172-16.822,27.174
		c-18.975,12.576-40.525,18.85-64.08,18.85H1499.786z"/>
</g>
</svg>
