<?xml version="1.0" encoding="utf-8"?>
<!-- Generator: Adobe Illustrator 16.0.0, SVG Export Plug-In . SVG Version: 6.00 Build 0)  -->
<!DOCTYPE svg PUBLIC "-//W3C//DTD SVG 1.1//EN" "http://www.w3.org/Graphics/SVG/1.1/DTD/svg11.dtd">
<svg version="1.1" id="Layer_1" xmlns="http://www.w3.org/2000/svg" xmlns:xlink="http://www.w3.org/1999/xlink" x="0px" y="0px"
	 width="1128px" height="400px" viewBox="0 0 1128 400" enable-background="new 0 0 1128 400" xml:space="preserve">
<g>
	<path fill="#FFFFFF" d="M116.242,383.551c-8.295,0-16.459-3.457-24.267-10.275c-4.663-4.33-8.768-9.085-12.17-14.105
		c-3.422-5.047-6.016-9.183-7.457-12.293c-1.43-3.075-2.793-6.99-4.793-11.642v-4.73c0-19.968,8.508-62.465,25.037-126.31
		c16.924-65.279,25.33-99.014,25.567-103.133l0.034-1.441c0-6.336-3.583-7.281-5.728-7.281c-3.499,0-8.21,2.146-14.418,6.563
		c-3.779,2.403-12.313,9.028-26.04,20.218c-18.729,15.676-23.606,19.705-24.286,20.227l-0.029,0.015l-0.106,0.086
		c-3.619,2.874-7.946,4.332-12.863,4.332c-7.824,0-14.014-3.169-18.92-9.688c-2.8-4.542-4.219-9.354-4.219-14.306
		c0-7.503,2.685-13.202,8.206-17.425C44.233,83.467,66.08,68.786,84.73,58.725c20.5-11.038,42.606-18.293,65.703-21.562l0.115-0.017
		l0.111-0.036c0.195-0.065,1.149-0.276,5.23-0.276c8.535,0,16.48,2.949,23.617,8.766c7.53,5.894,11.503,12.983,11.827,21.09
		l0.021,0.503l0.25,0.254c0.025,0.108,0.07,0.371,0.07,0.9c0,13.243-9.87,51.291-29.335,113.086
		c-19.687,63.551-29.874,98.268-31.146,106.141l-0.559,3.458l2.679-2.257c11.028-9.286,35.824-45.221,75.806-109.856
		c38.826-62.325,62.383-104.67,70.015-125.854c2.678-6.148,7.193-11.361,13.391-15.417c6.2-4.055,12.749-6.111,19.465-6.111
		c8.604,0,15.321,3.034,20.535,9.275c5.546,6.249,8.345,13.031,8.345,20.187c0,7.46-2.842,15.736-8.445,24.599
		c-17.935,32.284-35.327,62.516-51.729,89.919c-22.429,37.756-47.934,77.869-75.81,119.229
		c-29.736,44.207-51.068,70.943-63.406,79.467C132.946,380.414,124.463,383.551,116.242,383.551z"/>
	<path fill="#FFFFFF" d="M434.688,378.253c-11.792,0-23.255-3.218-34.071-9.563c-11.095-6.092-16.473-16.173-16.473-30.837
		c0-0.371,0.029-1.127,0.166-2.615l0.17-1.699c1.648-16.8,5.301-29.597,10.857-38.037l-2.079-1.554
		c-14.674,17.384-35.238,35.711-61.122,54.474c-13.485,9.586-25.479,14.45-35.639,14.45c-6.46,0-10.546-1.414-12.146-4.204
		c-1.737-4.687-2.618-8.239-2.618-10.561c0-11.48,9.069-21.725,26.956-30.448c13.164-6.065,32.618-22.606,57.795-49.15
		c25.528-27.013,41.155-48.62,46.449-64.222c1.382-4.227,3.943-8.128,7.617-11.608c3.71-3.511,7.337-5.949,10.778-7.246l4.722-2.035
		c14.038-3.697,23.266-5.572,27.429-5.572c4.562,0,8.732,0.557,12.396,1.654l0.097,0.025c4.07,0.885,6.05,4.383,6.05,10.692
		c0,0.504-0.117,1.919-0.676,5.796c-2.493,11.427-8.688,30.572-18.398,56.814c-8.85,23.559-14.738,45.68-17.259,65.743l-0.133,0.081
		v0.081c0,11.95,5.512,14.459,10.032,14.459c3.825,0,10.019-2.344,18.807-7.167c9.679-5.684,17.675-8.556,23.737-8.556
		c7.168,0,11.639,4.473,13.637,13.674l0.044,0.167l0.083,0.151c0.018,0.042,0.213,0.539,0.213,2.652
		c0,6.536-3.93,13.398-11.683,20.397c-8.003,6.903-16.3,11.882-24.642,14.775C458.251,375.229,444.422,378.253,434.688,378.253z
		 M482.633,151.568c-8.623,0-16.095-4.419-22.478-12.702c-6.461-8.383-9.6-17.995-9.6-28.137v-3.418
		c0-5.695,2.877-10.157,7.76-13.544c4.932-3.418,11.173-5.151,18.689-5.151c4.225,0,8.595,0.672,13.057,1.997l0.08,0.029
		l0.094,0.014c3.025,0.4,5.436,2.463,7.375,6.304c2.027,4.016,3.052,9.328,3.052,15.356c0,14.892-5.552,28.252-16.498,39.252
		H482.633z"/>
	<path fill="#FFFFFF" d="M697.476,380.568c-5.106,0-10.94-0.59-17.338-1.49c-5.088-0.867-9.1-2.297-11.89-4.113
		c-3.01-2.443-3.546-3.043-3.639-3.158l-1.913-2.896c-0.107-0.303-0.258-0.748-0.67-1.525c-0.326-0.607-0.471-0.92-0.471-1.06
		v-1.832l-11.137,5.141c-1.297,0.705-4.911,2.3-10.758,4.777c-3.903,1.787-8.181,3.079-12.716,3.855
		c-7.621,1.123-14.178,1.695-19.442,1.695c-4.229,0-8.476-0.341-12.613-1.012c-6.235-0.893-12.827-3.097-19.615-6.556
		c-8.732-4.653-15.754-11.238-20.844-19.562c-4.806-7.279-8.018-15.243-9.572-23.708l-0.408-2.217l-1.715,1.462
		c-11.539,9.839-20.019,16.698-25.203,20.387c-13.505,9.822-25.495,14.799-35.647,14.799c-6.46,0-10.546-1.415-12.146-4.204
		c-1.737-4.687-2.618-8.239-2.618-10.561c0-11.48,9.069-21.725,26.956-30.448c9.654-4.428,20.949-13.684,33.545-27.497
		c12.315-13.411,23.244-28.831,32.481-45.828c6.188-12.024,13.761-22.692,22.521-31.734c9.089-9.029,18.887-16.56,29.104-22.364
		c8.604-4.889,17.558-8.269,26.61-10.047c2.614-0.432,5.82-0.654,9.49-0.654c5.102,0,9.59,0.5,13.342,1.485
		c4.151,0.896,9.802,3.09,16.849,6.535c3.91,1.691,4.703,1.83,5.186,1.83c1.182,0,2.824-0.584,3.941-3.368
		c1.063-2.465,1.928-6.054,2.633-10.94l30.534-115.484c4.773-17.02,9.843-30.965,15.063-41.43
		C740.982,7.373,749.889,1.8,762.604,1.8c2.228,0,5.006,0.337,8.257,1.002c5.138,1.401,10.01,4.21,14.399,8.329
		c4.333,4.063,6.439,8.938,6.439,14.899c0,0.217-0.008,0.514-0.023,0.892l-0.066,1.714c-0.029,0.737-0.059,1.389-0.087,1.956
		c-0.292,5.466-11.582,48.469-33.556,127.813c-23.137,78.261-35.672,123.522-37.254,134.514c-2.284,8.312-3.442,16.234-3.442,23.548
		c0,4.397,0.476,7.774,1.453,10.322c1.145,2.657,2.776,4.679,4.87,6.057l0.059,0.038l0.063,0.032
		c1.064,0.547,2.436,0.824,4.076,0.824c2.404,0,3.35-0.136,3.884-0.435c7.27-2.183,9.228-3.127,10.067-3.648
		c0.271-0.186,1.342-0.775,7.026-3.319c4.996-2.237,6.419-2.948,6.922-3.264l5.34-1.679c3.438-1.354,6.031-1.827,7.752-1.827h1.235
		c3.799,0,6.186,1.732,7.095,3.792c2.712,5.139,4.066,9.039,4.066,11.875c0,0-0.002,0.026-0.071,0.192
		c-0.134,0.328-0.258,0.697-0.392,1.219c-0.102,0.401-0.095,0.739-0.196,1.039l0.035,0.192v0.216c0,1.421-0.527,3.154-1.361,5.153
		l-0.099,0.111l-0.052,0.117c-0.213,0.997-1.07,3.182-3.883,7.934c-2.293,2.961-6.073,6.431-11.229,10.314
		c-7.82,5.46-18.293,10.124-31.082,13.836c-3.563,1.125-8.747,2.396-15.436,3.524c-4.563,0.898-10.464,1.484-17.568,1.484H697.476z
		 M596.745,306.187c1.067,5.237,2.827,9.309,5.23,12.101c2.158,2.549,5.128,4.7,8.819,6.386l0.061,0.027l0.063,0.021
		c1.514,0.512,3.494,0.76,6.056,0.76c3.021,0,4.166-0.204,4.736-0.376c9.793-1.448,18.3-6.151,25.286-13.979
		c2.859-3.394,7.279-11.512,13.537-24.845l0.035-0.076l0.025-0.079c2.417-7.53,3.817-15.344,4.163-23.223
		c0.001-0.308,0.023-1.043,0.169-3.149c0.12-1.78,0.174-2.79,0.174-3.273c0-4.663-0.588-8.823-1.747-12.368
		c-0.383-1.987-1.146-3.759-2.27-5.268c-1.835-2.216-3.205-3.684-4.321-4.184c-1.699-1.25-4.045-2.094-6.976-2.094h-2.127
		l-0.075,0.219c-3.104,0.363-6.07,1.443-8.814,3.004c-2.134,0.972-4.672,2.751-7.544,5.187c-4.515,3.055-8.961,7.345-13.219,12.701
		c-10.659,12.637-17.593,25.688-20.587,38.737c-0.7,2.834-1.058,5.911-1.058,9.112C596.363,304.515,596.573,305.631,596.745,306.187
		z"/>
	<path fill="#FFFFFF" d="M855.891,378.937c-43.168,0-67.348-12.482-71.866-37.099l-0.017-0.093l-0.03-0.09
		c-0.064-0.189-0.273-1.122-0.273-5.18c0-6.344,2.047-12.882,6.082-19.434c4.077-6.619,9.445-12.474,15.956-17.374
		c12.298-9.283,23.236-16.1,32.519-19.1h0.11l0.005-0.027c0.032-0.012,0.064-0.017,0.097-0.028l-0.095,0.021l0.297-2.502
		l-4.278-1.027c-19.767-3.619-33.021-7.586-39.461-11.807c-13.141-7.736-19.776-18.995-19.776-33.501
		c0-8.974,2.93-16.623,8.708-22.737c5.584-6.037,12.37-11.19,20.18-15.325c7.847-4.153,14.878-6.996,20.898-8.448
		c5.922-1.229,14.966-2.49,26.841-3.738l25.493-3.256c5.2-0.792,14.246-1.595,26.918-2.39c23.61-1.356,49.88-6.603,78.086-15.597
		c-0.026,1.004-0.527,3.808-2.684,11.376c-0.567,1.813-2.987,9.087-6.989,21.003c-3.207,9.638-5.167,15.974-5.99,19.366
		c-1.938,4.783-6.097,8.908-12.36,12.264c-2.552,1.28-6.889,2.274-12.86,2.938l-16.086,2.057c-7.28,0.787-13.098,1.188-17.267,1.188
		c-2.168,0-8.646-0.23-19.256-0.686c-9.433-0.805-14.947-1.197-16.804-1.197c-9.373,0-17.836,1.71-25.153,5.083l-0.102,0.053
		c-2.051,1.174-3.047,2.438-3.047,3.868c0,3.116,4.533,5.359,14.699,7.272c10.583,1.938,23.09,3.728,37.18,5.32
		c12.78,1.362,24.64,3.028,35.278,4.954c7.119,1.239,10.713,3.746,10.713,7.452v7.706c0,5.986-0.51,10.477-1.535,13.347
		c-0.982,2.737-3.528,5.537-7.577,8.32c-9.409,5.27-20.604,9.48-33.279,12.515c-2.701,0.564-6.151,1.305-10.315,2.219
		c-4.227,0.928-7.403,1.599-9.71,2.051c-2.349,0.458-5.126,1.066-8.253,1.808c-3.139,0.743-5.706,1.445-7.63,2.087
		c-1.907,0.637-3.872,1.4-5.84,2.269c-2.018,0.893-3.708,1.832-5.025,2.793c-1.387,1.009-2.481,2.175-3.255,3.465l-0.049,0.088
		c-0.781,1.569-1.161,2.88-1.161,4.006c0,3.553,2.766,6.383,8.22,8.41c5.036,1.871,11.302,2.82,18.624,2.82
		c4.889,0,9.837-0.591,14.706-1.755c20.829-5.628,38.215-11.884,51.709-18.601c13.545-6.739,26.002-15.709,37.026-26.659
		c1.572-1.577,4.55-2.375,8.854-2.375c5.173,0,10.284,1.03,15.191,3.063c4.529,1.88,6.826,4.093,6.826,6.575
		c0,6.691-6.84,17.433-20.33,31.927c-13.497,14.171-25.51,23.973-35.694,29.12C923.889,371.793,891.189,378.937,855.891,378.937z"/>
	<path fill="#FFFFFF" d="M1019.822,379.62c-7.804,0-15.943-1.037-24.195-3.081c-13.661-3.926-25.272-12.846-34.466-26.498
		c-9.001-13.348-13.565-30.068-13.565-49.699c0-16.683,3.579-33.438,10.639-49.8c9.987-23.962,23.729-42.53,40.853-55.203
		c17.094-12.985,35.02-19.564,53.292-19.564c18.34,0,34.425,6.828,47.808,20.295c13.174,13.264,20.53,32.414,21.862,56.918
		l-0.002,3.348c0,19.434-4.431,39.149-13.168,58.598c-8.719,18.961-21.131,34.606-36.886,46.492
		C1056.286,373.501,1038.736,379.62,1019.822,379.62z M1010.235,269.901c-4.734,8.76-7.134,19.227-7.134,31.113
		c0,13.453,5.03,21.897,14.951,25.099l0.127,0.041l0.132,0.014c6.243,0.681,6.499,0.681,6.651,0.681
		c14.143,0,25.533-7.4,33.855-21.997c8.522-14.347,12.85-29.27,12.85-44.335c0-5.39-0.774-10.287-2.303-14.557l-0.038-0.096
		c-3.643-8.09-9.115-12.191-16.265-12.191c-7.741,0-16.406,4.648-25.755,13.817C1018.236,256.045,1012.487,263.591,1010.235,269.901
		z"/>
</g>
</svg>
