<?xml version="1.0" encoding="iso-8859-1"?>
<!-- Generator: Adobe Illustrator 16.0.0, SVG Export Plug-In . SVG Version: 6.00 Build 0)  -->
<!DOCTYPE svg PUBLIC "-//W3C//DTD SVG 1.1//EN" "http://www.w3.org/Graphics/SVG/1.1/DTD/svg11.dtd">
<svg version="1.1" xmlns="http://www.w3.org/2000/svg" xmlns:xlink="http://www.w3.org/1999/xlink" x="0px" y="0px"
	 width="1140.5px" height="611px" viewBox="0 -103 1140.5 611" style="enable-background:new 0 -103 1140.5 611;"
	 xml:space="preserve">
<g id="fl_x5F_01">
	<path style="fill:#FFFFFF;" d="M588.802,230.466c1.133,0.534,1.907,1.322,2.433,2.273c-1.453-8.959-9.203-15.808-18.572-15.808
		c-2.759,0-5.37,0.607-7.731,1.673c-3.487,4.424-6.817,8.89-9.968,13.092c-0.298,0.397-0.592,0.763-0.884,1.113
		c-0.152,0.967-0.255,1.951-0.255,2.961c0,8.199,5.247,15.155,12.561,17.743c0.228-0.301,0.444-0.592,0.678-0.898
		C570.459,248.153,583.043,227.743,588.802,230.466z"/>
</g>
<g id="fl_x5F_02">
	<path style="fill:#FFFFFF;" d="M564.931,218.604c2.361-1.065,4.973-1.673,7.731-1.673c9.369,0,17.119,6.849,18.572,15.808
		c1.691,3.067,0.704,7.89,0.028,11.878c-1.529,8.952-3.89,19.747-4.083,29.684c15.573-5.871,26.654-20.903,26.654-38.531
		c0-18.255-11.886-33.727-28.338-39.121C578.199,202.583,571.302,210.522,564.931,218.604z"/>
</g>
<g id="fl_x5F_03">
	<path style="fill:#FFFFFF;" d="M553.199,272.055c3.319-4.951,7.437-10.938,13.186-18.541c-7.313-2.588-12.561-9.544-12.561-17.743
		c0-1.01,0.103-1.994,0.255-2.961c-6.849,8.236-12.009,3.808-16.549-9.316c-0.58-1.673-1.492-3.011-2.653-4.083
		c-2.175,5.016-3.387,10.545-3.387,16.359C531.49,251.468,540.277,265.109,553.199,272.055z"/>
</g>
<g id="fl_x5F_04">
	<path style="fill:#FFFFFF;" d="M646.814,267.166c4.09-9.646,6.353-20.256,6.353-31.394c0-4.157-0.315-8.24-0.924-12.228
		c-1.833,4.92-3.31,10.122-4.377,15.534C645.901,249.026,645.614,258.551,646.814,267.166z"/>
</g>
<g id="fl_x5F_05">
	<path style="fill:#FFFFFF;" d="M619.975,282.558c-16.021-3.691,23.626-76.686,4.717-90.237
		c-13.781-9.874-27.042-5.555-39.195,4.328c16.452,5.395,28.338,20.866,28.338,39.121c0,17.628-11.081,32.66-26.654,38.531
		c-0.308,15.826,4.894,29.466,27.734,29.997c8.474-5.237,15.902-11.999,21.904-19.906
		C631.771,281.174,626.158,283.987,619.975,282.558z"/>
</g>
<g id="fl_x5F_06">
	<path style="fill:#FFFFFF;" d="M553.199,272.055c-12.922-6.945-21.709-20.587-21.709-36.285c0-5.814,1.212-11.344,3.387-16.359
		c-7.571-6.993-26.365-2.035-41.845,4.521c-0.57,3.865-0.875,7.817-0.875,11.842c0,3.954,0.298,7.838,0.849,11.639
		c4.018-2.597,7.438-4.488,9.66-4.845c2.28,0,5.545,0.747,5.332,5.127c-2.35,11.085-4.834,19.749-4.947,28.499
		c5.696,9.788,13.391,18.262,22.533,24.866c1.717-0.495,3.396-1.31,4.974-2.504C541.669,290.145,545.062,284.192,553.199,272.055z"
		/>
</g>
<g id="fl_x5F_07">
	<path style="fill:#FFFFFF;" d="M503.051,276.192c-0.056,4.324,0.458,8.669,1.871,13.338c2.517,8.289,12.062,14.011,20.662,11.528
		C516.441,294.454,508.747,285.98,503.051,276.192z"/>
</g>
<g id="fl_x5F_08">
	<path style="fill:#FFFFFF;" d="M652.243,223.545c0.608,3.987,0.924,8.07,0.924,12.228c0,11.138-2.263,21.747-6.353,31.394
		c1.866,13.399,7.34,24.591,15.738,31.732c6.548-9.307,11.688-19.674,15.108-30.796c-2.117-8.651-1.626-19.204,0.558-28.203
		c0.928-3.828,2.296-7.751,4.026-11.549c-0.856-12.833-3.916-25.062-8.806-36.313C664.412,199.592,657.076,210.574,652.243,223.545z
		"/>
</g>
<g id="fl_x5F_09">
	<path style="fill:#FFFFFF;" d="M493.006,247.411c-0.551-3.801-0.849-7.685-0.849-11.639c0-4.024,0.305-7.977,0.875-11.842
		c-3.751,1.589-7.312,3.268-10.464,4.895c-5.755,2.97-12.487,7.324-19.615,12.199c0.387,8.227,1.683,16.216,3.783,23.872
		c1.279-0.805,2.589-1.616,3.938-2.437C477.918,258.053,486.295,251.748,493.006,247.411z"/>
</g>
<g id="fl_x5F_10">
	<path style="fill:#FFFFFF;" d="M614.914,304.298c3.292,0.076,6.945-0.115,11.008-0.616c11.87-1.46,21.534-9.549,12.511-18.048
		c-0.53-0.5-1.07-0.896-1.614-1.242C630.816,292.299,623.388,299.061,614.914,304.298z"/>
</g>
<g id="fl_x5F_11">
	<path style="fill:#FFFFFF;" d="M682.245,228.351c5.651-12.401,15.226-23.428,26.401-25.279c-1.823-7.608-4.262-14.977-7.272-22.045
		c-10.286,0.177-19.797,4.199-27.935,11.011C678.329,203.289,681.389,215.518,682.245,228.351z"/>
</g>
<g id="fl_x5F_12">
	<path style="fill:#FFFFFF;" d="M459.393,171.607c-4.583,1.366-8.75,2.449-12.667,3.312c-4.675,9.658-8.265,19.938-10.627,30.678
		C462.764,204.394,463.278,183.121,459.393,171.607z"/>
</g>
<g id="fl_x5F_13">
	<path style="fill:#FFFFFF;" d="M692.369,284.813c-8.019-1.529-12.626-8.2-14.708-16.711c-3.421,11.122-8.561,21.489-15.108,30.796
		c7.833,6.661,18.207,9.798,30.573,7.909c4.359-7.377,8.065-15.185,11.027-23.351C700.276,285.057,696.232,285.551,692.369,284.813z
		"/>
</g>
<g id="fl_x5F_14">
	<path style="fill:#FFFFFF;" d="M462.952,241.024c-9.073,6.203-18.789,13.248-27.967,19.359c1.378,7.761,3.402,15.297,6.004,22.559
		c6.952-5.344,15.208-11.421,25.746-18.046C464.635,257.24,463.339,249.251,462.952,241.024z"/>
</g>
<g id="fl_x5F_15">
	<path style="fill:#FFFFFF;" d="M446.678,230.466c0-7.104-4.241-12.148-8.819-11.895c-1.324,0.073-2.661,0.164-4.012,0.267
		c-0.67,5.552-1.023,11.2-1.023,16.932c0,2.475,0.066,4.934,0.193,7.376C440.874,239.716,446.678,235.806,446.678,230.466z"/>
</g>
<g id="fl_x5F_16">
	<path style="fill:#FFFFFF;" d="M717.595,203.601c8.934,2.083,13.553,1.033,14.151-4.922c0.763-7.696-8.408-12.306-8.408-12.306
		c-7.557-3.803-14.939-5.468-21.964-5.347c3.011,7.068,5.449,14.437,7.272,22.045C711.536,202.593,714.531,202.715,717.595,203.601z
		"/>
</g>
<g id="fl_x5F_17">
	<path style="fill:#FFFFFF;" d="M434.985,260.384c-17.436,11.61-32.915,19.835-38.319,12.495
		c2.315,11.034,5.642,21.695,9.878,31.884c11.458-3.029,20.203-10.873,34.445-21.82
		C438.387,275.681,436.363,268.145,434.985,260.384z"/>
</g>
<g id="fl_x5F_18">
	<path style="fill:#FFFFFF;" d="M740.247,170.409c-1.523,5.497-2.933,10.715-4.194,15.554c0,0-3.355,12.362-7.793,40.812
		c-0.714,4.619-3.076,22.707-4.102,28.303c-2.705,14.704-10.891,24.619-20.005,28.38c-2.962,8.166-6.668,15.974-11.027,23.351
		c7.181-1.098,15.03-3.884,23.443-8.663c9.648-5.477,12.835,0.67,22.647,5.546c5.706-13.977,9.708-28.828,11.738-44.303
		c0.09-4.057,0.526-8.538,1.247-13.35c0.191-3.399,0.298-6.821,0.298-10.269C752.5,212.711,748.154,190.668,740.247,170.409z"/>
</g>
<g id="fl_x5F_19">
	<path style="fill:#FFFFFF;" d="M414.274,250.154c6.385-2.323,13.094-4.542,18.743-7.009c-0.127-2.442-0.193-4.901-0.193-7.376
		c0-5.731,0.353-11.38,1.023-16.932c-12.356,0.944-25.843,2.951-40.469,2.761c-0.365,4.676-0.554,9.401-0.554,14.171
		c0,10.263,0.873,20.32,2.524,30.113C397.03,261.056,403.709,253.995,414.274,250.154z"/>
</g>
<g id="Layer_21">
	<path style="fill:#FFFFFF;" d="M436.098,205.597c2.362-10.74,5.952-21.02,10.627-30.678c-15.492,3.412-27.028,3.333-44.483,3.268
		c-2.892,8.561-5.15,17.413-6.733,26.497c8.604,0.311,20.447,0.638,37.018,0.968C433.772,205.677,434.951,205.648,436.098,205.597z"
		/>
</g>
<g id="Layer_23">
	<path style="fill:#FFFFFF;" d="M380.64,239.694c4.709-0.434,6.087,4.004,2.666,6.358c-7.415,7.515-15.881,17.843-17.021,26.251
		c-2.485,18.195,6.833,34.24,29.942,33.839c3.767-0.064,7.146-0.541,10.318-1.38c-4.236-10.188-7.563-20.85-9.878-31.884
		c-0.763-1.036-1.332-2.371-1.67-4.062c-0.162-0.812-0.04-1.813,0.352-2.935c-1.651-9.793-2.524-19.851-2.524-30.113
		c0-4.77,0.189-9.495,0.554-14.171c-9.505-0.124-19.492-1.174-29.965-4.053c-6.465-0.049-9.295-16.268,9.844-14.15
		c3.111,0.347,8.589,0.796,22.252,1.288c1.583-9.084,3.841-17.936,6.733-26.497c-2.305-0.009-4.711-0.017-7.246-0.017
		c-17.61,0-39.129,1.553-52.197,9.46c-2.475,11.874-4.055,24.075-4.662,36.533C348.769,234.669,368.736,238.353,380.64,239.694z"/>
</g>
<g id="Layer_24">
	<path style="fill:#FFFFFF;" d="M764.97,308.398c24.766-2.411,38.9-20.705,26.046-30.763c-8.408-6.588-14.077,6.316-28.097,4.512
		c-8.981-1.153-12.25-9.785-11.964-22.76c-2.03,15.475-6.032,30.326-11.738,44.303C744.824,306.477,752.586,308.849,764.97,308.398z
		"/>
</g>
<g id="Layer_25">
	<path style="fill:#FFFFFF;" d="M376.128,143.92c2.125-11.37-2.871-16.612-2.871-16.612s-4.263,1.329-10.575,3.288
		c-5.255,10.472-9.748,21.392-13.411,32.687C367.603,159.092,373.381,158.637,376.128,143.92z"/>
</g>
<g id="Layer_26">
	<path style="fill:#FFFFFF;" d="M752.5,235.77c0,3.447-0.106,6.869-0.298,10.269c4.656-31.118,21.12-76.021,31.636-108.886
		c0.268-0.836,0.537-1.659,0.806-2.487c-6.31-13.204-13.822-25.721-22.386-37.421c-8.09,25.142-15.973,51.379-22.011,73.164
		C748.154,190.668,752.5,212.711,752.5,235.77z"/>
</g>
<g id="Layer_27">
	<path style="fill:#FFFFFF;" d="M785.068,208.112c-0.36,14,10.267,21.641,22.392,26.491c-0.083-16.987-1.975-33.545-5.483-49.498
		C792.13,190.059,785.341,197.466,785.068,208.112z"/>
</g>
<g id="Layer_28">
	<path style="fill:#FFFFFF;" d="M331.01,208.933c0.374,6.236,3.076,11.227,7.127,15.23c0.606-12.458,2.187-24.659,4.662-36.533
		C335.169,192.246,330.417,199.026,331.01,208.933z"/>
</g>
<g id="Layer_29">
	<path style="fill:#FFFFFF;" d="M342.699,164.839c2.356-0.582,4.538-1.091,6.572-1.556c3.663-11.295,8.155-22.215,13.411-32.687
		c-15.619,4.848-43.806,13.559-51.155,15.58c-0.209,0.089-0.407,0.165-0.604,0.24c-3.305,9.685-6.076,19.615-8.303,29.75
		c1.439-0.492,2.974-0.895,4.601-1.278C318.098,171.32,333.364,166.529,342.699,164.839z"/>
</g>
<g id="Layer_30">
	<path style="fill:#FFFFFF;" d="M807.46,234.604c8.556,3.422,17.855,5.457,24.572,7.348c4.496,1.075,6.071,4.823,3.077,7.178
		c-6.94,5.538-22.543,12.78-24.405,25.841c-2.372,16.604,10.931,30.039,29.115,32.281c2.992-11.211,5.299-22.7,6.869-34.425
		c0.026-0.626,0.116-1.268,0.267-1.92c1.459-11.506,2.212-23.231,2.212-35.134c0-4.691-0.12-9.354-0.351-13.987
		c-5.887-1.065-12.717-2.497-21.911-4.649c-10.861-1.148-10.541-15.586,2.256-15.381c3.011-0.122,8.592,0.416,18.047,1.097
		c-1.055-8.892-2.533-17.651-4.411-26.263c-14.17,0.381-29.512,2.828-40.82,8.518C805.485,201.059,807.377,217.616,807.46,234.604z"
		/>
</g>
<g id="Layer_31">
	<path style="fill:#FFFFFF;" d="M784.644,134.666c6.104-18.796,12.476-35.454,18.834-51.16
		c-7.666-11.597-16.174-22.587-25.452-32.872c-5.033,14.006-10.443,30.066-15.768,46.611
		C770.821,108.945,778.334,121.461,784.644,134.666z"/>
</g>
<g id="Layer_32">
	<path style="fill:#FFFFFF;" d="M847.209,276.2c-0.398-1.037-0.57-2.177-0.521-3.374c-1.57,11.725-3.877,23.214-6.869,34.425
		c2.064,0.255,4.189,0.373,6.364,0.327c12.653-0.264,25.92-2.811,39.407-8.742c2.056-10.253,3.622-20.682,4.669-31.264
		C870.275,282.146,851.964,288.615,847.209,276.2z"/>
</g>
<g id="Layer_33">
	<path style="fill:#FFFFFF;" d="M803.478,83.506c6.473-15.985,12.931-30.994,19.075-46.284
		c-8.249-10.369-17.133-20.207-26.587-29.467c-4.281,6.935-10.722,22.791-17.94,42.879
		C787.304,60.919,795.812,71.909,803.478,83.506z"/>
</g>
<g id="Layer_34">
	<path style="fill:#FFFFFF;" d="M883.919,226.569c-15.388-1.994-23.359-2.659-35.103-4.784c0.23,4.633,0.351,9.296,0.351,13.987
		c0,11.902-0.753,23.628-2.212,35.134c1.481-6.416,9.021-13.855,23.429-16.854c11.186-2.333,17.952-6.346,21.353-10.601
		c0.061-2.553,0.098-5.111,0.098-7.679c0-1.878-0.039-3.747-0.071-5.617C889.926,228.313,887.235,226.999,883.919,226.569z"/>
</g>
<g id="Layer_35">
	<path style="fill:#FFFFFF;" d="M842.797,176.588c1.878,8.612,3.356,17.372,4.411,26.263c7.158,0.516,16.535,1.113,28.713,1.569
		c5.533,0.207,10.235-0.431,14.218-1.695c-1.02-9.912-2.506-19.685-4.412-29.307c-12.781,2.373-21.743,3.11-38.928,3.11
		C845.479,176.529,844.142,176.552,842.797,176.588z"/>
</g>
<g id="Layer_36">
	<path style="fill:#FFFFFF;" d="M261.669,163.666c-5.351,23.172-8.179,47.309-8.179,72.106c0,16.627,1.275,32.955,3.726,48.896
		c0.397-0.976,0.792-1.94,1.194-2.931c17.317-42.625,28.663-77.834,33.429-93.724c1.994-7.306,5.783-10.141,10.781-11.848
		c2.227-10.135,4.998-20.065,8.303-29.75c-7.238,2.763-7.008-3.687-6.83-5.383c-0.182,0.707,0.051-0.395,0.051-0.395
		s-0.025,0.146-0.051,0.395c0.239-0.93,1.198-4.994,4.358-18.853c8.556-37.634,10.242-61.253,8.079-76.869
		c-15.194,20.399-28.011,42.673-38.035,66.415c-6.992,25.803-15.778,51.471-15.778,51.471S262.333,163.37,261.669,163.666z"/>
</g>
<g id="Layer_38">
	<path style="fill:#FFFFFF;" d="M890.26,267.572c-1.047,10.582-2.613,21.011-4.669,31.264c9.725-4.277,19.563-10.324,29.368-18.549
		c1.561-12.11,2.484-24.42,2.755-36.891C908.978,252.469,899.443,260.876,890.26,267.572z"/>
</g>
<g id="Layer_39">
	<path style="fill:#FFFFFF;" d="M822.553,37.222c2.25-5.598,4.458-11.232,6.608-16.968c5.65-15.069-3.509-20.239-13.74-20.304
		c-6.139-0.039-12.675,1.683-16.612,4.307c-0.79,0.527-1.746,1.72-2.843,3.498C805.42,17.015,814.304,26.854,822.553,37.222z"/>
</g>
<g id="Layer_40">
	<path style="fill:#FFFFFF;" d="M253.49,235.772c0-24.798,2.828-48.935,8.179-72.106c-3.854,1.721-17.775,7.922-29.052,12.742
		c-1.688,9.732-2.959,19.606-3.813,29.6c6.472-2.878,14.465-6.635,18.12-8.149c3.848-2.995,8.089-0.436,5.948,5.127
		c-3.848,12.411-10.829,32.625-23.995,61.73c-0.04,0.094-0.08,0.189-0.12,0.283c1.779,21.213,5.478,41.877,10.92,61.824
		c5.091-11.972,10.987-26.08,17.538-42.155C254.765,268.728,253.49,252.399,253.49,235.772z"/>
</g>
<g id="Layer_41">
	<path style="fill:#FFFFFF;" d="M286.711,72.55c-0.908,10.058-4.277,24.639-8.217,39.177c10.024-23.742,22.841-46.016,38.035-66.415
		c-1.873-13.524-6.633-21.044-12.324-26.452c-6.8,8.405-13.213,17.133-19.213,26.163C287.929,51.013,288.354,60.075,286.711,72.55z"
		/>
</g>
<g id="Layer_42">
	<path style="fill:#FFFFFF;" d="M891.736,243.451c3.851-4.816,3.373-9.939,0.026-13.296c0.032,1.87,0.071,3.739,0.071,5.617
		C891.834,238.34,891.797,240.898,891.736,243.451z"/>
</g>
<g id="Layer_43">
	<path style="fill:#FFFFFF;" d="M910.17,168.325c-10.262,2.215-17.858,3.871-24.443,5.093c1.906,9.622,3.393,19.395,4.412,29.307
		C907.438,197.228,911.131,179.868,910.17,168.325z"/>
</g>
<g id="Layer_44">
	<path style="fill:#FFFFFF;" d="M219.853,181.656c-7.687,2.855-15.726,0.911-16.612,18.458c-0.394,18.818,11.025,11.73,18.663,8.818
		c1.743-0.666,4.192-1.72,6.901-2.925c0.854-9.994,2.125-19.868,3.813-29.6C227.347,178.66,222.657,180.61,219.853,181.656z"/>
</g>
<g id="Layer_45">
	<path style="fill:#FFFFFF;" d="M284.992,45.023c6-9.03,12.413-17.758,19.213-26.163c-0.692-0.657-1.397-1.286-2.113-1.888
		c-6.362-5.261-15.825-7.493-27.687-7.178c-7.332,0.194-15.562,1.363-24.489,3.382c-7.2,10.275-13.922,20.909-20.134,31.871
		c6.619-2.667,13.177-4.833,19.603-6.335C269.054,33.726,280.273,35.4,284.992,45.023z"/>
</g>
<g id="Layer_46">
	<path style="fill:#FFFFFF;" d="M219.033,373.821c0,0,7.729-16.627,20.645-46.998c-5.442-19.947-9.141-40.611-10.92-61.824
		c-10.224,24.335-25.341,54.053-36.417,76.588c3.749,13.921,8.243,27.536,13.434,40.802
		C214.813,380.183,219.033,373.821,219.033,373.821z"/>
</g>
<g id="Layer_47">
	<path style="fill:#FFFFFF;" d="M964.771,275.996c0.492-5.275,0.883-10.58,1.166-15.914
		C964.23,265.47,963.477,270.947,964.771,275.996z"/>
</g>
<g id="Layer_48">
	<path style="fill:#FFFFFF;" d="M950.367,194.166c-3.862,14.521-16.971,32.946-32.653,49.23c-0.271,12.471-1.194,24.78-2.755,36.891
		c7.122-5.973,14.227-13.082,21.257-21.519c8.516-10.214,18.105-27.466,23.995-35.07c1.121-2.176,3.853-3.479,5.83-3.822
		c-1.128-23.692-4.349-46.837-9.483-69.252C950.332,158.833,945.988,172.892,950.367,194.166z"/>
</g>
<g id="Layer_49">
	<path style="fill:#FFFFFF;" d="M205.774,382.389c-5.191-13.266-9.686-26.881-13.434-40.802
		c-6.689,13.611-11.902,24.599-13.671,30.198c0.81,2.326,1.638,4.644,2.487,6.95c3.831,3.496,11.348,4.182,20.445,4.314
		C203.091,382.935,204.481,382.704,205.774,382.389z"/>
</g>
<g id="Layer_50">
	<path style="fill:#FFFFFF;" d="M997.331,265.536c-5.735-6.351-0.286-16.579,6.259-25.663c0.045-2.56,0.076-5.122,0.076-7.692
		c0-9.526-0.319-18.978-0.938-28.348c-6.271-4.599-13.225-9.556-17.702-15.409c-7.178-9.565,11.428-38.778-11.896-46.554
		c-0.475-0.159-1.052-0.385-1.641-0.41c-3.898-0.169-10.004,2.666-14.933,9.165c5.135,22.415,8.355,45.56,9.483,69.252
		c0.514-0.089,0.978-0.116,1.348-0.074c5.382,1.189,13.126,5.226,12.101,11.074c-0.917,5.237-9.684,16.989-13.552,29.206
		c-0.283,5.334-0.674,10.639-1.166,15.914c0.787,3.068,2.329,5.978,4.873,8.612c5.867,6.074,17.016,11.097,29.271,11.24
		c1.326-8.807,2.38-17.702,3.155-26.677C1000.46,268.411,998.871,267.24,997.331,265.536z"/>
</g>
<g id="Layer_51">
	<path style="fill:#FFFFFF;" d="M249.917,13.176c-12.681,2.869-26.772,7.46-41.717,13.445
		c-7.205,12.983-13.751,26.381-19.588,40.154c13.558-8.537,27.492-16.216,41.171-21.729
		C235.995,34.085,242.716,23.451,249.917,13.176z"/>
</g>
<g id="Layer_52">
	<path style="fill:#FFFFFF;" d="M1018.66,163.813v18.663h3.281v-7.178h2.666c1.287,0,2.248,0.007,2.955,0.155
		c-0.121-0.921-0.242-1.842-0.368-2.761c-0.611,0.094-1.334,0.145-2.177,0.145h-3.076v-6.768h2.871c0.521,0,0.995,0.033,1.438,0.083
		c-0.119-0.779-0.246-1.555-0.368-2.333c-0.217-0.003-0.435-0.006-0.66-0.006H1018.66z"/>
</g>
<g id="Layer_53">
	<path style="fill:#FFFFFF;" d="M1008.611,173.248c0,4.75,1.616,8.77,4.922,12.1c3.322,3.347,7.366,5.127,12.1,5.127
		c1.257,0,2.46-0.134,3.616-0.38c-0.081-0.815-0.163-1.63-0.248-2.445c-1.073,0.234-2.191,0.364-3.368,0.364
		c-4.109,0-7.579-1.419-10.459-4.307c-2.854-2.887-4.307-6.357-4.307-10.459c0-4.069,1.436-7.588,4.307-10.459
		c2.746-2.739,6.031-4.141,9.841-4.279c-0.126-0.747-0.255-1.494-0.386-2.24c-4.275,0.216-8.014,1.797-11.096,4.879
		C1010.194,164.486,1008.611,168.547,1008.611,173.248z"/>
</g>
<g id="Layer_54">
	<path style="fill:#FFFFFF;" d="M1002.07,269.172c-0.775,8.975-1.829,17.87-3.155,26.677c8.566,0.101,17.673-2.181,25.897-8.164
		c1.556-1.132,2.922-2.253,4.142-3.361c0.809-7.688,1.428-15.433,1.852-23.229c-0.42-0.127-0.847-0.222-1.276-0.274
		C1024.911,260.261,1012.991,274.325,1002.07,269.172z"/>
</g>
<g id="Layer_55">
	<path style="fill:#FFFFFF;" d="M178.426,372.591c0.127,2.678,1.102,4.66,2.729,6.145c-0.849-2.307-1.677-4.624-2.487-6.95
		C178.58,372.065,178.497,372.338,178.426,372.591z"/>
</g>
<g id="Layer_56">
	<path style="fill:#FFFFFF;" d="M1003.59,239.873c4.809-6.676,10.208-12.734,12.199-16.175c4.054-7-3.75-13.037-13.061-19.865
		c0.618,9.37,0.938,18.821,0.938,28.348C1003.666,234.751,1003.635,237.313,1003.59,239.873z"/>
</g>
<g id="Layer_57">
	<path style="fill:#FFFFFF;" d="M208.2,26.622c-18.045,7.227-37.331,16.485-56.871,27.188
		c-7.382,17.071-13.757,34.678-19.051,52.748c16.484-12.231,35.978-26.965,56.334-39.782
		C194.448,53.002,200.995,39.604,208.2,26.622z"/>
</g>
<g id="Layer_58">
	<path style="fill:#FFFFFF;" d="M130.846,107.62c0.472-0.35,0.955-0.708,1.432-1.063c5.293-18.07,11.668-35.677,19.051-52.748
		c-16.609,9.097-33.4,19.235-49.769,30.061c-6.797,20.663-12.271,41.924-16.325,63.687
		C100.519,133.318,117.64,117.403,130.846,107.62z"/>
</g>
<g id="Layer_59">
	<path style="fill:#FFFFFF;" d="M1028.914,166.89c0.854,0.468,1.231,1.304,1.231,2.667c0,1.436-0.525,2.362-1.847,2.871
		c-0.294,0.115-0.676,0.199-1.104,0.265c0.126,0.919,0.247,1.84,0.368,2.761c0.284,0.06,0.532,0.14,0.736,0.255
		c1.215,0.697,1.847,2.141,1.847,4.307v1.641l0.205,0.615c0.016,0.082-0.017,0.14,0,0.205h3.076l-0.205-0.205
		c-0.074-0.156,0.024-0.32,0-0.82c-0.033-0.492-0.205-1.009-0.205-1.436v-1.436c0-0.943-0.345-1.878-1.025-2.871
		c-0.682-0.984-1.616-1.616-3.077-1.846c1.157-0.189,2.019-0.402,2.667-0.82c1.214-0.796,1.846-2.215,1.846-3.897
		c0-2.362-0.919-3.905-2.871-4.717c-0.986-0.408-2.64-0.58-4.673-0.609c0.122,0.778,0.249,1.554,0.368,2.333
		C1027.403,166.282,1028.298,166.558,1028.914,166.89z"/>
</g>
<g id="Layer_60">
	<path style="fill:#FFFFFF;" d="M1030.806,261.094c-0.424,7.797-1.043,15.541-1.852,23.229
		C1041.559,272.874,1037.021,262.98,1030.806,261.094z"/>
</g>
<g id="Layer_61">
	<path style="fill:#FFFFFF;" d="M1025.633,158.481c4.094,0,7.563,1.419,10.46,4.307c2.871,2.871,4.307,6.391,4.307,10.459
		c0,4.102-1.436,7.572-4.307,10.459c-2.056,2.061-4.417,3.36-7.092,3.943c0.085,0.814,0.167,1.629,0.248,2.445
		c3.205-0.683,6.03-2.288,8.484-4.748c3.339-3.355,5.127-7.366,5.127-12.1c0-4.717-1.788-8.778-5.127-12.1
		s-7.358-4.922-12.101-4.922c-0.34,0-0.67,0.027-1.004,0.043c0.131,0.746,0.26,1.493,0.386,2.24
		C1025.222,158.501,1025.423,158.481,1025.633,158.481z"/>
</g>
<g id="Layer_62">
	<path style="fill:#FFFFFF;" d="M56.4,173.453c6.964-5.499,17.385-15.228,28.835-25.896c4.054-21.762,9.528-43.024,16.325-63.687
		c-15.912,10.524-31.424,21.695-45.98,33.184c-3.27,2.842-6.375,5.434-9.305,7.842c-3.544,16.91-6.293,34.111-8.208,51.565
		C49.477,181.632,56.4,173.453,56.4,173.453z"/>
</g>
<g id="Layer_63">
	<path style="fill:#FFFFFF;" d="M28.304,169.351c3.531,3.532,6.797,5.765,9.764,7.11c1.915-17.454,4.664-34.655,8.208-51.565
		C22.745,144.238,11.183,151.092,28.304,169.351z"/>
</g>
</svg>
