<?xml version="1.0" encoding="iso-8859-1"?>
<!-- Generator: Adobe Illustrator 16.0.0, SVG Export Plug-In . SVG Version: 6.00 Build 0)  -->
<!DOCTYPE svg PUBLIC "-//W3C//DTD SVG 1.1//EN" "http://www.w3.org/Graphics/SVG/1.1/DTD/svg11.dtd">
<svg version="1.1" id="svg3383" xmlns:svg="http://www.w3.org/2000/svg"
	 xmlns="http://www.w3.org/2000/svg" xmlns:xlink="http://www.w3.org/1999/xlink" x="0px" y="0px" width="1024px" height="383px"
	 viewBox="0 0 1024 383" style="enable-background:new 0 0 1024 383;" xml:space="preserve">
<g id="layer1" transform="translate(-297.08434,-503.18224)">
	<path id="path2582" style="fill:#FFFFFF;" d="M1093.066,503.182c-6.139-0.039-12.675,1.683-16.612,4.307
		c-10.114,6.751-47.268,122.321-62.756,181.706c0,0-3.355,12.362-7.793,40.812c-0.714,4.619-3.076,22.707-4.102,28.303
		c-3.856,20.959-18.844,32.206-31.789,29.736c-16.169-3.084-18.481-27.063-14.15-44.914c4.741-19.564,20.837-41.656,39.376-36.299
		c8.934,2.083,13.553,1.033,14.151-4.922c0.763-7.696-8.408-12.306-8.408-12.306c-35.554-17.892-67.317,11.378-75.472,52.706
		c-9.524,48.229,20.278,86.571,68.703,59.065c15.16-8.605,14.34,11.493,48.4,10.254c24.766-2.411,38.9-20.705,26.046-30.763
		c-8.408-6.588-14.077,6.316-28.097,4.512c-29.951-3.848,3.576-90.795,20.919-144.995c14.799-46.226,31.271-79.425,45.323-116.898
		C1112.456,508.417,1103.297,503.247,1093.066,503.182z M552.051,513.026c-51.402,1.362-146.821,50.425-218.826,107.26
		c-29.524,25.668-46.53,31.764-27.276,52.296c17.112,17.113,28.097,4.102,28.097,4.102c16.259-12.838,51.345-48.72,74.446-65.833
		c32.896-24.373,78.318-59.5,118.539-68.909c31.912-8.088,41.608,1.321,37.326,33.839c-2.519,27.908-23.995,90.648-23.995,90.648
		s-33.027,14.791-42.863,18.458c-7.687,2.855-15.726,0.911-16.612,18.458c-0.394,18.818,11.025,11.73,18.663,8.818
		c5.907-2.256,19.836-8.926,25.021-11.074c3.848-2.995,8.089-0.436,5.948,5.127c-3.848,12.411-10.829,32.625-23.995,61.73
		c-16.686,39.795-46.604,94.175-50.451,107.875c0.427,8.982,10.213,10.27,23.175,10.459c11.919-0.919,17.432-9.229,17.432-9.229
		s15.529-33.396,39.376-92.084c17.317-42.625,28.663-77.834,33.429-93.724c2.568-9.41,8.105-11.411,15.382-13.125
		c10.878-3.568,26.145-8.359,35.479-10.049c23.593-5.824,30.377-4.569,33.429-20.918c2.125-11.37-2.871-16.612-2.871-16.612
		s-51.411,16.03-61.73,18.868c-8.983,3.847-7.383-5.538-7.383-5.538s-1.255,5.931,4.307-18.458
		c16.866-74.191,7.046-93.937-6.358-105.208C573.375,514.944,563.912,512.712,552.051,513.026z M1249.135,644.692
		c-8.822-0.384-28.968,14.592-21.123,52.707c-10.697,40.214-92.297,110.394-103.158,82.034c-2.649-6.907,4.495-18.261,23.175-22.148
		c30.804-6.424,28.228-25.579,13.535-27.482c-23.101-2.994-29.475-2.986-57.014-9.434c-10.861-1.148-10.541-15.586,2.256-15.381
		c5.291-0.214,18.499,1.607,46.76,2.666c29.573,1.107,35.431-21.896,34.249-36.096c-30.18,6.514-37.334,8.204-63.371,8.204
		c-27.317,0-61.115,7.547-61.73,31.583c-0.615,23.88,30.729,29.27,46.964,33.839c4.496,1.075,6.071,4.823,3.077,7.178
		c-6.94,5.538-22.543,12.78-24.405,25.841c-2.642,18.49,14.15,33.06,35.479,32.608c28.4-0.591,59.893-12.642,90.032-48.81
		c8.516-10.214,18.105-27.466,23.995-35.07c1.411-2.74,5.382-4.102,7.178-3.896c5.382,1.189,13.126,5.226,12.101,11.074
		c-1.567,8.95-26.07,36.932-9.845,53.732c9.968,10.32,35.177,17.621,55.168,3.076c18.712-13.609,12.133-25.963,4.717-26.865
		c-5.299-0.641-20.213,17.981-32.198,4.717c-9.95-11.018,13.758-33.717,18.458-41.838c6.784-11.715-19.639-20.73-30.763-35.274
		c-7.178-9.565,11.428-38.778-11.896-46.554C1250.301,644.943,1249.724,644.717,1249.135,644.692z M1303.278,659.457
		c-4.7,0-8.777,1.6-12.1,4.922c-3.339,3.339-4.922,7.399-4.922,12.1c0,4.75,1.616,8.77,4.922,12.1
		c3.322,3.347,7.366,5.127,12.1,5.127c4.742,0,8.762-1.78,12.101-5.127c3.339-3.355,5.127-7.366,5.127-12.1
		c0-4.717-1.788-8.778-5.127-12.1S1308.02,659.457,1303.278,659.457z M1303.278,661.714c4.094,0,7.563,1.419,10.46,4.307
		c2.871,2.871,4.307,6.391,4.307,10.459c0,4.102-1.436,7.572-4.307,10.459c-2.88,2.888-6.35,4.307-10.46,4.307
		c-4.109,0-7.579-1.419-10.459-4.307c-2.854-2.887-4.307-6.357-4.307-10.459c0-4.069,1.436-7.588,4.307-10.459
		C1295.714,663.132,1299.201,661.714,1303.278,661.714z M1296.305,667.046v18.663h3.281v-7.178h2.666
		c1.805,0,2.979,0.008,3.691,0.41c1.215,0.697,1.847,2.141,1.847,4.307v1.641l0.205,0.615c0.016,0.082-0.017,0.14,0,0.205h3.076
		l-0.205-0.205c-0.074-0.156,0.024-0.32,0-0.82c-0.033-0.492-0.205-1.009-0.205-1.436v-1.436c0-0.943-0.345-1.878-1.025-2.871
		c-0.682-0.984-1.616-1.616-3.077-1.846c1.157-0.189,2.019-0.402,2.667-0.82c1.214-0.796,1.846-2.215,1.846-3.897
		c0-2.362-0.919-3.905-2.871-4.717c-1.092-0.451-2.995-0.615-5.333-0.615H1296.305z M1299.586,669.301h2.871
		c1.879,0,3.249,0.361,4.102,0.82c0.854,0.468,1.231,1.304,1.231,2.667c0,1.436-0.525,2.362-1.847,2.871
		c-0.713,0.279-1.846,0.41-3.281,0.41h-3.076V669.301z M737.037,674.839c-25.103,7.481-37.817,6.563-64.396,6.563
		c-27.892,0-65.595,3.889-63.986,30.763c1.354,22.6,33.19,28.908,49.63,30.762c4.709-0.434,6.087,4.004,2.666,6.358
		c-7.415,7.515-15.881,17.843-17.021,26.251c-2.485,18.195,6.833,34.24,29.942,33.839c24.815-0.427,32.944-18.441,74.446-43.683
		c11.583-7.047,26.062-18.941,31.993-19.894c2.28,0,5.545,0.747,5.332,5.127c-3.511,16.563-7.351,27.72-3.076,41.837
		c3.019,9.943,16.152,16.202,25.636,9.024c15.824-11.978,15.979-18.95,36.505-45.939c3.396-4.462,15.98-24.872,21.739-22.149
		c4.782,2.256,3.347,8.926,2.461,14.151c-4.315,25.267-15.275,65.226,34.659,59.064c11.87-1.46,21.534-9.549,12.511-18.048
		c-5.456-5.143-11.608-1.492-18.458-3.076c-16.021-3.691,23.626-76.686,4.717-90.237c-26.587-19.048-51.238,14.717-69.729,39.376
		c-7.293,9.721-12.699,5.48-17.433-8.203c-5.274-15.226-36.809-4.036-54.963,5.332c-28.958,14.939-82.584,64.922-87.571,39.992
		c-0.861-4.307,6.259-13.93,19.278-18.663c15.267-5.554,32.403-10.509,32.403-19.688c0-7.104-4.241-12.148-8.819-11.895
		c-21.304,1.182-46.095,6.768-74.445-1.025c-6.465-0.049-9.295-16.268,9.844-14.15c5.07,0.565,16.391,1.402,59.27,2.256
		C740.376,709.49,741.09,686.849,737.037,674.839z"/>
</g>
</svg>
