<?xml version="1.0" encoding="utf-8"?>
<!-- Generator: Adobe Illustrator 16.0.0, SVG Export Plug-In . SVG Version: 6.00 Build 0)  -->
<!DOCTYPE svg PUBLIC "-//W3C//DTD SVG 1.1//EN" "http://www.w3.org/Graphics/SVG/1.1/DTD/svg11.dtd">
<svg version="1.1" id="Layer_1" xmlns="http://www.w3.org/2000/svg" xmlns:xlink="http://www.w3.org/1999/xlink" x="0px" y="0px"
	 width="586.332px" height="134.333px" viewBox="0 0 586.332 134.333" enable-background="new 0 0 586.332 134.333"
	 xml:space="preserve">
<g>
	<path fill="#FFFFFF" d="M14.732,127.005c-1.099,0-2.361-0.185-3.752-0.549c-3.175-0.794-3.541-2.299-3.541-3.361
		c0-0.416,0.151-1.198,0.871-2.563c0.667-1.074,2.322-3.129,4.874-6.032c4.809-5.721,8.907-12.647,12.2-20.61l0.891-2.155
		l-2.301,0.265C19.446,92.736,15.813,93,13.175,93h-1.182c-2.247,0-4.222-0.654-5.779-1.688c-1.379-0.915-2.05-1.938-2.05-3.238
		c0-0.344,0.015-0.494,0.024-0.574l0.036-0.058l0.031-0.188c0.1-0.623,0.308-1.1,0.619-1.422c0.318-0.329,0.768-0.55,1.372-0.676
		c0.787-0.163,1.549-0.263,2.264-0.295c0.771-0.034,1.728-0.052,2.868-0.052c1.229,0,2.164-0.037,2.857-0.115
		c4.334-0.394,10.149-1.359,17.258-2.867l0.599-0.127l0.283-0.542c4.907-9.384,10.152-21.578,15.589-36.244
		c5.541-14.667,9.512-24.322,11.803-28.691c0.418-0.835,1.511-2.134,4.409-3.703c2.251-1.291,4.474-1.938,6.632-1.938
		c0.046,0,0.199,0.01,1.55,0.202C78.915,12.208,82,18.082,82,28.725v0.913c1,7.461,3.048,21.054,7.132,40.497
		c4.286,19.671,7.718,31.807,10.344,37.102c1.273,3.321,1.955,6.289,1.955,8.822c0,4.902-2.493,7.187-7.886,7.187
		c-2.342,0-4.089-0.671-5.359-2.051c-1.367-1.487-2.594-3.936-3.657-7.278c-0.68-3.645-3.231-14.363-7.8-32.757l-0.295-1.193
		l-1.208,0.229c-5.835,1.11-15.746,3.448-29.457,6.949l-0.593,0.151l-3.59,7.621c-0.385,0.771-0.799,1.623-1.232,2.528
		c-0.429,0.897-0.769,1.605-1.018,2.122c-0.248,0.515-0.442,0.912-0.583,1.194l-2.495,4.457c-1.012,1.986-2.111,3.672-3.291,5.055
		c-0.429,0.544-1.244,1.593-2.482,3.189c-1.232,1.589-2.561,3.275-3.988,5.061c-1.415,1.769-2.922,3.581-4.48,5.388
		C20.219,125.992,17.836,127.005,14.732,127.005z M67.425,36c-1.132,0-1.867,1.025-3.736,5.833l-5.75,15.187
		c-2.063,5.549-4.532,11.79-7.342,18.478l-0.984,2.363l2.475-0.561c9.385-2.168,16.472-3.713,21.063-4.603l1.341-0.258l-0.327-1.325
		c-3.504-14.231-5.335-25.669-5.441-33.661L68.708,36H67.425z"/>
	<path fill="#FFFFFF" d="M148.324,119c-8.463,0-13.511-2.113-14.989-6.254l-0.966-2.637l-1.395,2.545
		c-1.329,2.392-2.734,4.035-4.179,4.852c-1.218,0.519-2.742,0.789-4.532,0.789c-2.764,0-4.751-0.461-5.905-1.378
		c-1.104-0.939-1.658-2.335-1.658-4.244c0-1.211,0.384-3.324,1.141-6.283l1.511-5.288l-3.299,2.855
		c-1.827,1.581-4.06,3.349-6.637,5.256c-4.067,2.891-7.663,4.364-10.667,4.364c-1.59,0-2.653-0.291-3.012-0.821
		c-0.608-1.656-0.737-2.506-0.737-2.928c0-3.238,2.682-6.188,7.971-8.769c4.048-1.798,8.806-6.008,14.501-12.851
		c5.807-6.969,9.698-13.326,11.566-18.896c2.269-8.19,4.16-15.302,5.641-21.205l8.55-32.159c1.297-4.758,3.107-8.321,5.377-10.582
		c2.182-2.172,4.301-3.272,6.298-3.272c0.069,0,0.146,0.013,0.233,0.03l0.264,0.053c2.118,0.4,4.917,1.648,4.917,7.857
		c0,1.338-0.154,2.769-0.457,4.25c-2.276,13.23-5.367,25.524-9.193,36.58l-3.633,10.709l3.74-2.992
		c2.554-2.248,6.163-3.367,10.775-3.367c0.096,0.002,0.604,0.031,2.863,0.211c3.479,0.488,7.465,2.813,11.773,6.898
		c2.056,2.049,3.803,5.056,5.169,8.916c1.382,3.906,2.083,7.998,2.083,12.162c0,3.279-0.466,6.32-1.386,9.036
		c-1.47,4.57-3.462,8.703-5.928,12.305c-2.457,3.59-4.987,6.379-7.52,8.29c-2.356,1.737-4.913,3.125-7.586,4.116
		c-1.713,0.662-3.254,1.16-4.596,1.485c-1.329,0.322-2.303,0.375-2.897,0.424c-0.632,0.051-1.495-0.059-2.56-0.059H148.324z
		 M137.195,92.371c0.583,3.684,1.973,6.596,4.132,8.658l0.074,0.07l0.084,0.058c1.497,1.037,3.176,1.602,4.993,1.961l0.125-0.118
		h0.127c0.82,0,1.047,0.188,1.07,0.194l0.202-0.058l0.176-0.137h0.215c1.734,0,3.594-0.197,5.527-0.977
		c1.599-0.762,3.134-1.893,4.766-3.692c1.669-1.915,2.968-4.372,3.876-7.42l0.933-4.055c0.24-1.518,0.354-2.827,0.354-4.004
		c0-2.74-0.5-5.086-1.486-6.984c-1.455-2.472-3.28-4.094-5.458-4.888c-0.297-0.146-0.878-0.344-2.667-0.722l-0.078-0.016
		l-0.079-0.006c-2.535-0.22-2.542-0.22-2.631-0.22c-1.071,0-1.509,0.069-1.783,0.15c-3.174,0.718-5.615,2.221-7.256,4.468
		c-2.723,3.813-4.477,8.104-5.221,12.763c-0.053,0.254-0.124,0.834-0.124,2.61C137.065,91.517,137.128,92.068,137.195,92.371z"/>
	<path fill="#FFFFFF" d="M206.12,118.841c-2.382,0-4.868-0.317-7.39-0.942c-4.055-1.166-7.539-3.849-10.308-7.961
		c-2.728-4.045-4.111-9.132-4.111-15.121c0-5.121,1.101-10.269,3.271-15.299c3.081-7.391,7.301-13.101,12.551-16.986
		c5.223-3.967,10.675-5.974,16.219-5.974c5.595,0,10.303,2.001,14.393,6.116c3.981,4.008,6.207,9.831,6.613,17.308l-0.002,1.004
		c0,5.98-1.366,12.054-4.061,18.051c-2.674,5.816-6.483,10.62-11.316,14.266C217.196,116.979,211.863,118.841,206.12,118.841z
		 M202.291,84.885c-1.538,2.872-2.317,6.284-2.317,10.143c0,5.802,2.891,7.953,5.316,8.737l0.127,0.041l0.132,0.014
		c2.009,0.219,2.087,0.219,2.187,0.219c4.789,0,8.629-2.478,11.415-7.363c2.753-4.635,4.155-9.478,4.155-14.375
		c0-1.797-0.261-3.437-0.775-4.875l-0.039-0.095c-1.621-3.603-4.117-4.358-5.925-4.358c-2.712,0-5.564,1.504-8.718,4.598
		C204.895,80.353,203.07,82.753,202.291,84.885z"/>
	<path fill="#FFFFFF" d="M298.38,119.485c-2.185,0-4-0.22-5.397-0.653c-0.292-0.133-0.531-0.312-0.731-0.544
		c-0.333-0.391-0.393-0.558-0.396-0.564c-0.073-0.224-0.14-0.505-0.199-0.839c-0.136-0.588-0.339-1.458-1.156-1.736l-0.204-0.069
		l-0.234-0.003c-0.586,0-1.023,0.325-1.723,1.01c-2.47,2.093-6.56,3.185-12.089,3.185c-4.904,0-9.356-1.333-13.234-3.962
		c-3.684-2.661-5.739-6.637-6.252-12.132c-0.005-0.157,0.146-0.398,0.109-0.724c-0.027-0.242,0.125-0.409,0.125-0.504v-3.057
		l-2.372,2.12c-2.791,2.69-6.366,5.678-10.458,8.88c-4.057,3.008-7.688,4.544-10.682,4.544c-1.59,0-2.674-0.291-3.033-0.821
		c-0.608-1.656-0.748-2.506-0.748-2.928c0-3.238,2.677-6.188,7.966-8.769c4.07-1.881,8.757-6.25,14.309-13.345
		c5.214-6.727,8.83-13.223,10.598-19.322l0.419-0.23v-0.806l0.53-3.899c1.326-3.91,3.605-6.139,7.051-6.809
		c0.824-0.209,1.581-0.306,2.363-0.306c4.037,0,5.204,1.897,5.728,3.352c0.398,1.556,0.477,2.349,0.477,2.741
		c0,0.863-0.223,2.113-0.656,3.713c-0.217,0.92-0.838,3.244-1.853,6.95c-1.013,3.694-1.784,6.576-2.29,8.565
		c-1.417,5.555-2.135,10.104-2.135,13.518c0,6.397,3.641,7.353,5.811,7.353c2.841,0,4.963-0.29,6.49-0.888l0.057-0.022l0.055-0.028
		c0.292-0.147,0.768-0.398,1.425-0.751c0.776-0.416,1.359-0.838,1.783-1.288c0.418-0.444,0.792-1.022,1.142-1.767
		c0.143-0.27,0.377-0.67,0.677-1.148c0.36-0.576,0.589-0.974,0.72-1.253c0.119-0.251,0.277-0.649,0.476-1.195
		c0.189-0.524,0.397-1.189,0.62-1.978l0.954-2.987l1.789-7.144c0.258-0.662,0.752-2.289,1.997-7.99
		c3.356-13.418,5.152-16.467,5.859-17.141c1.057-0.335,2.217-0.504,3.452-0.504c2.276,0,4.279,0.553,5.954,1.644
		c1.571,1.021,2.435,2.375,2.641,4.137l0.015,0.132l0.042,0.126l0,0c-0.001,0,0.042,0.199,0.042,0.826
		c0,1.16-0.661,4.683-3.81,14.869c-2.442,8.064-4.285,15.357-5.292,21.685L305,100.829v1.382c0,3.831,2.544,4.244,3.597,4.244
		c0.929,0,2.75-0.317,7.426-3.045c3.046-1.116,5.358-1.682,6.825-1.682c0.742,0,1.28,0.256,1.717,0.83
		c0.84,1.281,1.298,2.522,1.298,3.617c0,2.543-2.263,5.207-6.73,7.918c-2.836,1.679-6.196,3.014-9.979,3.96
		C305.355,119.003,301.731,119.485,298.38,119.485z"/>
	<path fill="#FFFFFF" d="M346.4,119c-2.883,0-5.042-0.318-6.375-0.807c-0.644-0.258-1.815-1.112-3.537-3.837
		c-1.226-1.999-1.902-4.547-2.002-7.599l-0.083-2.545l-6.42,5.016c-4.041,2.87-7.637,4.346-10.641,4.346
		c-1.59,0-2.653-0.289-3.012-0.819c-0.608-1.656-0.737-2.506-0.737-2.928c0-3.238,2.682-6.188,7.971-8.768
		c3.425-1.559,7.368-5.364,12.021-11.617c4.623-6.212,8.217-12.32,10.682-18.156c3.034-8.948,5.682-17.761,7.902-26.282l0.191-0.731
		l-0.542-0.527c-0.246-0.239-0.543-0.356-0.915-0.457c-0.155-0.042-0.369-0.124-0.64-0.239c-0.333-0.139-0.67-0.277-1.014-0.416
		l-2.365-1.209c-1.214-0.681-2.197-1.722-2.962-3.158c-0.772-1.449-1.164-2.996-1.164-4.6c0-0.677,0.131-1.525,0.389-2.521
		c0.824-2.624,2.042-2.624,2.501-2.624c0.482,0,0.959,0.169,1.458,0.518l0.104,0.065c1.729,0.979,4.032,1.869,6.847,2.646
		l0.73,0.201l0.536-0.535c0.282-0.282,0.388-0.388,1.772-4.829l2.848-9.242l2.193-6.578c0.892-2.444,2.395-4.847,4.455-7.109
		c1.98-2.171,4.195-3.228,6.773-3.228c0.568,0,1.096,0.06,1.566,0.177l0.077,0.019l0.079,0.01c3.692,0.454,5.412,2.707,5.412,7.089
		c0,3.264-1.11,7.843-3.299,13.61l-4.552,11.705l2.178-0.286c1.931-0.255,4.769-0.751,8.674-1.517
		c3.088-0.736,5.733-1.104,7.914-1.104c1.127,0,2.118,0.083,2.945,0.245c0.974,0.191,1.367,0.353,1.509,0.427l0.21,0.272
		c0.793,1.029,1.18,2.211,1.18,3.61c0,3.218-1.378,5.83-4.214,7.989c-2.44,1.855-7.218,2.796-14.198,2.796
		c-0.821,0-2.224-0.036-4.169-0.106c-2.014-0.072-3.185-0.108-3.511-0.108c-0.159,0-0.497,0.019-1.011,0.058
		c-0.407,0.031-0.66,0.049-0.763,0.05l-0.962,0.009l-0.283,0.922c-0.454,1.535-2.325,6.805-5.561,15.66
		c-3.68,10.074-6.434,18.084-8.186,23.806c-2.171,7.286-3.226,12.379-3.226,15.581c0,1.302,0.152,3.127,1.471,3.95
		c0.826,0.551,1.773,0.841,2.783,0.841c1.71,0,4.044-0.845,7.136-2.584c1.871-0.968,3.43-1.63,4.592-1.947
		c0.704-0.19,1.278-0.288,1.706-0.288c0.212,0,0.329,0.025,0.38,0.04c0.337,0.1,0.676,0.365,1.005,0.787
		c0.774,0.868,1.123,1.955,1.123,3.391c0,3.203-1.593,5.678-4.87,7.732c-5.833,3.867-12.441,5.736-19.666,5.736H346.4z"/>
	<path fill="#FFFFFF" d="M459.516,119.056c-2.193,0-4.604-0.142-7.164-0.421c-14.148-1.472-21.024-10.82-21.024-28.58
		c0-6.43,1.037-14.216,3.083-23.141c1.988-8.598,4.003-16.121,5.987-22.36c0.987-3.071,3.621-10.579,7.827-22.312
		c1.76-4.869,3.482-8.39,5.117-10.227C454.98,10.192,457.666,9,461.322,9h0.609c5.945,0,8.96,1.381,8.96,3.871
		c0,0.636-0.146,1.438-0.434,2.266l-1.448,3.868l-1.379,3.179c-4.092,10.205-8.166,22.131-12.123,35.465
		c-3.835,13.175-5.779,24.077-5.779,32.402c0,8.84,2.545,13.508,7.562,14.014l0.065-0.064h0.064c0.094,0,0.285,0.092,0.572,0.121
		c0.42,0.041,0.697,0.096,0.824,0.096c8.099,0,16.293-5.53,24.357-16.472c4.239-5.583,8.232-13.501,11.857-23.538
		c3.606-9.979,6.616-21.562,8.947-34.438c1.23-6.514,2.26-10.927,3.057-13.111c0.82-1.939,1.795-3.24,2.875-3.809
		c2.655-1.361,5.564-2.055,8.633-2.055c1.072,0,2.269,0.104,3.557,0.307l0.08,0.014l0.109,0.002
		c1.715,0.057,3.711,0.711,3.711,5.313v0.105l-0.012,0.104c0.025,0.15,0.024,0.313,0.024,0.489c0,0.574-0.074,1.324-0.208,2.229
		c-0.179,1.318-0.431,2.794-0.744,4.4c-0.436,2.224-0.523,2.723-0.551,2.916c-5.042,30.796-13.118,54.207-23.998,69.555
		C489.774,111.376,475.98,119.056,459.516,119.056z"/>
	<path fill="#FFFFFF" d="M557.27,117.767c-1.575,0-3.74-0.12-6.438-0.356c-3.477-1.231-6.519-2.845-9.043-4.797
		c-2.438-1.97-3.685-4.032-3.685-6.115c0-0.797,0.283-1.737,0.84-2.797c1.101-1.48,2.14-2.295,2.933-2.295
		c0.096,0.006,1.087,0.135,4.755,3.043c2.987,2.361,5.771,3.551,8.278,3.551h0.709c2.297,0,4.386-0.861,6.209-2.574
		c1.729-1.627,3.081-3.813,4.019-6.506c0.468-1.751,0.672-2.845,0.672-3.542c0-2.497-0.886-4.772-2.633-6.765
		c-1.641-1.862-3.906-3.794-6.738-5.744c-2.361-1.721-4.253-3.3-5.595-4.673l-1.52-1.555l-0.65,2.075
		c-1.067,3.403-2.677,6.704-4.783,9.811c-0.521,0.744-2.313,2.753-7.835,8.005c-4.263,4.042-8.206,7.584-11.721,10.526
		c-1.509,1.399-3.775,2.927-6.786,4.585c-2.635,1.348-4.987,2.041-6.957,2.041c-2.136,0-2.802-0.939-3.117-1.646
		c-0.366-0.734-0.532-1.405-0.532-2.103c0-3.276,3.424-6.625,10.177-9.952c3.737-1.869,7.917-6.004,12.786-12.644
		c4.822-6.546,8.131-12.874,9.834-18.811c0.128-0.328,0.182-0.753,0.182-1.401c0-1.321-0.595-3.312-1.872-6.263
		c-1.427-3.783-1.789-5.564-1.837-6.383l0.002-1.104c0-3.394,0.749-6.593,2.228-9.511c1.514-2.799,3.193-4.175,5.117-4.175
		c0.531,0,1.008,0.112,1.457,0.341c3.241,1.461,5.417,4.07,6.71,8.004c1.494,4.139,2.246,8.327,2.246,12.484
		c0,0.689-0.069,1.594-0.205,2.686l-0.085,0.687l0.521,0.454c1.445,1.261,4.133,3.273,8.215,6.152
		c4.685,3.359,7.843,5.738,9.38,7.065c2.517,1.952,4.623,4.521,6.703,7.68c1.986,2.933,2.791,6.013,2.791,9.168v1.396
		c0,1.323,0.172,2.357,0.119,3.074c-0.047,0.68-0.127,1.666-0.431,2.935c-0.304,1.262-0.72,2.628-1.334,4.061
		c-0.873,2.182-2.16,4.149-3.888,5.877c-1.678,1.677-4.209,3.108-7.548,4.255C565.527,117.176,561.616,117.767,557.27,117.767z"/>
</g>
</svg>
