<?xml version="1.0" encoding="utf-8"?>
<!-- Generator: Adobe Illustrator 16.0.0, SVG Export Plug-In . SVG Version: 6.00 Build 0)  -->
<!DOCTYPE svg PUBLIC "-//W3C//DTD SVG 1.1//EN" "http://www.w3.org/Graphics/SVG/1.1/DTD/svg11.dtd">
<svg version="1.1" id="Layer_1" xmlns="http://www.w3.org/2000/svg" xmlns:xlink="http://www.w3.org/1999/xlink" x="0px" y="0px"
	 width="1852px" height="420px" viewBox="0 0 1852 420" enable-background="new 0 0 1852 420" xml:space="preserve">
<g>
	<path fill="#FFFFFF" d="M42.929,414.416c-3.738,0-7.997-0.618-12.657-1.838c-9.009-2.253-13.381-6.647-13.381-13.439
		c0-2.391,1.042-5.579,3.097-9.477c2.303-3.722,7.662-10.39,15.886-19.743c15.07-17.929,27.96-39.72,38.327-64.79l0.892-2.154
		l-2.302,0.268c-14.558,2.369-26.272,3.465-34.817,3.465h-3.76c-7.843,0-14.587-2.524-19.954-6.086
		c-5.242-3.477-7.791-7.625-7.791-12.791c0-2.278,0.189-2.771,0.211-2.822l0.06-0.129l0.055-0.215
		c0.412-2.566,1.329-4.6,2.729-6.049c1.404-1.452,3.364-2.447,5.824-2.961c2.652-0.552,5.229-0.888,7.655-0.999
		c2.511-0.112,5.625-0.169,9.254-0.169c3.801,0,6.672-0.114,8.775-0.35c13.736-1.248,32.129-4.303,54.642-9.078l0.599-0.127
		l0.284-0.542c15.556-29.749,32.195-68.438,49.456-114.995c17.673-46.787,30.358-77.615,37.701-91.62
		c2.158-4.315,7.266-8.669,15.19-12.962c7.539-4.323,15.084-6.508,22.452-6.508c0.496,0,1.84,0.117,5.732,0.671
		c22.248,4.827,33.512,24.984,33.512,59.895v2.905c2,23.4,9.262,66.523,22.23,128.27c13.43,61.627,24.397,101.153,32.538,117.494
		c4.207,10.942,6.356,20.771,6.356,29.212c0,17.295-9.146,25.702-27.978,25.702c-8.176,0-14.62-2.504-19.162-7.441
		c-4.657-5.065-8.801-13.271-12.319-24.387c-2.081-11.246-10.431-46.314-24.819-104.235l-0.296-1.194l-1.208,0.23
		c-18.539,3.529-50.016,10.958-93.554,22.077l-0.594,0.151l-10.854,23.035c-1.225,2.457-2.514,5.102-3.928,8.061
		c-1.366,2.86-2.449,5.115-3.245,6.764c-0.793,1.648-1.419,2.925-1.87,3.832l-8.004,14.3c-3.267,6.422-6.888,11.971-10.787,16.539
		c-1.288,1.639-3.881,4.974-7.813,10.045c-3.954,5.1-8.233,10.528-12.718,16.134c-4.526,5.659-9.345,11.454-14.321,17.224
		C62.05,410.772,53.528,414.416,42.929,414.416z M210.588,125.707c-1.551,0-3.424,1.355-9.244,16.326l-18.289,48.089
		c-6.569,17.667-14.439,37.459-23.396,58.777l-0.984,2.356l2.476-0.564c29.904-6.908,52.486-11.846,67.117-14.682l1.342-0.258
		l-0.326-1.326c-11.203-45.491-17.056-81.676-17.395-107.32l-0.017-1.398H210.588z"/>
	<path fill="#FFFFFF" d="M467.993,389.707c-28.271,0-45.221-7.756-50.363-22.159l-0.966-2.681l-1.396,2.524
		c-4.525,8.147-9.41,13.724-14.52,16.56c-4.255,1.841-9.527,2.776-15.674,2.776c-9.453,0-16.368-1.687-20.553-5.015
		c-4.26-3.619-6.346-8.772-6.346-15.729c0-4.087,1.252-11.05,3.72-20.697l2.214-7.749l-3.299,2.854
		c-5.865,5.075-13.026,10.747-21.285,16.857c-13.476,9.578-25.47,14.442-35.628,14.442c-6.461,0-10.547-1.415-12.146-4.204
		c-1.737-4.687-2.618-8.239-2.618-10.561c0-11.48,9.069-21.725,26.956-30.448c12.391-5.506,27.613-19.023,45.204-40.156
		c18.249-21.9,30.46-41.82,36.293-59.207c7.168-25.895,13.179-48.501,17.888-67.26l27.214-102.361
		c4.263-15.643,10.27-27.404,17.851-34.951c7.492-7.459,14.907-11.24,22.039-11.24c0.359,0,0.793,0.049,1.287,0.146l0.851,0.17
		c12.065,2.283,17.925,11.37,17.925,27.783c0,4.449-0.509,9.192-1.512,14.095c-7.254,42.163-17.126,81.43-29.35,116.749
		l-8.438,24.873l4.326-3.461c8.553-7.536,20.667-11.337,36.054-11.337c0.515,0,3.656,0.229,9.337,0.68
		c11.83,1.654,25.04,9.301,39.188,22.719c6.894,6.867,12.678,16.794,17.17,29.482c4.506,12.734,6.791,26.072,6.791,39.643
		c0,10.743-1.534,20.724-4.559,29.661c-4.748,14.762-11.209,28.16-19.209,39.844c-7.995,11.678-16.258,20.775-24.561,27.04
		c-7.739,5.705-16.108,10.247-24.861,13.491c-5.536,2.142-10.557,3.763-14.938,4.825c-4.371,1.062-7.618,1.634-9.652,1.799
		c-2.077,0.167-4.896,0.202-8.377,0.202H467.993z M435.37,300.844c1.747,11.135,5.892,19.895,12.32,26.035l0.073,0.07l0.085,0.059
		c4.447,3.077,9.434,5.395,14.818,6.457l0.125,0.242h0.127c3.04,0,3.945,0.021,4.193,0.105l0.201-0.105h0.896
		c5.147,0,10.707-1.232,16.522-3.575c4.525-2.156,9.253-5.981,14.126-11.354c5.007-5.748,8.941-13.381,11.714-22.686l2.921-12.803
		c0.706-4.491,1.056-8.551,1.056-12.15c0-8.258-1.483-15.303-4.411-20.938c-4.25-7.213-9.614-11.992-15.978-14.265
		c-0.701-0.367-2.34-0.948-7.941-2.132l-0.077-0.017l-0.079-0.007c-7.935-0.688-8.003-0.688-8.128-0.688
		c-3.255,0-4.395,0.214-4.947,0.386c-9.459,2.119-16.701,6.543-21.524,13.146c-8.39,11.748-13.804,24.994-16.101,39.382
		c-0.237,1.171-0.357,3.759-0.357,7.858C435.005,298.662,435.209,300.162,435.37,300.844z"/>
	<path fill="#FFFFFF" d="M651.888,388.439c-7.804,0-15.943-1.037-24.195-3.081c-13.66-3.926-25.272-12.846-34.467-26.499
		c-9.001-13.348-13.564-30.068-13.564-49.698c0-16.683,3.579-33.438,10.639-49.8c9.985-23.961,23.728-42.529,40.852-55.203
		c17.095-12.985,35.021-19.564,53.293-19.564c18.34,0,34.425,6.828,47.808,20.295c13.174,13.263,20.53,32.412,21.862,56.918
		l-0.002,3.348c0,19.436-4.431,39.151-13.168,58.598c-8.719,18.961-21.13,34.606-36.885,46.492
		C688.352,382.32,670.802,388.439,651.888,388.439z M642.301,278.721c-4.734,8.76-7.134,19.227-7.134,31.113
		c0,13.453,5.03,21.897,14.952,25.099l0.127,0.041l0.132,0.014c6.241,0.681,6.487,0.681,6.65,0.681
		c14.143,0,25.533-7.4,33.855-21.996c8.522-14.348,12.85-29.271,12.85-44.336c0-5.391-0.774-10.288-2.304-14.557l-0.038-0.096
		c-3.642-8.09-9.113-12.191-16.264-12.191c-7.741,0-16.406,4.648-25.755,13.816C650.304,264.861,644.555,272.407,642.301,278.721z"
		/>
	<path fill="#FFFFFF" d="M945.446,390.49c-7.32,0-13.435-0.76-18.175-2.257c-1.376-0.597-2.547-1.452-3.481-2.546
		c-1.204-1.406-1.645-2.281-1.802-2.768c-0.268-0.819-0.512-1.843-0.728-3.043c-0.52-2.23-0.972-3.057-1.803-3.337l-0.202-0.068
		l-0.274-0.01c-0.689,0-1.419,0.373-3.497,2.407c-8.533,7.236-22.164,10.938-40.446,10.938c-16.18,0-30.883-4.406-43.701-13.096
		c-12.339-8.909-19.46-22.635-21.134-40.777c-0.005-0.443-0.194-1.131-0.31-2.153c-0.135-1.158-0.295-1.686-0.295-1.925v-3.06
		l-2.07,2.124c-8.934,8.612-20.047,18.184-33.158,28.446c-13.466,9.985-25.42,15.06-35.568,15.06c-6.459,0-10.529-1.414-12.13-4.204
		c-1.737-4.687-2.61-8.239-2.61-10.561c0-11.48,9.074-21.725,26.961-30.448c12.41-5.738,27.407-19.759,44.547-41.66
		c16.643-21.469,27.871-42.156,33.298-61.5l0.731-0.465v-1.286l1.977-12.861c4.56-13.636,12.648-21.413,24.766-23.772
		c2.691-0.685,5.391-1.023,8.115-1.023c11.087,0,17.941,4.144,20.967,12.668c1.098,4.27,1.651,7.484,1.651,9.555
		c0,3.002-0.733,7.225-2.179,12.553c-0.689,2.929-2.67,10.358-5.896,22.124c-3.246,11.851-5.692,21.003-7.269,27.205
		c-4.449,17.445-6.706,31.681-6.706,42.311c0,13.642,5.267,20.558,15.655,20.558c8.555,0,15.153-0.885,19.614-2.631l0.111-0.05
		c0.916-0.462,2.408-1.25,4.473-2.357c2.164-1.161,3.828-2.354,4.947-3.546c1.126-1.195,2.151-2.794,3.135-4.885
		c0.521-0.996,1.31-2.344,2.317-3.953c1.062-1.695,1.757-2.899,2.126-3.684c0.352-0.748,0.814-1.914,1.412-3.564
		c0.582-1.611,1.224-3.662,1.909-6.097l3.063-9.597l5.686-22.736c1.175-2.926,3.233-11.159,6.291-25.158
		c10.47-41.859,16.647-53.861,20.013-56.459c3.786-1.27,7.952-1.914,12.384-1.914c7.8,0,14.693,1.913,20.49,5.686
		c5.751,3.742,8.916,8.718,9.675,15.211l0.016,0.133l0.041,0.126c0.104,0.311,0.276,1.181,0.276,3.521
		c0,5.655-4.12,21.854-12.247,48.148c-7.732,25.522-13.441,48.603-16.623,68.606l-0.191,0.102v4.169
		c0,8.819,4.693,10.67,8.482,10.67c4.135,0,11.504-3.084,22.349-9.428c10.124-3.724,17.857-5.611,22.899-5.611
		c3.244,0,5.777,1.23,7.703,3.76c3.096,4.705,4.702,9.18,4.702,13.227c0,9.152-7.661,18.444-22.782,27.618
		c-9.297,5.501-20.247,9.852-32.537,12.925C968.093,388.929,956.329,390.49,945.446,390.49z"/>
	<path fill="#FFFFFF" d="M1098.234,389.707c-9.571-1-16.738-1.465-21.258-3.118c-3.675-1.469-7.952-6.072-12.678-13.548
		c-4.18-6.817-6.474-15.488-6.807-25.696l-0.083-2.571l-16.029,12.504c-13.448,9.558-25.442,14.418-35.602,14.418
		c-6.46,0-10.546-1.417-12.146-4.206c-1.737-4.687-2.618-8.24-2.618-10.562c0-11.48,9.069-21.725,26.956-30.448
		c10.373-4.724,22.904-16.878,37.216-36.11c14.574-19.583,25.896-38.82,33.65-57.18c9.563-28.22,17.967-56.193,25.012-83.234
		l0.189-0.729l-0.536-0.527c-0.305-0.299-0.76-0.504-1.681-0.754c-0.58-0.158-1.388-0.455-2.399-0.883
		c-1.076-0.451-2.174-0.902-3.299-1.354l-7.638-3.903c-4.385-2.459-7.979-6.25-10.639-11.246
		c-2.677-5.021-4.034-10.393-4.034-15.966c0-2.39,0.446-5.328,1.326-8.732c2.205-7.028,5.712-10.476,10.704-10.476
		c2.136,0,4.185,0.706,6.262,2.158l0.051,0.035l0.055,0.031c5.301,2.998,12.415,5.742,21.144,8.153l0.729,0.202l0.535-0.535
		c0.364-0.365,0.74-0.741,4.937-14.205l9.059-29.398l6.998-20.992c2.991-8.197,7.964-16.16,14.767-23.633
		c6.774-7.429,14.731-11.196,23.648-11.196c2.041,0,3.948,0.218,5.667,0.646l0.077,0.02l0.079,0.01
		c13.261,1.63,19.708,9.929,19.708,25.369c0,10.729-3.594,25.639-10.683,44.314l-12.755,32.799l2.178-0.287
		c6.007-0.792,15.234-2.406,27.424-4.799c9.931-2.369,18.569-3.564,25.727-3.564c3.765,0,7.103,0.279,9.92,0.83
		c2.755,0.543,4.86,1.125,5.925,1.733c0.799,0.457,1.307,0.755,1.307,0.856v0.338l0.103,0.351c2.882,3.737,4.26,8.186,4.26,13.22
		c0,11.026-4.93,20.338-14.568,27.677c-8.273,6.287-24.071,9.476-46.915,9.476c-2.637,0-7.144-0.115-13.378-0.342
		c-6.524-0.232-10.048-0.342-11.075-0.342c-0.48,0-1.438,0.084-3.007,0.203c-1.94,0.15-2.492,0.195-2.639,0.195h-0.972l-0.275,0.903
		c-1.458,4.938-7.43,21.745-17.747,49.981c-11.693,32.014-20.44,57.443-25.999,75.596c-6.729,22.577-10.14,38.971-10.14,48.741
		c0,5.433,1.095,8.754,3.347,10.159c2.225,1.483,4.71,2.246,7.353,2.246c4.942,0,11.915-2.571,21.316-7.858
		c6.224-3.222,11.37-5.401,15.255-6.458c2.489-0.675,4.567-1.018,6.177-1.018c0.783,0,1.457,0.081,2.003,0.241
		c1.66,0.49,3.221,1.661,4.639,3.482c2.785,3.114,4.169,7.308,4.169,12.531c0,11.091-5.66,20.387-16.822,27.389
		c-18.975,12.575-40.525,19.063-64.08,19.063H1098.234z"/>
	<path fill="#FFFFFF" d="M1458.146,389.123c-7.078,0-14.851-0.457-23.102-1.356c-23.047-2.396-40.552-11.451-52.033-26.913
		c-11.538-15.538-17.389-38.026-17.389-66.842c0-20.672,3.324-45.657,9.88-74.264c6.343-27.43,12.773-51.443,19.112-71.371
		c3.158-9.824,11.548-33.744,24.936-71.09c5.727-15.841,11.392-27.138,16.837-33.252c5.759-6.414,14.99-9.328,27.433-10.328h2.017
		c20.797,0,31.342,5.133,31.342,14.936c0,2.352-0.517,5.108-1.535,8.033l-4.633,12.322l-4.44,10.219
		c-12.95,32.299-25.884,70.146-38.455,112.504c-12.124,41.653-18.271,76.068-18.271,102.286c0,26.425,7.235,40.403,21.506,41.842
		l0.065-0.142h0.065c0.281,0,0.985,0.207,2.094,0.316c1.177,0.119,1.946,0.252,2.35,0.252c24.818,0,50.125-17.227,75.217-51.276
		c13.336-17.563,25.905-42.515,37.346-74.182c11.418-31.597,20.953-68.306,28.341-109.124c3.954-20.916,7.271-35.111,9.854-42.188
		c2.919-6.918,6.457-11.531,10.493-13.658c8.876-4.551,18.566-6.86,28.789-6.86c3.56,0,7.517,0.341,11.76,1.011l0.08,0.012
		l0.205,0.004c9.734,0.316,14.59,6.772,14.59,19.734v0.105l-0.107,0.105c0.102,0.621,0.092,1.298,0.092,2.013
		c0,1.968-0.257,4.493-0.701,7.507c-0.57,4.211-1.387,8.961-2.397,14.133c-1.059,5.414-1.613,8.314-1.729,9.131
		c-16.123,98.478-41.984,173.365-76.854,222.555C1556.177,364.284,1511.508,389.123,1458.146,389.123z"/>
	<path fill="#FFFFFF" d="M1769.182,385.021c-5.163,0-12.257-0.396-21.086-1.177c-11.486-4.03-21.546-9.35-29.901-15.813
		c-8.503-6.868-12.825-14.176-12.825-21.701c0-3.054,1.043-6.557,3.101-10.413c4.211-5.723,8.159-8.624,11.736-8.624
		c1.771,0,6.141,1.986,16.894,10.511c8.984,7.104,17.254,10.902,24.579,10.902h2.256c6.559,0,12.55-2.7,17.809-7.641
		c5.162-4.85,9.216-11.533,12.05-19.674c1.343-5.039,1.981-8.439,1.981-10.389c0-7.238-2.581-13.877-7.671-19.681
		c-5.064-5.752-12.103-11.757-20.919-17.828c-7.696-5.606-13.835-10.739-18.217-15.225l-1.52-1.558l-0.65,2.072
		c-3.483,11.104-8.726,21.856-15.581,31.959c-2.553,3.654-11.076,12.385-25.324,25.935c-13.608,12.907-26.2,24.216-37.425,33.611
		c-4.859,4.511-12.259,9.508-22.044,14.897c-8.861,4.536-16.782,6.846-23.507,6.846c-6.342,0-10.433-2.264-12.506-6.92
		c-1.297-2.596-1.941-5.217-1.941-7.845c0-11.595,11.428-23.104,33.965-34.21c11.3-5.651,24.638-18.894,39.649-39.361
		c15.18-20.609,25.574-40.494,30.895-59.101c0.218-0.493,0.423-1.354,0.423-3.534c0-3.744-1.872-9.895-5.723-18.803
		c-3.782-10.025-5.832-17.199-6.071-21.264l0.002-3.684c0-11.25,2.487-21.861,7.393-31.541c5.319-9.836,11.653-14.84,18.812-14.84
		c2.119,0,4.112,0.47,5.927,1.396c10.8,4.863,18.438,13.973,22.756,27.104c4.838,13.394,7.284,27.045,7.284,40.609
		c0,2.316-0.227,5.31-0.674,8.897l-0.085,0.686l0.521,0.455c4.464,3.892,13.182,10.417,25.911,19.394
		c14.981,10.743,25.099,18.366,30.061,22.651c8.138,6.307,15.5,14.711,22.295,25.023c6.62,9.777,9.79,20.111,9.79,30.73v4.443
		c0,4.287,0.097,7.648-0.071,9.99c-0.164,2.307-0.665,5.599-1.669,9.787c-1.004,4.183-2.488,8.683-4.501,13.378
		c-2.896,7.237-7.261,13.817-13.03,19.588c-5.646,5.645-14.092,10.428-25.127,14.216
		C1796.113,383.09,1783.33,385.021,1769.182,385.021z"/>
</g>
</svg>
