<?xml version="1.0" encoding="utf-8"?>
<!-- Generator: Adobe Illustrator 16.0.0, SVG Export Plug-In . SVG Version: 6.00 Build 0)  -->
<!DOCTYPE svg PUBLIC "-//W3C//DTD SVG 1.1//EN" "http://www.w3.org/Graphics/SVG/1.1/DTD/svg11.dtd">
<svg version="1.1" id="Layer_1" xmlns="http://www.w3.org/2000/svg" xmlns:xlink="http://www.w3.org/1999/xlink" x="0px" y="0px"
	 width="1128px" height="624px" viewBox="0 0 1128 624" enable-background="new 0 0 1128 624" xml:space="preserve">
<g>
	<path fill="#FFFFFF" d="M131.575,378.671c-27.204,0-48.11-6.104-62.137-18.144c-8.763-7.453-13.203-17.125-13.203-28.75
		c0-5.327,1.306-13.154,3.88-23.263c4.042-13.845,10.848-31.789,20.215-53.293c6.449-15.089,18.659-42.159,36.295-80.469
		c15.839-33.228,26.366-55.957,31.279-67.541c7.706-17.994,19.203-27.619,34.172-28.605l1.618,0.003
		c6.597,0,12.659,2.176,18.021,6.466c5.351,4.283,7.951,8.954,7.951,14.28c0,1.979-0.187,2.452-0.207,2.5l-0.057,0.127l-0.051,0.182
		c-2.694,12.821-11.944,34.617-27.493,64.784l-1.422,2.758l10.59-3.291l13.609-2.55c12.271-2.658,19.284-4.228,21.476-4.806
		c6.461-1.496,14.249-5.088,23.112-10.666c8.85-5.569,16.727-12.466,23.731-20.498c6.683-7.612,9.911-14.686,9.911-21.021v-1.196
		c0-12.311-10.374-24.139-31.152-35.157c-15.165-8.263-38.027-12.456-68.1-12.456c-35.469,0-63.05,7.51-82.056,22.32
		c-12.268,9.697-18.206,18.305-18.206,26.318c0,8.259,7.756,15.966,23.69,23.562c4.415,2.168,6.573,5.085,6.573,8.909
		c0,3.806-1.287,7.101-3.939,10.071l-0.06,0.068l-0.05,0.076c-3.652,5.476-9,8.138-16.351,8.138c-3.055,0-8.079-0.896-14.937-2.662
		c-9.948-4.705-18.904-10.321-26.618-16.693c-5.083-4.312-9.265-9.475-12.414-15.336c-3.13-5.817-4.717-11.992-4.717-18.354
		c0-12.036,5.695-24.687,16.928-37.599c12.216-14.691,31.902-26.805,58.531-36.026c27.181-9.706,55.014-14.626,82.737-14.626
		c16.491,0,31.694,1.995,45.188,5.93c19.604,5.743,38.196,14.653,55.26,26.48c16.594,11.511,27.564,25.882,32.606,42.713
		c0.852,3.358,1.291,7.447,1.291,12.103c0,15.676-5.66,30.344-16.821,43.596c-11.106,13.205-26.155,23.251-44.729,29.862
		l0.436,2.524c0.511,0,1.591-0.086,3.301-0.264c2.004-0.206,2.757-0.249,3.035-0.249c24.78,0,52.044,5.885,81.035,17.491
		c15.008,5.93,27.374,14.369,36.762,25.084c9.312,10.632,14.033,22.462,14.033,35.163c0,2.86-0.278,5.99-0.827,9.305
		c-4.706,17.788-14.043,33.621-27.75,47.061c-13.771,13.498-31.708,24.681-53.316,33.236
		c-41.045,16.18-93.887,26.508-157.058,30.698C149.63,378.097,138.329,378.671,131.575,378.671z M160.553,208.61
		c-28.705,55.441-42.659,90.257-42.659,106.438c0,3.103,0.233,4.158,0.409,4.682c3.352,8.655,17.431,12.835,43.063,12.835
		c10.574,0,24.161-0.979,40.381-2.911c13.104-1.594,23.754-3.619,31.654-6.021c26.028-6.926,47.173-14.834,62.801-23.494
		c19.835-10.828,32.184-25.929,36.694-44.879c0.129-0.649,0.248-1.394,0.365-2.261c0.106-0.81,0.215-1.46,0.322-1.938
		c0.137-0.624,0.202-1.19,0.202-1.737c0-8.137-4.203-15.353-12.493-21.446c-8.094-5.944-19.13-10.414-32.802-13.285
		c-24.57-5.566-51.863-8.227-81.103-8.227c-18.659,0-32.865,0.896-42.228,2.896h-1.065c-0.563,0-1.03-0.368-1.467-0.807
		l-1.257-1.345L160.553,208.61z"/>
	<path fill="#FFFFFF" d="M481.709,377.646c-7.804,0-15.943-1.037-24.195-3.081c-13.661-3.926-25.272-12.846-34.466-26.498
		c-9.001-13.348-13.565-30.068-13.565-49.699c0-16.683,3.579-33.438,10.639-49.8c9.987-23.962,23.729-42.53,40.853-55.203
		c17.094-12.985,35.02-19.564,53.292-19.564c18.34,0,34.425,6.828,47.808,20.295c13.174,13.264,20.53,32.414,21.862,56.918
		l-0.002,3.348c0,19.434-4.431,39.149-13.168,58.598c-8.719,18.961-21.131,34.606-36.886,46.492
		C518.173,371.526,500.623,377.646,481.709,377.646z M472.122,267.927c-4.734,8.76-7.134,19.227-7.134,31.113
		c0,13.453,5.03,21.897,14.951,25.099l0.127,0.041l0.132,0.014c6.243,0.681,6.499,0.681,6.651,0.681
		c14.143,0,25.533-7.4,33.855-21.997c8.522-14.347,12.85-29.27,12.85-44.335c0-5.39-0.774-10.287-2.303-14.557l-0.038-0.096
		c-3.643-8.09-9.115-12.191-16.265-12.191c-7.741,0-16.406,4.648-25.755,13.817C480.123,254.07,474.374,261.616,472.122,267.927z"/>
	<path fill="#FFFFFF" d="M783.996,378.262c-5.106,0-10.94-0.424-17.338-1.324c-5.088-0.867-9.1-2.214-11.89-4.03
		c-3.01-2.443-3.546-3.001-3.639-3.116l-1.913-2.876c-0.107-0.303-0.363-0.738-0.775-1.516c-0.325-0.607-0.575-0.909-0.575-1.049
		v-1.832l-11.032,5.141c-1.296,0.705-4.858,2.3-10.705,4.777c-3.903,1.787-8.154,3.079-12.689,3.855
		c-7.621,1.123-14.165,1.695-19.429,1.695c-4.23,0-8.47-0.341-12.607-1.012c-6.235-0.893-12.824-3.097-19.611-6.556
		c-8.732-4.653-15.753-11.238-20.843-19.562c-4.806-7.279-8.017-15.243-9.571-23.708l-0.407-2.217l-1.715,1.462
		c-11.539,9.839-20.019,16.698-25.203,20.387c-13.505,9.822-25.495,14.799-35.647,14.799c-6.46,0-10.546-1.415-12.146-4.204
		c-1.737-4.687-2.618-8.239-2.618-10.561c0-11.48,9.069-21.725,26.956-30.448c9.654-4.428,20.949-13.684,33.545-27.497
		c12.315-13.411,23.244-28.831,32.481-45.828c6.188-12.024,13.761-22.692,22.521-31.734c9.089-9.029,18.887-16.56,29.104-22.364
		c8.604-4.889,17.558-8.269,26.61-10.047c2.614-0.432,5.82-0.654,9.49-0.654c5.102,0,9.59,0.5,13.342,1.485
		c4.151,0.896,9.802,3.09,16.849,6.535c3.91,1.691,4.703,1.83,5.186,1.83c1.182,0,2.824-0.584,3.941-3.368
		c1.063-2.465,1.928-6.054,2.633-10.94l30.534-115.484c4.773-17.02,9.843-30.965,15.063-41.43
		c5.608-11.473,14.515-17.046,27.23-17.046c2.228,0,5.006,0.337,8.257,1.002c5.138,1.401,10.01,4.21,14.399,8.329
		c4.333,4.063,6.439,8.938,6.439,14.899c0,0.217-0.008,0.514-0.023,0.892l-0.066,1.714c-0.029,0.737-0.059,1.389-0.087,1.956
		c-0.292,5.466-11.582,48.469-33.556,127.813c-23.137,78.261-35.672,123.522-37.254,134.514c-2.284,8.312-3.442,16.234-3.442,23.548
		c0,4.397,0.476,7.774,1.453,10.322c1.145,2.657,2.776,4.679,4.87,6.057l0.059,0.038l0.063,0.032
		c1.064,0.547,2.436,0.824,4.076,0.824c2.404,0,3.35-0.136,3.884-0.435c7.27-2.183,9.228-3.127,10.067-3.648
		c0.271-0.186,1.342-0.775,7.026-3.319c4.996-2.237,6.419-2.948,6.922-3.264l5.34-1.845c3.438-1.354,6.031-1.993,7.752-1.993h1.235
		c3.799,1,6.186,1.898,7.095,3.958c2.712,5.139,4.066,9.122,4.066,11.958c0,0-0.002,0.067-0.071,0.234
		c-0.134,0.328-0.258,0.718-0.392,1.239c-0.102,0.401-0.2,0.749-0.302,1.05l-0.069,0.202v0.216c0,1.421-0.423,3.154-1.256,5.153
		l-0.047,0.111l-0.025,0.117c-0.213,0.997-1.058,3.182-3.87,7.934c-2.292,2.961-6.066,6.431-11.222,10.314
		c-7.82,5.46-18.289,10.124-31.078,13.836c-3.563,1.125-8.746,2.229-15.435,3.358c-4.563,0.898-10.462,1.318-17.566,1.318H783.996z
		 M683.266,304.212c1.067,5.237,2.827,9.309,5.23,12.101c2.158,2.549,5.128,4.7,8.819,6.386l0.061,0.027l0.063,0.021
		c1.514,0.512,3.494,0.76,6.056,0.76c3.021,0,4.166-0.204,4.736-0.376c9.793-1.448,18.3-6.151,25.286-13.979
		c2.859-3.394,7.279-11.512,13.537-24.845l0.035-0.076l0.025-0.079c2.417-7.53,3.817-15.344,4.163-23.223
		c0.001-0.308,0.023-1.043,0.169-3.149c0.12-1.78,0.174-2.79,0.174-3.273c0-4.663-0.588-8.823-1.747-12.368
		c-0.383-1.987-1.146-3.759-2.27-5.268c-1.835-2.216-3.205-3.35-4.321-3.85c-1.699-1.25-4.045-1.76-6.976-1.76h-2.127l-0.075-0.115
		c-3.104,0.363-6.07,1.276-8.814,2.837c-2.134,0.972-4.672,2.668-7.544,5.104c-4.515,3.055-8.961,7.303-13.219,12.659
		c-10.659,12.637-17.593,25.668-20.587,38.717c-0.7,2.834-1.058,5.9-1.058,9.102C682.884,302.551,683.094,303.656,683.266,304.212z"
		/>
	<path fill="#FFFFFF" d="M951.175,623.739c-3.255,0-5.555-1.021-7.032-3.122c-1.575-2.242-2.598-6.593-3.038-12.929l0.003-4.012
		c0-13.039,4.257-35.06,12.65-65.45l41.35-154.673l1.032-3.691c0.374-1.334,0.769-2.477,1.1-3.396
		c0.563-1.565,0.627-1.773,0.627-2.033v-1.171h-1.968l-0.231-0.141c-8.49,3.383-18.592,4.982-30.024,4.982
		c-16.07,0-29.19-4.559-38.996-13.438c-9.842-8.91-16.681-22.544-20.327-40.467l-0.437-2.165l-1.676,1.409
		c-10.713,9.053-20.547,16.909-29.229,23.358c-13.43,9.577-25.381,14.439-35.503,14.439c-6.436,0-10.506-1.415-12.102-4.204
		c-1.729-4.684-2.607-8.236-2.607-10.563c0-11.48,9.038-21.726,26.861-30.448c10.554-5.078,23.36-16.369,38.057-33.558
		c14.262-16.623,25.515-34.232,33.808-52.343l0.375-0.558v-0.847c5-14.18,7.645-23.76,8.58-28.479
		c4.59-13.416,12.855-21.065,25.08-23.386c2.72-0.673,5.557-1.006,8.416-1.006c10.977,0,17.808,4.072,20.833,12.447
		c1.097,4.192,1.663,7.349,1.663,9.38c0,3.408-0.668,7.557-1.997,12.33c-0.681,2.724-2.687,9.972-5.978,21.578
		c-3.288,11.589-5.762,20.65-7.355,26.934c-4.904,20.458-7.389,34.335-7.389,41.263c0,11.769,5.363,19.385,15.939,22.639
		c2.879,0.727,5.686,1.086,8.403,1.086c12.956,0,23.36-10.912,30.926-32.435c1.388-4.019,4.595-15.471,9.808-35.018l12.712-53.864
		c1.516-6.683,6.399-12.692,14.516-17.605c8.143-5.106,16.072-7.323,23.588-8.323h1.145c5.146,0,10.253,2.189,14.95,6.24
		c4.686,4.041,7.16,8.821,9.16,13.944v1.208c0,5.912-3.973,16.067-11.582,30.185l-0.105,0.09l-1.088,3.006
		c-23.725,74.927-43.291,141.937-58.145,199.205c-13.687,53.47-23.629,93.886-29.539,120.132
		c-4.43,21.351-8.386,35.855-11.758,43.131c-5.147,10.352-10.24,17.744-15.118,21.938c-4.375,4.027-11.56,6.729-21.385,8.057
		c-0.645,0.005-1.858,0.063-3.606,0.173C952.687,623.684,951.585,623.739,951.175,623.739z"/>
</g>
</svg>
