<?xml version="1.0" encoding="utf-8"?>
<!-- Generator: Adobe Illustrator 16.0.0, SVG Export Plug-In . SVG Version: 6.00 Build 0)  -->
<!DOCTYPE svg PUBLIC "-//W3C//DTD SVG 1.1//EN" "http://www.w3.org/Graphics/SVG/1.1/DTD/svg11.dtd">
<svg version="1.1" id="Layer_1" xmlns="http://www.w3.org/2000/svg" xmlns:xlink="http://www.w3.org/1999/xlink" x="0px" y="0px"
	 width="2210px" height="400px" viewBox="0 0 2210 400" enable-background="new 0 0 2210 400" xml:space="preserve">
<g>
	<path fill="#FFFFFF" d="M291.909,395.058c-5.963,0-11.616-2.958-16.802-8.792c-4.884-5.535-7.362-11.227-7.362-16.91
		c0.009-0.096,0.062-0.438,0.153-0.98c0.122-0.746,0.168-1.068,0.183-1.259c1.484-8.043,7.217-28.377,17.039-60.441
		c11.239-37.236,19.874-70.563,25.666-99.067l0.316-1.555h-6.889c-37.298,0-67.852,0.57-90.812,1.705l-0.936,0.045l-0.252,0.9
		c-13.822,49.395-33.063,102.119-57.188,156.709c-3.864,7.836-7.629,13.296-11.167,16.18c-3.512,2.86-8.858,4.925-15.892,6.136
		l-0.096,0.017l-0.093,0.03c-0.195,0.065-1.124,0.276-4.889,0.276c-6.933,0-13.574-1.641-19.739-4.832l-0.281-0.166h-0.316
		c-0.525,0-0.788-0.023-0.898-0.049l-0.112-0.103l-0.298-0.091c-26.46-8.555-49.868-22.368-69.574-41.062
		c-19.236-18.229-28.989-38.725-28.989-60.92c0-14.712,4.646-29.426,13.809-43.732c20.989-32.66,71.449-54.483,149.979-64.865
		l0.892-0.118l0.204-0.875c7.271-31.134,12.34-59.59,15.065-84.579l0.008-0.103c0.676-22.858,3.112-39.286,7.242-48.825
		c4.042-9.345,11.117-14.261,21.631-15.028l3.836,0.003c16.72,0,24.848,11.146,24.848,34.076c0,1.325-0.224,6.334-0.682,15.314
		c-0.115,1.926-0.229,3.774-0.342,5.537l-0.256,3.929c-0.049,0.711-0.075,1.182-0.085,1.408l-3.403,20.251l-3.589,21.535
		l-8.712,41.955l1.705-0.112c25.831-1.699,57.144-2.733,93.067-3.073l1.105-0.011l0.167-1.093
		c4.884-32.038,9.601-69.086,14.021-110.115c0.875-8.324,4.117-15.251,9.638-20.937c5.472-5.635,12.144-8.318,19.831-8.318h2.671
		c6.713,0,12.095,3.676,16.45,9.555c4.367,5.896,6.581,12.737,6.581,20.502c0,2.51-0.243,3.72-0.446,4.33l-0.039,0.095l-0.016,0.111
		c-5.328,39.666-10.844,74.134-16.394,102.456l-0.325,1.657l1.688-0.114c10.292-0.686,18.028-1.736,22.992-3.121
		c2.272-0.649,4.51-0.979,6.657-0.979c5.155,0,8.935,1.984,11.552,6.067c2.699,4.212,4.067,9.61,4.067,16.046
		c0,5.008-2.147,9.328-6.564,13.208c-4.526,3.972-10.072,7.107-16.485,9.317c-4.499,1.315-15.327,2.506-32.125,3.521l-0.974,0.059
		l-0.216,0.951c-7.819,34.45-22.303,88.244-43.048,159.888C313.562,385.758,304.805,395.058,291.909,395.058z M156.875,213.749
		c-48.059,7.307-81.041,20.965-98.029,40.596c-8.15,9.551-12.279,18.919-12.279,27.853c0,11.411,5.624,21.756,16.717,30.746
		c10.615,8.542,20.831,13.579,30.366,14.974c1.325,0.124,2.641,0.238,4.013,0.352c1.37,0.115,2.426,0.2,3.172,0.256
		c0.734,0.06,1.315,0.09,1.72,0.09c4.687,0,9.414-1.568,14.052-4.662l0.065-0.043l0.06-0.052c0.629-0.54,1.902-2.066,6.206-9.134
		c0.278-0.369,1.143-1.754,6.772-13.008l0.583-0.389l0.146-0.405c11.232-31.313,20.613-60.091,27.883-85.53l0.557-1.947
		L156.875,213.749z"/>
	<path fill="#FFFFFF" d="M605.66,384.053c-4.97,0-10.739-0.42-17.146-1.313c-5.189-0.969-9.273-2.312-12.084-4.015
		c-2.857-2.245-3.324-2.884-3.39-2.991l-1.971-2.937c-0.12-0.314-0.117-0.758-0.602-1.558c-0.345-0.572-0.335-0.865-0.335-1.011
		v-1.806l-11.156,5.114c-1.277,0.689-4.984,2.272-10.842,4.737c-3.908,1.775-8.233,3.057-12.764,3.822
		c-7.624,1.113-14.203,1.681-19.467,1.681c-4.232,0-8.55-0.338-12.803-1.005c-6.113-0.883-12.656-3.068-19.446-6.501
		c-8.731-4.611-15.755-11.14-20.847-19.395c-4.465-6.877-7.511-14.102-9.064-21.497l-0.542-2.572l-1.716,1.991
		c-4.004,4.645-10.928,10.222-20.581,16.577c-8.994,6.146-18.431,10.895-28.067,14.124l-0.085,0.028l-0.081,0.04
		c-2.537,1.262-6.243,1.901-10.579,1.901c-8.927,0-12.96-5.047-13.96-15.43v-0.302c0-6.38,3.748-12.637,10.704-18.597
		c1.915-1.68,5.04-4.002,9.082-6.912c3.704-2.684,6.987-4.772,9.655-6.213l0.129-0.061c1.017-0.676,2.075-1.351,3.148-2.025
		l2.309-1.547c0.159-0.098,0.295-0.332,0.396-0.332h0.159l0.321-0.105c10.565-6.799,21.03-17.129,31.105-30.805
		c10.018-13.602,17.815-25.697,23.178-36.003c6.071-11.825,13.701-22.53,22.683-31.849c9.085-9.084,18.883-16.654,29.104-22.496
		c8.72-4.918,17.619-8.317,26.443-10.105c2.616-0.434,5.88-0.657,9.654-0.657c5.104,0,9.592,0.504,13.339,1.496
		c6.747,1.576,13.786,4.133,20.958,7.604l0.118,0.058l0.129,0.032c0.09,0.023,0.673,0.209,3.301,1.599
		c2.231,1.182,3.238,1.608,3.791,1.772c0.514,0.313,1.261,0.459,2.422,0.459h2.021c0.811,0,1.621-0.443,2.545-1.359l1.438-1.101
		l0.116-0.168c1.062-1.505,1.619-2.024,1.847-2.199c0.86-0.089,1.697-0.173,2.496-1.173h2.075c2.001,0,5.674,1.189,10.921,2.518
		c3.472,0.882,6.598,2.101,9.291,3.631c5.458,2.823,9.839,5.484,13.064,7.938c2.62,2.186,4.842,4.15,6.272,5.8
		c2.403,3.14,3.783,6.087,4.783,8.707v2.748c0,3.002-0.57,5.535-1.41,7.531c-1.009,2.578-3.583,7.351-7.521,14.218
		c-5.027,9.691-6.3,12.101-6.604,12.89l0.002-0.093c-5.969,12.944-10.547,26.364-13.59,39.889
		c-2.37,10.222-3.576,18.228-3.576,23.789c0,4.832,0.463,8.467,1.422,11.021c1.072,4.169,4.039,6.414,8.589,6.414h1.282l0.085-0.053
		c5.327-0.706,12.567-3.496,22.135-8.49c8.913-5.031,15.253-7.582,18.881-7.582c2.627,0,4.842,0.931,6.772,2.856
		c4.169,4.164,6.283,8.79,6.283,13.754c0,7.307-3.379,14.366-10.041,20.988c-9.93,10.535-28.207,18.315-54.354,23.224
		c-4.522,0.888-10.34,1.303-17.301,1.303H605.66z M511.452,311.174c1.192,5.604,2.846,9.587,5.054,12.175
		c2.052,2.426,5.027,4.506,8.841,6.179l0.108,0.042c1.509,0.508,3.488,0.754,6.054,0.754c3.123,0,4.285-0.188,4.891-0.366
		c8.664-1.093,16.887-5.845,24.439-14.125c3.445-3.803,6.07-7.025,7.806-9.583c2.258-3.101,4.618-9.53,7.19-19.621
		c2.52-9.891,3.855-21.25,3.971-33.763c0-2.344-1.006-4.885-2.989-7.563c-1.926-2.594-3.68-4.436-5.355-5.146
		c-1.697-1.242-4.04-2.104-6.969-2.104h-2.304l-0.081,0.24c-2.872,0.363-5.829,1.501-8.788,3.155
		c-2.47,1.073-5.012,2.789-7.556,4.988c-4.293,2.811-8.685,7.073-13.054,12.616c-10.653,12.535-17.589,25.489-20.583,38.439
		c-0.701,2.813-1.059,5.871-1.059,9.052C511.068,309.515,511.28,310.622,511.452,311.174z"/>
	<path fill="#FFFFFF" d="M828.017,384.053c-9.567,0-16.734-1.152-21.255-2.816c-3.555-1.475-7.779-5.953-12.507-13.491
		c-4.29-6.874-6.467-15.631-6.467-26.126c0-11.853,2.649-25.057,7.876-39.295c2.629-5.962,5.943-11.758,9.821-17.175
		c3.907-5.463,7.105-9.712,9.508-12.642c3.486-4.256,3.934-5.957,3.934-6.966c0-2.696-2.921-7.09-25.702-17.224l-1.048-0.465
		l-0.593,0.981c-0.369,0.611-2.759,4.803-6.729,11.802c-4.076,7.184-7.326,12.292-9.659,15.185
		c-22.13,28.358-48.854,53.952-79.439,76.089c-13.472,9.577-25.447,14.437-35.587,14.437c-6.45,0-10.529-1.414-12.127-4.203
		c-1.734-4.684-2.613-8.236-2.613-10.562c0-11.48,9.039-21.725,26.866-30.448c12.362-5.614,27.31-19.343,44.396-40.789
		c16.692-21.153,27.879-41.532,33.253-60.574c0.396-0.861,0.588-2.018,0.588-3.529c0-3.26-1.762-9.331-5.388-18.559
		c-3.458-10.021-5.333-17.191-5.552-21.259l0.002-4.197c0-11.215,2.542-21.566,7.554-30.767
		c5.067-9.651,11.475-14.335,19.596-14.335c0.179,0.005,1.089,0.098,5.071,0.659c5.541,1.525,10.54,4.772,14.86,9.651
		c4.405,4.975,7.826,10.692,10.167,16.993c2.37,6.38,4.145,12.623,5.273,18.554c1.128,5.921,1.7,11.407,1.7,16.305
		c0,4.074-0.211,5.024-0.275,5.219l-0.259,0.777l0.59,0.569c9.527,9.18,23.307,17.139,40.955,23.656
		c18.646,6.295,31.446,12.573,38.078,18.675c2.453,2.071,3.626,4.368,3.626,7.06c0,4.156-1.911,9.199-5.681,14.987
		c-3.876,5.951-10.974,15.092-21.095,27.169c-10.469,12.349-15.778,23.537-15.778,33.25c0,2.972,0.611,6.438,1.818,10.3
		c0.735,2.876,2.938,6.381,9.153,6.381c4.08,0,11.057-2.563,21.331-7.834c9.757-5.008,17.12-7.547,21.885-7.547
		c2.924,0,5.533,1.164,7.977,3.56c2.848,3.106,4.315,7.296,4.315,12.401c0,11.063-5.72,20.102-17,27.27
		c-18.971,12.664-40.52,18.873-64.073,18.873H828.017z"/>
	<path fill="#FFFFFF" d="M1097.361,384.053c-5.106,0-10.94-0.424-17.338-1.324c-5.088-0.867-9.1-2.214-11.89-4.03
		c-3.01-2.443-3.546-3.002-3.639-3.117l-1.913-2.875c-0.107-0.303-0.412-0.738-0.824-1.516c-0.325-0.607-0.624-0.909-0.624-1.049
		v-1.832l-10.983,5.141c-1.296,0.705-4.834,2.3-10.681,4.777c-3.903,1.787-8.143,3.079-12.678,3.855
		c-7.621,1.123-14.158,1.695-19.423,1.695c-4.229,0-8.466-0.341-12.604-1.012c-6.235-0.893-12.822-3.097-19.61-6.556
		c-8.732-4.653-15.752-11.238-20.842-19.562c-4.805-7.279-8.017-15.243-9.571-23.708l-0.407-2.217l-1.714,1.462
		c-11.539,9.839-20.019,16.698-25.203,20.387c-13.505,9.822-25.495,14.799-35.647,14.799c-6.46,0-10.546-1.415-12.146-4.204
		c-1.737-4.687-2.618-8.239-2.618-10.561c0-11.48,9.069-21.725,26.956-30.448c9.654-4.428,20.949-13.684,33.545-27.497
		c12.315-13.411,23.244-28.831,32.481-45.828c6.188-12.024,13.761-22.692,22.521-31.734c9.089-9.029,18.887-16.56,29.104-22.364
		c8.604-4.889,17.558-8.269,26.61-10.047c2.614-0.432,5.82-0.654,9.49-0.654c5.102,0,9.59,0.5,13.342,1.485
		c4.151,0.896,9.802,3.09,16.849,6.535c3.91,1.691,4.703,1.83,5.186,1.83c1.182,0,2.824-0.584,3.941-3.368
		c1.063-2.465,1.928-6.054,2.633-10.94l30.534-115.484c4.773-17.02,9.843-30.965,15.063-41.43
		c5.608-11.473,14.515-17.046,27.23-17.046c2.228,0,5.006,0.337,8.257,1.002c5.138,1.401,10.01,4.21,14.399,8.329
		c4.333,4.063,6.439,8.938,6.439,14.899c0,0.217-0.008,0.514-0.023,0.892l-0.066,1.714c-0.029,0.737-0.059,1.389-0.087,1.956
		c-0.292,5.466-11.582,48.469-33.556,127.813c-23.137,78.261-35.672,123.522-37.254,134.514c-2.284,8.312-3.442,16.234-3.442,23.548
		c0,4.397,0.476,7.774,1.453,10.322c1.145,2.657,2.776,4.679,4.87,6.057l0.059,0.038l0.063,0.032
		c1.064,0.547,2.436,0.824,4.076,0.824c2.404,0,3.35-0.136,3.884-0.435c7.27-2.183,9.228-3.127,10.067-3.648
		c0.271-0.186,1.342-0.775,7.026-3.319c4.996-2.237,6.419-2.948,6.922-3.264l5.34-1.845c3.438-1.354,6.031-1.993,7.752-1.993h1.235
		c3.799,1,6.186,1.898,7.095,3.958c2.712,5.139,4.066,9.122,4.066,11.958c0,0.001-0.002,0.067-0.071,0.234
		c-0.134,0.328-0.258,0.718-0.392,1.239c-0.102,0.401-0.249,0.749-0.351,1.05l-0.118,0.202v0.216c0,1.421-0.374,3.154-1.207,5.153
		l-0.021,0.111l-0.014,0.117c-0.213,0.997-1.052,3.182-3.864,7.934c-2.292,2.961-6.063,6.431-11.219,10.314
		c-7.82,5.46-18.288,10.124-31.077,13.836c-3.563,1.125-8.745,2.229-15.434,3.358c-4.563,0.898-10.461,1.318-17.565,1.318H1097.361z
		 M996.63,310.003c1.067,5.237,2.827,9.309,5.23,12.101c2.158,2.549,5.128,4.7,8.819,6.386l0.061,0.027l0.063,0.021
		c1.514,0.512,3.494,0.76,6.056,0.76c3.021,0,4.166-0.204,4.736-0.376c9.793-1.448,18.3-6.151,25.286-13.979
		c2.859-3.394,7.279-11.512,13.537-24.845l0.035-0.076l0.025-0.079c2.417-7.53,3.817-15.344,4.163-23.223
		c0.001-0.308,0.023-1.043,0.169-3.149c0.12-1.78,0.174-2.79,0.174-3.273c0-4.663-0.588-8.823-1.747-12.368
		c-0.383-1.987-1.146-3.759-2.27-5.268c-1.835-2.216-3.205-3.35-4.321-3.85c-1.699-1.25-4.045-1.76-6.976-1.76h-2.127l-0.075-0.115
		c-3.104,0.363-6.07,1.276-8.814,2.837c-2.134,0.972-4.672,2.668-7.544,5.104c-4.515,3.055-8.961,7.303-13.219,12.659
		c-10.659,12.637-17.593,25.668-20.587,38.717c-0.7,2.834-1.058,5.9-1.058,9.102C996.249,308.342,996.458,309.447,996.63,310.003z"
		/>
	<path fill="#FFFFFF" d="M1249.437,385.053c-2.787,0-6.594-0.713-11.315-2.547c-8.886-4.799-18.82-27.609-29.528-68.015
		c-10.696-40.665-16.637-70.033-17.657-87.393l-0.715,0.048c-0.204-2.911-0.309-6.291-0.309-10.075
		c0-15.783,5.073-26.191,15.08-30.948c4.247-1.838,8.007-2.775,11.135-2.775c6.313,0,12.728,3.775,19.068,11.219
		c3.742,6.036,6.148,14.282,7.152,24.509l1.371,11.228l4.24,28.131c1.046,6.951,2.168,13.145,3.337,18.406
		c1.147,5.164,2.709,11.589,4.644,19.098c1.923,7.463,4.018,14.649,6.228,21.358l0.678,2.059l1.496-1.566
		c7.713-8.071,13.188-14.14,16.273-18.036c4.201-4.78,8.813-11.552,13.662-20.074c4.855-8.534,8.536-17.11,10.942-25.491
		c0.159-0.478,0.392-1.556,0.392-4.802c0-2.342-1.09-6.323-3.333-12.173c-2.767-7.202-3.291-8.794-3.356-9.102l-0.025-0.104
		c-0.647-2.265-0.976-4.848-0.976-7.675c0-9.866,2.646-19.541,7.863-28.754c5.29-8.853,11.642-13.354,18.864-13.354
		c1.64,0,3.853,0.439,6.575,1.307c5.723,2.212,11,9.942,15.612,22.95c4.158,12.907,6.726,25.971,7.619,38.792
		c0.227,6.735,2.016,17.116,5.315,30.805c0.084,0.344,0.318,1.114,1.408,4.075c0.788,2.146,1.644,4.605,2.542,7.31
		c0.928,2.797,1.842,5.662,2.716,8.516c3.857,11.158,6.662,19.65,8.352,25.285l0.644,2.147l1.544-1.625
		c6.93-7.291,12.343-13.355,16.09-18.026c4.206-4.786,8.815-11.558,13.663-20.081c4.855-8.534,8.743-17.11,11.149-25.491
		l0.256-0.176v-0.183c0-0.274-0.144-0.792-0.013-1.694l0.013-1.289v-0.093c0-3.602-1.635-9.729-4.926-18.732
		c-3.248-10.046-5.026-17.235-5.234-21.323l-0.017-0.165l-0.054-0.157c-0.098-0.313-0.264-1.209-0.264-3.714
		c0-11.347,2.534-21.775,7.532-30.997c5.054-9.667,11.44-14.358,19.536-14.358c0.248,0.022,3.898,0.478,5.39,0.663
		c10.659,2.861,18.905,11.222,24.511,24.85c5.491,13.343,8.276,27.091,8.276,40.863c0,5.064-0.395,6.579-0.509,7.031l-0.242,0.156
		v0.161c0,24.361-8.221,50.234-24.835,76.9c-8.049,13.205-16.755,24.831-26.083,34.565c-9.341,9.751-21.444,20.019-36.074,30.521
		c-7.087,5.401-16.269,8.13-27.369,8.13c-0.296,0-0.445,0.097-0.518,0.079l-0.285-0.172h-0.537c-0.216,0-1.268-0.266-5.721-2.08
		c-5.021-2.021-9.894-8.604-14.486-19.444c-4.688-11.056-8.075-24.913-10.065-41.126l-0.441-3.613l-1.945,3.051
		c-14.054,22.092-31.116,40.441-50.712,54.975c-7.853,5.607-15.519,8.238-22.768,8.238H1249.437z"/>
	<path fill="#FFFFFF" d="M1658.565,384.053c-4.97,0-10.739-0.42-17.146-1.313c-5.189-0.969-9.273-2.312-12.084-4.015
		c-2.857-2.245-3.324-2.884-3.39-2.991l-1.971-2.937c-0.12-0.314-0.57-0.758-1.055-1.558c-0.344-0.572-0.787-0.865-0.787-1.011
		v-1.806l-10.703,5.114c-1.277,0.689-4.758,2.272-10.616,4.737c-3.908,1.775-8.12,3.057-12.649,3.822
		c-7.625,1.113-14.147,1.681-19.411,1.681c-4.232,0-8.521-0.338-12.774-1.005c-6.113-0.883-12.643-3.068-19.432-6.501
		c-8.732-4.611-15.748-11.14-20.84-19.395c-4.465-6.877-7.508-14.102-9.061-21.497l-0.541-2.572l-1.715,1.991
		c-4.004,4.645-10.927,10.222-20.58,16.577c-8.994,6.146-18.431,10.895-28.067,14.124l-0.085,0.028l-0.081,0.04
		c-2.537,1.262-6.196,1.901-10.532,1.901c-8.926,0-12.912-5.047-13.912-15.43v-0.302c0-6.38,3.701-12.637,10.656-18.597
		c1.916-1.68,5.017-4.002,9.059-6.912c3.704-2.684,6.977-4.772,9.643-6.213l0.124-0.061c1.017-0.676,2.072-1.351,3.146-2.025
		l2.307-1.547c0.16-0.098,0.294-0.332,0.396-0.332h0.159l0.321-0.105c10.565-6.799,21.03-17.129,31.105-30.805
		c10.018-13.602,17.815-25.697,23.178-36.003c6.071-11.825,13.701-22.53,22.683-31.849c9.085-9.084,18.883-16.654,29.104-22.496
		c8.72-4.918,17.619-8.317,26.443-10.105c2.616-0.434,5.88-0.657,9.654-0.657c5.104,0,9.592,0.504,13.339,1.496
		c6.747,1.576,13.786,4.133,20.958,7.604l0.118,0.058l0.129,0.032c0.09,0.023,0.673,0.209,3.301,1.599
		c2.231,1.182,3.238,1.608,3.791,1.772c0.514,0.313,1.261,0.459,2.422,0.459h2.021c0.811,0,1.621-0.443,2.545-1.359l1.438-1.101
		l0.116-0.168c1.062-1.505,1.619-2.024,1.847-2.199c0.86-0.089,1.697-0.173,2.496-1.173h2.075c2.001,0,5.674,1.189,10.921,2.518
		c3.472,0.882,6.598,2.101,9.291,3.631c5.458,2.823,9.839,5.484,13.064,7.938c2.62,2.186,4.889,4.15,6.32,5.8
		c2.402,3.14,3.83,6.087,4.83,8.707v2.748c0,3.002-0.617,5.535-1.457,7.531c-1.01,2.578-3.607,7.351-7.546,14.218
		c-5.027,9.691-6.312,12.101-6.615,12.89l-0.003-0.093c-5.969,12.944-10.551,26.364-13.594,39.889
		c-2.37,10.222-3.578,18.228-3.578,23.789c0,4.832,0.463,8.467,1.422,11.021c1.072,4.169,4.038,6.414,8.588,6.414h1.282l0.085-0.053
		c5.327-0.706,12.567-3.496,22.135-8.49c8.913-5.031,15.253-7.582,18.881-7.582c2.627,0,4.842,0.931,6.772,2.856
		c4.169,4.164,6.283,8.79,6.283,13.754c0,7.307-3.379,14.366-10.041,20.988c-9.93,10.535-28.207,18.315-54.354,23.224
		c-4.522,0.888-10.34,1.303-17.301,1.303H1658.565z M1564.357,311.174c1.192,5.604,2.846,9.587,5.054,12.175
		c2.052,2.426,5.027,4.506,8.841,6.179l0.108,0.042c1.509,0.508,3.488,0.754,6.054,0.754c3.123,0,4.285-0.188,4.891-0.366
		c8.664-1.093,16.887-5.845,24.439-14.125c3.445-3.803,6.07-7.025,7.806-9.583c2.258-3.101,4.618-9.53,7.19-19.621
		c2.52-9.891,3.855-21.25,3.971-33.763c0-2.344-1.006-4.885-2.989-7.563c-1.926-2.594-3.68-4.436-5.355-5.146
		c-1.697-1.242-4.04-2.104-6.969-2.104h-2.304l-0.081,0.24c-2.872,0.363-5.829,1.501-8.788,3.155
		c-2.47,1.073-5.012,2.789-7.556,4.988c-4.293,2.811-8.685,7.073-13.054,12.616c-10.653,12.535-17.589,25.489-20.583,38.439
		c-0.701,2.813-1.059,5.871-1.059,9.052C1563.973,309.515,1564.185,310.622,1564.357,311.174z"/>
	<path fill="#FFFFFF" d="M1880.922,384.053c-9.567,0-16.734-1.152-21.255-2.816c-3.555-1.475-7.779-5.953-12.507-13.491
		c-4.29-6.874-6.467-15.631-6.467-26.126c0-11.853,2.649-25.057,7.876-39.295c2.629-5.962,5.943-11.758,9.821-17.175
		c3.907-5.463,7.105-9.712,9.508-12.642c3.486-4.256,3.934-5.957,3.934-6.966c0-2.696-2.921-7.09-25.702-17.224l-1.048-0.465
		l-0.593,0.981c-0.369,0.611-2.759,4.803-6.729,11.802c-4.076,7.184-7.326,12.292-9.659,15.185
		c-22.13,28.358-48.854,53.952-79.439,76.089c-13.472,9.577-25.447,14.437-35.587,14.437c-6.45,0-10.529-1.414-12.127-4.203
		c-1.734-4.684-2.613-8.236-2.613-10.562c0-11.48,9.039-21.725,26.866-30.448c12.362-5.614,27.31-19.343,44.396-40.789
		c16.692-21.153,27.879-41.532,33.253-60.574c0.396-0.861,0.588-2.018,0.588-3.529c0-3.26-1.762-9.331-5.388-18.559
		c-3.458-10.021-5.333-17.191-5.552-21.259l0.002-4.197c0-11.215,2.542-21.566,7.554-30.767
		c5.067-9.651,11.475-14.335,19.596-14.335c0.179,0.005,1.089,0.098,5.071,0.659c5.541,1.525,10.54,4.772,14.86,9.651
		c4.405,4.975,7.826,10.692,10.167,16.993c2.37,6.38,4.145,12.623,5.273,18.554c1.128,5.921,1.7,11.407,1.7,16.305
		c0,4.074-0.211,5.024-0.275,5.219l-0.259,0.777l0.59,0.569c9.527,9.18,23.307,17.139,40.955,23.656
		c18.646,6.295,31.446,12.573,38.078,18.675c2.453,2.071,3.626,4.368,3.626,7.06c0,4.156-1.911,9.199-5.681,14.987
		c-3.876,5.951-10.974,15.092-21.095,27.169c-10.469,12.349-15.778,23.537-15.778,33.25c0,2.972,0.611,6.438,1.818,10.3
		c0.735,2.876,2.938,6.381,9.153,6.381c4.08,0,11.057-2.563,21.331-7.834c9.757-5.008,17.12-7.547,21.885-7.547
		c2.924,0,5.533,1.164,7.977,3.56c2.848,3.106,4.315,7.296,4.315,12.401c0,11.063-5.72,20.102-17,27.27
		c-18.971,12.664-40.52,18.873-64.073,18.873H1880.922z"/>
	<path fill="#FFFFFF" d="M2037.807,382.753c-43.168,0-67.348-12.482-71.866-37.099l-0.017-0.093l-0.03-0.09
		c-0.064-0.189-0.273-1.122-0.273-5.18c0-6.344,2.047-12.882,6.082-19.434c4.077-6.619,9.445-12.64,15.956-17.54
		c12.298-9.283,23.236-15.266,32.519-19.266h0.11l0.005,0.139c0.032-0.012,0.064,0.066,0.097,0.055l-0.095,0.062l0.297-2.48
		l-4.278-1.017c-19.767-3.619-33.021-7.582-39.461-11.803c-13.141-7.735-19.776-18.992-19.776-33.498
		c0-8.974,2.93-16.621,8.708-22.736c5.584-6.037,12.37-11.189,20.18-15.324c7.847-4.153,14.878-6.995,20.898-8.447
		c5.922-1.229,14.966-2.49,26.841-3.738l25.493-3.256c5.2-0.792,14.246-1.595,26.918-2.39c23.61-1.356,49.88-6.603,78.086-15.597
		c-0.026,1.004-0.527,3.808-2.684,11.376c-0.567,1.813-2.987,9.087-6.989,21.003c-3.207,9.638-5.167,15.974-5.99,19.366
		c-1.938,4.783-6.097,8.908-12.36,12.264c-2.552,1.28-6.889,2.274-12.86,2.938l-16.086,2.057c-7.28,0.787-13.098,1.188-17.267,1.188
		c-2.168,0-8.646-0.23-19.256-0.686c-9.433-0.805-14.947-1.197-16.804-1.197c-9.373,0-17.836,1.71-25.153,5.083l-0.102,0.053
		c-2.051,1.174-3.047,2.438-3.047,3.868c0,3.116,4.533,5.359,14.699,7.272c10.583,1.938,23.09,3.728,37.18,5.32
		c12.78,1.362,24.471,3.028,35.109,4.954c7.118,1.239,10.543,3.746,10.543,7.452v7.706c0,5.986-0.34,10.477-1.366,13.347
		c-0.982,2.737-3.442,5.537-7.491,8.32c-9.41,5.27-20.562,9.48-33.237,12.515c-2.701,0.564-6.13,1.305-10.294,2.219
		c-4.228,0.928-7.393,1.599-9.699,2.051c-2.35,0.458-5.121,1.066-8.248,1.808c-3.14,0.743-5.704,1.445-7.628,2.087
		c-1.907,0.637-3.87,1.4-5.839,2.269c-2.018,0.893-3.707,1.832-5.024,2.793c-1.387,1.009-2.481,2.175-3.255,3.465l-0.048,0.088
		c-0.781,1.569-1.161,2.88-1.161,4.006c0,3.553,2.766,6.383,8.22,8.41c5.036,1.871,11.302,2.82,18.624,2.82
		c4.889,0,9.837-0.591,14.706-1.755c20.829-5.628,38.215-11.884,51.709-18.601c13.545-6.739,26.002-15.709,37.026-26.659
		c1.572-1.577,4.55-2.375,8.854-2.375c5.173,0,10.284,1.03,15.191,3.063c4.529,1.88,6.826,4.093,6.826,6.575
		c0,6.691-6.84,17.433-20.33,31.927c-13.497,14.171-25.51,23.973-35.694,29.12C2105.805,375.609,2073.106,382.753,2037.807,382.753z
		"/>
</g>
</svg>
