<?xml version="1.0" encoding="utf-8"?>
<!-- Generator: Adobe Illustrator 16.0.0, SVG Export Plug-In . SVG Version: 6.00 Build 0)  -->
<!DOCTYPE svg PUBLIC "-//W3C//DTD SVG 1.1//EN" "http://www.w3.org/Graphics/SVG/1.1/DTD/svg11.dtd">
<svg version="1.1" id="Layer_1" xmlns="http://www.w3.org/2000/svg" xmlns:xlink="http://www.w3.org/1999/xlink" x="0px" y="0px"
	 width="1302px" height="400px" viewBox="0 0 1302 400" enable-background="new 0 0 1302 400" xml:space="preserve">
<g>
	<path fill="#FFFFFF" d="M295.032,385.909c-5.963,0-11.616-2.958-16.802-8.792c-4.884-5.535-7.362-11.227-7.362-16.91
		c0.009-0.096,0.062-0.438,0.153-0.98c0.122-0.746,0.168-1.068,0.183-1.259c1.484-8.043,7.217-28.377,17.039-60.441
		c11.239-37.236,19.874-70.515,25.666-99.021l0.316-1.506h-6.889c-37.298,0-67.852,0.523-90.812,1.658l-0.936,0.021l-0.252,0.888
		c-13.822,49.395-33.063,102.113-57.188,156.704c-3.864,7.835-7.629,13.292-11.167,16.177c-3.512,2.859-8.858,4.923-15.892,6.134
		l-0.096,0.016l-0.093,0.03c-0.195,0.064-1.124,0.275-4.889,0.275c-6.933,0-13.574-1.592-19.739-4.783L105.993,374h-0.316
		c-0.525,0-0.788-0.07-0.898-0.096l-0.112-0.127l-0.298-0.104c-26.46-8.555-49.868-22.373-69.574-41.066
		c-19.236-18.23-28.989-38.729-28.989-60.924c0-14.712,4.646-29.427,13.809-43.733c20.989-32.66,71.449-54.485,149.979-64.866
		l0.892-0.119l0.204-0.875c7.271-31.134,12.34-59.59,15.065-84.579l0.008-0.103c0.676-22.858,3.112-39.286,7.242-48.825
		c4.042-9.345,11.117-14.261,21.631-15.028l3.836,0.003c16.72,0,24.848,11.146,24.848,34.076c0,1.325-0.224,6.334-0.682,15.314
		c-0.115,1.926-0.229,3.774-0.342,5.537l-0.256,3.929c-0.049,0.711-0.075,1.182-0.085,1.408l-3.403,20.251l-3.589,21.535
		l-8.712,41.955l1.705-0.112c25.831-1.699,57.144-2.733,93.067-3.073l1.105-0.011l0.167-1.093
		c4.884-32.038,9.601-69.086,14.021-110.115c0.875-8.324,4.117-15.204,9.638-20.888C351.425,16.637,358.097,14,365.784,14h2.671
		c6.713,0,12.095,3.627,16.45,9.508c4.367,5.896,6.581,12.712,6.581,20.477c0,2.51-0.243,3.709-0.446,4.318l-0.039,0.089
		l-0.016,0.108c-5.328,39.666-10.844,74.133-16.394,102.455l-0.325,1.656l1.688-0.114c10.292-0.686,18.028-1.737,22.992-3.122
		c2.272-0.649,4.51-0.979,6.657-0.979c5.155,0,8.935,1.984,11.552,6.067c2.699,4.212,4.067,9.61,4.067,16.046
		c0,5.008-2.147,9.328-6.564,13.208c-4.526,3.972-10.072,7.107-16.485,9.317c-4.499,1.315-15.327,2.506-32.125,3.521l-0.974,0.059
		l-0.216,0.951c-7.819,34.45-22.303,88.244-43.048,159.888C316.686,376.609,307.929,385.909,295.032,385.909z M159.998,204.601
		c-48.059,7.307-81.041,20.965-98.029,40.596c-8.15,9.551-12.279,18.919-12.279,27.853c0,11.411,5.624,21.756,16.717,30.746
		c10.615,8.542,20.831,13.579,30.366,14.974c1.325,0.124,2.641,0.238,4.013,0.352c1.37,0.115,2.426,0.2,3.172,0.256
		c0.734,0.06,1.315,0.09,1.72,0.09c4.687,0,9.414-1.568,14.052-4.662l0.065-0.043l0.06-0.052c0.629-0.54,1.902-2.066,6.206-9.134
		c0.278-0.369,1.143-1.754,6.772-13.008l0.583-0.389l0.146-0.405c11.232-31.313,20.613-60.091,27.883-85.53l0.557-1.947
		L159.998,204.601z"/>
	<path fill="#FFFFFF" d="M486.82,374.288c-7.804,0-15.943-1.037-24.195-3.081c-13.661-3.926-25.272-12.846-34.466-26.498
		c-9.001-13.348-13.565-30.068-13.565-49.699c0-16.683,3.579-33.438,10.639-49.8c9.987-23.962,23.729-42.53,40.853-55.203
		c17.094-12.985,35.02-19.564,53.292-19.564c18.34,0,34.425,6.828,47.808,20.295c13.174,13.264,20.53,32.414,21.862,56.918
		l-0.002,3.348c0,19.434-4.431,39.149-13.168,58.598c-8.719,18.961-21.131,34.606-36.886,46.492
		C523.284,368.169,505.734,374.288,486.82,374.288z M477.233,264.569c-4.734,8.76-7.134,19.227-7.134,31.113
		c0,13.453,5.03,21.897,14.951,25.099l0.127,0.041l0.132,0.014c6.243,0.681,6.499,0.681,6.651,0.681
		c14.143,0,25.533-7.4,33.855-21.997c8.522-14.347,12.85-29.27,12.85-44.335c0-5.39-0.774-10.287-2.303-14.557l-0.038-0.096
		c-3.643-8.09-9.115-12.191-16.265-12.191c-7.741,0-16.406,4.648-25.755,13.817C485.234,250.713,479.485,258.259,477.233,264.569z"
		/>
	<path fill="#FFFFFF" d="M704.334,376.339c-10.118,0-18.447-3.938-24.759-11.702c-3.14-4.698-5.068-12.134-5.731-22.1
		c-0.344-5.837-0.803-15.524-1.365-28.783c0.001-11.349-1.525-13.83-3.261-14.406c-0.357-0.246-0.883-0.461-1.627-0.461
		c-1.773,0-5.286,1.166-15.278,11.248c-7.66,7.385-17.396,15.604-28.919,24.411c-11.362,8.658-22.933,15.379-34.388,19.975
		c-6.054,2.255-11.191,3.404-15.238,3.404c-6.004,0-10.312-2.417-13.165-7.387c-1.062-3.13-1.6-5.747-1.6-7.781
		c0-8.853,5.426-16.653,16.126-23.185c10.008-5.772,21.508-13.931,34.152-24.23c11.959-10.178,21.653-19.204,28.837-26.847
		c8.081-8.32,17.203-15.762,27.098-22.102c9.794-6.274,19.605-10.381,29.162-12.207c0.613-0.007,1.423-0.066,2.411-0.178
		l0.109-0.018l1.581-0.315c5.402,0.023,9.931,1.589,13.463,4.653c3.607,3.137,6.12,6.984,7.469,11.436
		c1.399,4.631,2.508,9.305,3.295,13.889c0.796,4.656,1.576,8.87,2.319,12.188c0.33,1.48,1.337,6.158,4.602,6.158h0.115l0.112-0.191
		c1.593-0.283,4.582-2.296,13.642-14.781c5.809-7.949,12.557-18.261,20.054-30.56l10.889-16.889
		c2.437-3.128,6.155-6.809,11.054-10.919c4.867-4.087,9.271-6.836,13.091-8.16c8.234-2.588,14.945-3.907,19.911-3.907
		c10.731,0,20.298,4.509,28.436,13.403c0.942,0.957,2.793,4.758,4.97,19.876c1.593,9.219,3.43,22.079,5.466,38.433L860.417,292
		h1.144c2.875,0,8.543-2.816,24.51-27.931c12.357-19.333,21.447-34.264,27.017-44.464l7.656-11.305l8.703-12.387
		c6.002-8.409,11.256-13.84,15.608-16.146c11.278-6.193,19.692-9.328,25.026-9.328c7.814,0,15.673,5.84,23.357,17.354
		c2.613,4.07,5.479,14.625,8.507,31.353l3.584,40.462c5.226,49.488,6.554,56.98,7.099,58.313l0.036,0.089l0.05,0.083
		c2.631,4.427,6.17,6.671,10.517,6.671c1.688,0,5.256-0.75,16.705-7.237c6.292-3.822,12.103-5.751,17.304-5.751
		c2.756,0,4.885,0.702,6.332,2.088c3.214,5.076,4.844,10.088,4.844,14.898c0,11.184-7.43,21.154-22.081,29.637
		c-14.893,8.623-27.969,13.164-38.866,13.497c-13.624,1.136-21.638,1.709-23.886,1.709c-5.226,0-9.924-0.497-13.964-1.478
		c-3.963-0.961-8.059-3.012-12.174-6.093c-4.1-3.07-7.567-7.285-10.308-12.526c-2.776-5.302-5.063-12.656-6.796-21.859
		c-1.743-9.239-2.627-20.346-2.627-33.013c0-0.271,0.066-3.012,0.684-22.547l0.112-3.567l-2.381,2.659
		c-3.236,3.615-7.43,9.896-12.464,18.668l-15.721,27.241c-6.182,9.991-13.094,19.307-20.523,27.654
		c-9.001,10.098-17.825,17.988-26.228,23.452c-3.835,2.286-8.096,3.459-12.621,3.459c-7.581,0-14.884-2.129-21.706-6.328
		c-7.408-4.58-11.583-8.642-12.406-12.07l-0.086-0.36l-0.217-0.214c-0.252-0.378-1.237-2.341-5.047-12.148
		c-3.619-10.362-4.559-14.039-4.706-15.292l-8.096-51.625l-1.809,1.825c-3.188,3.214-10.855,15.313-23.443,36.989
		c-12.519,21.003-24.691,37.181-36.172,48.071C726.843,372.361,716.568,376.339,704.334,376.339z"/>
	<path fill="#FFFFFF" d="M1142.347,373.604c-43.168,0-67.348-12.482-71.866-37.099l-0.017-0.093l-0.03-0.09
		c-0.064-0.189-0.273-1.122-0.273-5.18c0-6.344,2.047-12.882,6.082-19.434c4.077-6.619,9.445-12.593,15.956-17.493
		c12.298-9.283,23.236-15.217,32.519-19.217h0.11l0.005,0.09c0.032-0.012,0.064,0.043,0.097,0.031l-0.095,0.05l0.297-2.486
		l-4.278-1.021c-19.767-3.619-33.021-7.582-39.461-11.803c-13.141-7.735-19.776-18.993-19.776-33.499
		c0-8.974,2.93-16.622,8.708-22.736c5.584-6.037,12.37-11.19,20.18-15.325c7.847-4.152,14.878-6.995,20.898-8.447
		c5.922-1.229,14.966-2.49,26.841-3.738l25.493-3.256c5.2-0.792,14.246-1.595,26.918-2.39c23.61-1.356,49.88-6.603,78.086-15.597
		c-0.026,1.004-0.527,3.808-2.684,11.376c-0.567,1.813-2.987,9.087-6.989,21.003c-3.207,9.638-5.167,15.974-5.99,19.366
		c-1.938,4.783-6.097,8.908-12.36,12.264c-2.552,1.28-6.889,2.274-12.86,2.938l-16.086,2.057c-7.28,0.787-13.098,1.188-17.267,1.188
		c-2.168,0-8.646-0.23-19.256-0.686c-9.433-0.805-14.947-1.197-16.804-1.197c-9.373,0-17.836,1.71-25.153,5.083l-0.102,0.053
		c-2.051,1.174-3.047,2.438-3.047,3.868c0,3.116,4.533,5.359,14.699,7.272c10.583,1.938,23.09,3.728,37.18,5.32
		c12.78,1.362,24.855,3.028,35.494,4.954c7.118,1.239,10.928,3.746,10.928,7.452v7.706c0,5.986-0.725,10.477-1.751,13.347
		c-0.982,2.737-3.636,5.537-7.685,8.32c-9.408,5.27-20.657,9.48-33.333,12.515c-2.701,0.564-6.178,1.305-10.342,2.219
		c-4.228,0.928-7.417,1.599-9.724,2.051c-2.349,0.458-5.133,1.066-8.26,1.808c-3.139,0.743-5.71,1.445-7.634,2.087
		c-1.907,0.637-3.874,1.4-5.841,2.269c-2.018,0.893-3.709,1.832-5.026,2.793c-1.387,1.009-2.481,2.175-3.255,3.465l-0.05,0.088
		c-0.781,1.569-1.161,2.88-1.161,4.006c0,3.553,2.766,6.383,8.22,8.41c5.036,1.871,11.302,2.82,18.624,2.82
		c4.889,0,9.837-0.591,14.706-1.755c20.829-5.628,38.215-11.884,51.709-18.601c13.545-6.739,26.002-15.709,37.026-26.659
		c1.572-1.577,4.55-2.375,8.854-2.375c5.173,0,10.284,1.03,15.191,3.063c4.529,1.88,6.826,4.093,6.826,6.575
		c0,6.691-6.84,17.433-20.33,31.927c-13.497,14.171-25.51,23.973-35.694,29.12C1210.345,366.461,1177.646,373.604,1142.347,373.604z
		"/>
</g>
</svg>
